<svg id="Layer_2" data-name="Layer 2" xmlns="http://www.w3.org/2000/svg" width="24.543" height="28" viewBox="0 0 24.543 28">
  <path id="Path_325" data-name="Path 325" d="M3,11.591v14.4a3.181,3.181,0,0,0,3.191,3.181H24.362a3.181,3.181,0,0,0,3.181-3.181v-14.4A3.191,3.191,0,0,0,24.362,8.4h-2.02a5.579,5.579,0,0,0,.736-.944,4.578,4.578,0,0,0,.113-4.493,3.568,3.568,0,0,0-3.2-1.794h0a4.9,4.9,0,0,0-3.776,1.6,5.739,5.739,0,0,0-.944,1.34,5.739,5.739,0,0,0-.9-1.34A4.9,4.9,0,0,0,10.6,1.17h0A3.587,3.587,0,0,0,7.389,2.954,4.578,4.578,0,0,0,7.5,7.447a5.579,5.579,0,0,0,.736.944H6.191A3.191,3.191,0,0,0,3,11.591Zm22.655,0v14.4a1.293,1.293,0,0,1-1.293,1.293H16.215l.066-16.991H24.39A1.3,1.3,0,0,1,25.655,11.591ZM19.991,3.1h0a1.69,1.69,0,0,1,1.576.84,2.634,2.634,0,0,1-.123,2.605c-.406.708-1.473,1.888-4.04,1.888H16.215a6.893,6.893,0,0,1,1.312-4.37,3.087,3.087,0,0,1,2.464-1ZM9.107,6.5A2.634,2.634,0,0,1,8.985,3.9a1.69,1.69,0,0,1,1.567-.84h0A3.087,3.087,0,0,1,12.968,4a7.4,7.4,0,0,1,1.359,4.4h-1.18C10.552,8.4,9.513,7.211,9.107,6.5ZM4.888,11.591a1.3,1.3,0,0,1,1.3-1.3h8.137l-.066,16.991H6.191a1.293,1.293,0,0,1-1.3-1.293Z" transform="translate(-3 -1.167)"/>
</svg>
