<svg xmlns="http://www.w3.org/2000/svg" width="28.5" height="20.864" viewBox="0 0 28.5 20.864">
  <path id="Union_14" data-name="Union 14" d="M3.432-1246.136A3.436,3.436,0,0,1,0-1249.568v-14A3.436,3.436,0,0,1,3.432-1267H25.069a3.436,3.436,0,0,1,3.432,3.432v14a3.436,3.436,0,0,1-3.432,3.432Zm7.25-1.773H25.069a1.661,1.661,0,0,0,1.659-1.659v-7.7H17.045v1.977a.889.889,0,0,1-.357.712.892.892,0,0,1-.528.175.9.9,0,0,1-.256-.037l-.554-.167,1,2.488a.888.888,0,0,1-.089.826.885.885,0,0,1-.734.39H12.341a.881.881,0,0,1-.823-.557l-.836-2.091Zm-8.909-1.659a1.661,1.661,0,0,0,1.659,1.659H8.909v-5.647l-.836,2.091a.883.883,0,0,1-.823.557H4.068a.884.884,0,0,1-.734-.39.885.885,0,0,1-.089-.826l1-2.488-.554.167a.894.894,0,0,1-.255.037.891.891,0,0,1-.529-.176.889.889,0,0,1-.357-.711v-1.977H1.773Zm10.076-5.845,1.093,2.731h1.273l-1.032-2.581-1.109-.333Q11.963-1255.5,11.849-1255.413Zm-5.439.149-1.032,2.581H6.65l1.092-2.731c-.076-.058-.151-.119-.223-.184Zm-2.092-1.223,2.2-.661a3.361,3.361,0,0,1-.155-1.012,3.358,3.358,0,0,1,.155-1.012l-2.2-.661Zm8.754-2.685a3.386,3.386,0,0,1,.155,1.012,3.39,3.39,0,0,1-.155,1.012l2.2.66v-3.344Zm-4.936,1.012A1.661,1.661,0,0,0,9.8-1256.5a1.661,1.661,0,0,0,1.659-1.659,1.661,1.661,0,0,0-1.659-1.66A1.661,1.661,0,0,0,8.136-1258.159Zm8.552-3.576a.889.889,0,0,1,.357.712v1.977h9.682v-4.523a1.661,1.661,0,0,0-1.66-1.659H10.681v3.752a3.424,3.424,0,0,1,1.391.752l3.832-1.149a.9.9,0,0,1,.255-.037A.885.885,0,0,1,16.688-1261.734Zm-14.915-1.834v4.523h.772v-1.977a.887.887,0,0,1,.358-.711.9.9,0,0,1,.783-.139l3.832,1.15a3.412,3.412,0,0,1,1.391-.752v-3.753H3.432A1.661,1.661,0,0,0,1.773-1263.568Z" transform="translate(0 1267)"/>
</svg>
