<svg xmlns="http://www.w3.org/2000/svg" width="28.073" height="28.074" viewBox="0 0 28.073 28.074">
  <g id="Group_590" data-name="Group 590" transform="translate(-17.92 -156)">
    <path id="Path_322" data-name="Path 322" d="M14.037,0A14.037,14.037,0,1,0,28.074,14.037,14.053,14.053,0,0,0,14.037,0Zm0,26.429A12.392,12.392,0,1,1,26.429,14.037,12.406,12.406,0,0,1,14.037,26.429Z" transform="translate(17.92 156)"/>
    <path id="Path_323" data-name="Path 323" d="M70.746,60A10.747,10.747,0,1,0,81.493,70.746,10.759,10.759,0,0,0,70.746,60Zm0,19.849a9.1,9.1,0,1,1,9.1-9.1A9.112,9.112,0,0,1,70.746,79.848Z" transform="translate(-38.789 99.291)"/>
    <path id="Path_324" data-name="Path 324" d="M151.446,162.477l-2.488.682-2.2-2.839a.822.822,0,0,0-1.3,0l-2.2,2.839-2.488-.682a.823.823,0,0,0-1.009,1.017l1.52,5.364a.823.823,0,0,0,.791.6h8.049a.822.822,0,0,0,.791-.6l1.536-5.364a.822.822,0,0,0-1.008-1.02Zm-1.939,5.335H142.7l-.953-3.363,1.613.442a.823.823,0,0,0,.868-.29l1.883-2.434,1.883,2.434a.822.822,0,0,0,.868.29l1.608-.441Z" transform="translate(-114.154 4.773)"/>
  </g>
</svg>
