<svg xmlns="http://www.w3.org/2000/svg" width="23.485" height="24.837" viewBox="0 0 23.485 24.837">
  <path id="Path_342" data-name="Path 342" d="M2.359,4.057a2.027,2.027,0,0,0-.538,1.518l.34,5.119A2.872,2.872,0,0,0,5.015,13.36H6.864a6.962,6.962,0,0,0,5.867,4.97v2.1a4.624,4.624,0,0,0-3.77,4.578.828.828,0,0,0,.828.828h7.54a.88.88,0,0,0,.828-.887,4.6,4.6,0,0,0-3.77-4.519v-2.1a6.961,6.961,0,0,0,5.868-4.97H22.1a2.873,2.873,0,0,0,2.854-2.669l.34-5.114a2.029,2.029,0,0,0-2.026-2.168H21l.086-1.536A.827.827,0,0,0,20.257,1H6.861a.827.827,0,0,0-.826.874l.086,1.536H3.847a2.039,2.039,0,0,0-1.488.648ZM16.4,24.181h-5.68a2.943,2.943,0,0,1,5.68,0ZM20.907,5.065h2.364a.374.374,0,0,1,.276.12.365.365,0,0,1,.1.275s0,0,0,0l-.34,5.114A1.21,1.21,0,0,1,22.1,11.7h-1.57ZM19.382,2.656l-.506,9.04a5.322,5.322,0,0,1-10.548.678c-.043-.221-.12-1.279-.12-1.279L7.736,2.656ZM6.585,11.7H5.015a1.21,1.21,0,0,1-1.2-1.123l-.34-5.121a.365.365,0,0,1,.1-.275.374.374,0,0,1,.276-.12H6.211Z" transform="translate(-1.816 -1)"/>
</svg>
