<svg xmlns="http://www.w3.org/2000/svg" width="25.841" height="21.096" viewBox="0 0 25.841 21.096">
  <path id="speedometer" d="M25.841,12.914A12.8,12.8,0,0,1,23.232,20.7a1.009,1.009,0,0,1-1.61-1.218,10.9,10.9,0,1,0-19.6-6.564,10.8,10.8,0,0,0,2.2,6.564A1.009,1.009,0,0,1,2.609,20.7,12.913,12.913,0,0,1,12.92,0a12.91,12.91,0,0,1,12.92,12.914ZM19.316,6.835a1.009,1.009,0,0,1,0,1.427l-3.29,3.29A3.533,3.533,0,1,1,14.6,10.125l3.29-3.29a1.009,1.009,0,0,1,1.428,0Zm-4.884,6.4a1.512,1.512,0,1,0-1.512,1.512A1.513,1.513,0,0,0,14.432,13.231Zm0,0" transform="translate(0 0)"/>
</svg>
