<svg xmlns="http://www.w3.org/2000/svg" width="29.272" height="22.993" viewBox="0 0 29.272 22.993">
  <path id="path1983" d="M4.713-760.01a4.192,4.192,0,0,0-4.184,4.175v6.275a4.2,4.2,0,0,0,4.184,4.184v3.14a1.046,1.046,0,0,0,.648.959A1.046,1.046,0,0,0,6.5-741.5l3.873-3.874H17.26a4.192,4.192,0,0,0,4.176-4.184v-6.275a4.185,4.185,0,0,0-4.176-4.175Zm0,2.093H17.26a2.058,2.058,0,0,1,2.093,2.083v6.275a2.065,2.065,0,0,1-2.093,2.091H9.938a1.044,1.044,0,0,0-.735.308l-2.4,2.4v-1.66a1.045,1.045,0,0,0-1.041-1.049H4.713a2.064,2.064,0,0,1-2.091-2.091v-6.275a2.057,2.057,0,0,1,2.091-2.083Zm17.772,2.083v2.091h3.134a2.065,2.065,0,0,1,2.091,2.093v6.275a2.064,2.064,0,0,1-2.091,2.091H24.576a1.045,1.045,0,0,0-.743.306,1.045,1.045,0,0,0-.306.743v1.652l-2.391-2.393a1.046,1.046,0,0,0-.741-.308H13.078a2.058,2.058,0,0,1-1.809-1.041H10.8l-1.221,1.221a4.184,4.184,0,0,0,3.5,1.911h6.883l3.875,3.873a1.046,1.046,0,0,0,1.138.224,1.046,1.046,0,0,0,.645-.963v-3.134a4.2,4.2,0,0,0,4.182-4.182v-6.275a4.2,4.2,0,0,0-4.182-4.184Z" transform="translate(-0.529 760.01)"/>
</svg>
