<svg xmlns="http://www.w3.org/2000/svg" width="28.574" height="27.097" viewBox="0 0 28.574 27.097">
  <path id="Union_35" data-name="Union 35" d="M8640.452,2715.806l-2.252-2.255-2.253,2.257a1.014,1.014,0,0,1-1.4,0l-2.252-2.257-2.257,2.257a.993.993,0,0,1-1.4,0l-2.259-2.259-2.259,2.259a.985.985,0,0,1-.7.289.971.971,0,0,1-.377-.074.99.99,0,0,1-.612-.916v-20.685a.989.989,0,0,1,.992-.987h17.729a.988.988,0,0,1,.989.987v20.685a.988.988,0,0,1-1.688.7Zm-7.46-4.351,2.255,2.255,2.254-2.255a.991.991,0,0,1,1.4,0l1.261,1.265v-17.308h-15.757v17.312l1.274-1.271a.99.99,0,0,1,1.4,0l2.261,2.257,2.255-2.255a1.007,1.007,0,0,1,1.4,0Zm-3.626-4.225a.988.988,0,1,1,0-1.977h5.876a.988.988,0,1,1,0,1.977Zm0-5.909a.988.988,0,1,1,0-1.977h5.876a.988.988,0,1,1,0,1.977Zm13.753-2.467a.99.99,0,0,1,.987-.99.491.491,0,0,0,.491-.488v-5.909a.492.492,0,0,0-.491-.49h-23.64a.49.49,0,0,0-.488.49v5.909a.489.489,0,0,0,.488.488.99.99,0,0,1,0,1.979,2.47,2.47,0,0,1-2.467-2.467v-5.909a2.47,2.47,0,0,1,2.467-2.467h23.64a2.47,2.47,0,0,1,2.468,2.467v5.909a2.47,2.47,0,0,1-2.468,2.467A.99.99,0,0,1,8643.119,2698.854Z" transform="translate(-8618 -2689)"/>
</svg>
