<svg id="Group_588" data-name="Group 588" xmlns="http://www.w3.org/2000/svg" width="28.074" height="28.074" viewBox="0 0 28.074 28.074">
  <path id="Path_345" data-name="Path 345" d="M14.037,0A13.888,13.888,0,0,0,0,14.037,13.888,13.888,0,0,0,14.037,28.074,13.889,13.889,0,0,0,28.074,14.037,13.888,13.888,0,0,0,14.037,0Zm0,25.881a11.9,11.9,0,0,1-6.86-2.13,7.678,7.678,0,0,1,13.721,0A11.9,11.9,0,0,1,14.037,25.881Zm8.567-3.59a9.875,9.875,0,0,0-17.134,0,11.814,11.814,0,0,1-3.277-8.254A11.718,11.718,0,0,1,14.037,2.193,11.718,11.718,0,0,1,25.881,14.037,11.814,11.814,0,0,1,22.6,22.291ZM14.037,6.36a5.483,5.483,0,1,0,5.483,5.483A5.489,5.489,0,0,0,14.037,6.36Zm0,8.773a3.29,3.29,0,1,1,3.29-3.29A3.294,3.294,0,0,1,14.037,15.134Z"/>
</svg>
