<svg id="Layer_x0020_1" xmlns="http://www.w3.org/2000/svg" xmlns:xlink="http://www.w3.org/1999/xlink" width="265.76" height="34.161" viewBox="0 0 265.76 34.161">
  <defs>
    <linearGradient id="linear-gradient" x1="0.136" y1="0.842" x2="0.864" y2="0.158" gradientUnits="objectBoundingBox">
      <stop offset="0" stop-color="#90c"/>
      <stop offset="1" stop-color="#57b3ff"/>
    </linearGradient>
  </defs>
  <g id="_1755478036496">
    <path id="Union_13" data-name="Union 13" d="M-8.532-1202.488l-8.468-13.6h2.838l6.313,10.138,6.3-10.138H1.3l-9.15,14.692Zm97.9.18a4.047,4.047,0,0,1-3-1.051,3.41,3.41,0,0,1-.818-1.373H97.472a1.438,1.438,0,0,0,1.625-1.625,1.744,1.744,0,0,0-.368-1.257,1.74,1.74,0,0,0-1.247-.368h-8.11a4.032,4.032,0,0,1-3-1.051,4.046,4.046,0,0,1-1.053-3,4.034,4.034,0,0,1,1.053-3,4.05,4.05,0,0,1,3-1.05h8.11a4.054,4.054,0,0,1,3,1.05,3.3,3.3,0,0,1,.817,1.374H89.371a1.764,1.764,0,0,0-1.256.368,1.722,1.722,0,0,0-.368,1.257,1.434,1.434,0,0,0,1.625,1.625h8.11a4.054,4.054,0,0,1,3,1.05,4.047,4.047,0,0,1,1.042,3,4.047,4.047,0,0,1-1.052,3,4.048,4.048,0,0,1-3,1.051Zm-.009,0h.009Zm-20.172,0a4.047,4.047,0,0,1-3-1.051,4.068,4.068,0,0,1-1.05-3v-9.725h2.425v9.725a1.433,1.433,0,0,0,1.624,1.625H77.3a1.434,1.434,0,0,0,1.624-1.625v-9.725h2.426v9.725a4.054,4.054,0,0,1-1.051,3,4.051,4.051,0,0,1-3,1.051Zm-24.244,0v-13.775h12.16a4.057,4.057,0,0,1,3,1.05,4.058,4.058,0,0,1,1.049,3v5.675a4.057,4.057,0,0,1-1.049,3,4.054,4.054,0,0,1-3,1.051Zm2.434-2.425h9.734a1.435,1.435,0,0,0,1.626-1.625v-5.675a1.767,1.767,0,0,0-.368-1.257,1.766,1.766,0,0,0-1.258-.368H47.38Zm-7.212,2.425H38.552v-13.775h2.425v13.775Zm-21.22,0v-13.775h2.425v11.351H35.149v2.425Zm-5.936,0-6.3-10.13-6.314,10.13H-2.443L6.708-1217l.682,1.1,8.459,13.6Zm95.657-11.351v-1.922l-.871,1.922h-.316l-.871-1.922v1.922h-.41v-2.425h.609l.836,1.849.833-1.849h.621v2.425Zm-4.3-.009v-2.048h-.936v-.368h2.3v.368H104.8v2.048Z" transform="translate(64 1226.276)"/>
    <path id="Path_320" data-name="Path 320" d="M1545.649,2781v9.187H1543V2781Z" transform="translate(-1529.144 -2756.026)"/>
    <path id="Path_321" data-name="Path 321" d="M30.353,0V17.448H27.7V0ZM2.649,0V17.448H0V0ZM9.573,8.459V25.908H6.924V8.459ZM16.5,16.712V34.161H13.847V16.712ZM23.42,8.459V25.908H20.771V8.459Z" fill="url(#linear-gradient)"/>
  </g>
  <!-- <path id="Path_42410" data-name="Path 42410" d="M9.8-13.6H2V0H3.34V-5.54H9.8c2.86,0,4.46-1.44,4.46-4.02S12.66-13.6,9.8-13.6ZM9.5-6.7H3.34v-5.72H9.5c2.28,0,3.4.94,3.4,2.86C12.9-7.66,11.78-6.7,9.5-6.7ZM24.08.24c4.42,0,7.4-2.84,7.4-7.04s-2.98-7.04-7.4-7.04S16.68-11,16.68-6.8,19.66.24,24.08.24Zm0-1.24c-3.6,0-6.02-2.32-6.02-5.8s2.42-5.8,6.02-5.8,6.02,2.32,6.02,5.8S27.68-1,24.08-1Zm23.8,1L43.54-5.84a3.611,3.611,0,0,0,3.68-3.88c0-2.48-1.56-3.88-4.32-3.88H34.78V0h1.34V-5.82h5.8L46.24,0ZM36.12-12.42h6.5c2.16,0,3.22.88,3.22,2.7C45.84-7.88,44.78-7,42.62-7h-6.5ZM62.26-13.6H49.7v1.18h5.6V0h1.34V-12.42h5.62ZM74.14,0H75.6L69.06-13.6H67.7L61.16,0h1.42l1.84-3.86h7.86ZM68.36-12.14l3.36,7.1H64.98ZM79.82-1.18V-13.6H78.48V0H89.76V-1.18Z" transform="translate(176 24)"/> -->
</svg>
