<svg xmlns="http://www.w3.org/2000/svg" xmlns:xlink="http://www.w3.org/1999/xlink" width="32.536" height="32.536" viewBox="0 0 32.536 32.536">
  <defs>
    <radialGradient id="radial-gradient" cx="0.5" cy="0.5" r="0.707" gradientUnits="objectBoundingBox">
      <stop offset="0" stop-color="#a25d25"/>
      <stop offset="1" stop-color="#000002"/>
    </radialGradient>
    <linearGradient id="linear-gradient" y1="0.5" x2="1" y2="0.5" gradientUnits="objectBoundingBox">
      <stop offset="0" stop-color="#dba73e"/>
      <stop offset="0.16" stop-color="#e0c77d"/>
      <stop offset="0.54" stop-color="#f4f3b8"/>
      <stop offset="0.56" stop-color="#f7ed9a"/>
      <stop offset="0.69" stop-color="#dbc276"/>
      <stop offset="0.84" stop-color="#f4f3b8"/>
      <stop offset="1" stop-color="#e0c77d"/>
    </linearGradient>
    <linearGradient id="linear-gradient-2" x1="0.5" y1="0.99" x2="0.5" y2="0.01" gradientUnits="objectBoundingBox">
      <stop offset="0" stop-color="#dba73e"/>
      <stop offset="0.16" stop-color="#d89d3a"/>
      <stop offset="0.3" stop-color="#a46b28"/>
      <stop offset="0.46" stop-color="#8e5723"/>
      <stop offset="0.52" stop-color="#f4f3b8"/>
      <stop offset="0.55" stop-color="#f7ed9a"/>
      <stop offset="0.7" stop-color="#d5b767"/>
      <stop offset="0.75" stop-color="#a76f29"/>
      <stop offset="0.85" stop-color="#d0ab5b"/>
      <stop offset="1" stop-color="#e0c77d"/>
    </linearGradient>
    <radialGradient id="radial-gradient-2" cx="0.5" cy="0.5" r="0.707" gradientUnits="objectBoundingBox">
      <stop offset="0" stop-color="#fff"/>
      <stop offset="0.1" stop-color="#fff"/>
      <stop offset="0.4" stop-color="#f1f1f1"/>
      <stop offset="0.73" stop-color="#c8c0af"/>
      <stop offset="0.87" stop-color="#cbcaca"/>
      <stop offset="1" stop-color="#b2ac9f"/>
    </radialGradient>
    <linearGradient id="linear-gradient-5" y1="0.5" x2="1" y2="0.5" gradientUnits="objectBoundingBox">
      <stop offset="0" stop-color="#edfdff"/>
      <stop offset="1" stop-color="#f6ffe4"/>
    </linearGradient>
    <linearGradient id="linear-gradient-6" y1="0.5" x2="1" y2="0.5" gradientUnits="objectBoundingBox">
      <stop offset="0" stop-color="#4d88c7"/>
      <stop offset="1" stop-color="#c4f2fd"/>
    </linearGradient>
    <linearGradient id="linear-gradient-7" y1="0.5" x2="1" y2="0.5" gradientUnits="objectBoundingBox">
      <stop offset="0" stop-color="#d4e4fd"/>
      <stop offset="1" stop-color="#6899cf"/>
    </linearGradient>
    <linearGradient id="linear-gradient-9" y1="0.5" x2="1" y2="0.5" gradientUnits="objectBoundingBox">
      <stop offset="0.352" stop-color="#164d83"/>
      <stop offset="1" stop-color="#61a0e9"/>
    </linearGradient>
    <linearGradient id="linear-gradient-16" y1="0.5" x2="1" y2="0.5" gradientUnits="objectBoundingBox">
      <stop offset="0" stop-color="#a0ceed"/>
      <stop offset="0.709" stop-color="#5890c7"/>
    </linearGradient>
    <linearGradient id="linear-gradient-54" y1="0.5" x2="1" y2="0.5" gradientUnits="objectBoundingBox">
      <stop offset="0" stop-color="#a9d5fd"/>
      <stop offset="1" stop-color="#d4e6fd"/>
    </linearGradient>
    <linearGradient id="linear-gradient-68" y1="0.5" x2="1.055" y2="0.5" gradientUnits="objectBoundingBox">
      <stop offset="0" stop-color="#c0e4fd"/>
      <stop offset="1" stop-color="#d4f4fd"/>
    </linearGradient>
    <linearGradient id="linear-gradient-69" x1="0" y1="0.5" x2="1.137" y2="0.5" xlink:href="#linear-gradient-7"/>
    <linearGradient id="linear-gradient-70" y1="0.5" x2="1.176" y2="0.5" gradientUnits="objectBoundingBox">
      <stop offset="0" stop-color="#d4f4fd"/>
      <stop offset="1" stop-color="#c8f4fd"/>
    </linearGradient>
    <linearGradient id="linear-gradient-71" x1="-0.211" y1="0.5" x2="1" y2="0.5" xlink:href="#linear-gradient-6"/>
    <linearGradient id="linear-gradient-72" y1="0.5" x2="1.211" y2="0.5" xlink:href="#linear-gradient-6"/>
    <linearGradient id="linear-gradient-73" x1="-0.176" y1="0.5" x2="1" y2="0.5" xlink:href="#linear-gradient-9"/>
    <linearGradient id="linear-gradient-74" x1="0" y1="0.5" x2="1.176" y2="0.5" xlink:href="#linear-gradient-9"/>
    <linearGradient id="linear-gradient-76" x1="-0.137" y1="0.5" x2="1" y2="0.5" xlink:href="#linear-gradient-5"/>
    <linearGradient id="linear-gradient-77" y1="0.5" x2="1.137" y2="0.5" xlink:href="#linear-gradient-6"/>
    <linearGradient id="linear-gradient-78" x1="-0.055" y1="0.5" x2="1" y2="0.5" xlink:href="#linear-gradient-5"/>
    <linearGradient id="linear-gradient-80" x1="-0.055" y1="0.5" x2="1" y2="0.5" xlink:href="#linear-gradient-6"/>
    <linearGradient id="linear-gradient-81" x1="-0.176" y1="0.5" x2="1" y2="0.5" xlink:href="#linear-gradient-7"/>
    <linearGradient id="linear-gradient-82" x1="-0.137" y1="0.5" x2="1" y2="0.5" xlink:href="#linear-gradient-7"/>
    <linearGradient id="linear-gradient-83" x1="0" y1="0.5" x2="1.055" y2="0.5" xlink:href="#linear-gradient-9"/>
    <linearGradient id="linear-gradient-86" x1="-176.043" y1="26.39" x2="-167.201" y2="26.39" xlink:href="#linear-gradient-6"/>
    <linearGradient id="linear-gradient-87" x1="-140.303" y1="17.986" x2="-131.454" y2="17.986" xlink:href="#linear-gradient-6"/>
    <linearGradient id="linear-gradient-88" x1="-262.127" y1="26.885" x2="-249.499" y2="26.885" xlink:href="#linear-gradient-6"/>
    <linearGradient id="linear-gradient-89" x1="-226.258" y1="14.218" x2="-213.632" y2="14.218" xlink:href="#linear-gradient-9"/>
    <linearGradient id="linear-gradient-90" x1="-130.705" y1="30.584" x2="-125.618" y2="30.584" xlink:href="#linear-gradient-9"/>
    <linearGradient id="linear-gradient-91" x1="-124.232" y1="13.812" x2="-119.145" y2="13.812" xlink:href="#linear-gradient-7"/>
    <linearGradient id="linear-gradient-92" x1="-81.842" y1="40.102" x2="-79.764" y2="40.102" xlink:href="#linear-gradient-5"/>
    <linearGradient id="linear-gradient-93" x1="-86.296" y1="17.598" x2="-84.217" y2="17.598" xlink:href="#linear-gradient-5"/>
    <linearGradient id="linear-gradient-94" x1="-59.372" y1="71.126" x2="-58.41" y2="71.126" xlink:href="#linear-gradient-7"/>
    <linearGradient id="linear-gradient-95" x1="-68.507" y1="34.716" x2="-67.544" y2="34.716" xlink:href="#linear-gradient-6"/>
    <linearGradient id="linear-gradient-96" x1="-52.548" y1="100.699" x2="-51.077" y2="100.699" xlink:href="#linear-gradient-9"/>
    <linearGradient id="linear-gradient-97" x1="-66.086" y1="62.032" x2="-64.617" y2="62.032" xlink:href="#linear-gradient-9"/>
    <linearGradient id="linear-gradient-98" x1="-55.988" y1="47.447" x2="-53.393" y2="47.447" xlink:href="#linear-gradient-5"/>
    <linearGradient id="linear-gradient-99" x1="-73.478" y1="38.689" x2="-70.887" y2="38.689" xlink:href="#linear-gradient-9"/>
    <linearGradient id="linear-gradient-100" x1="-73.758" y1="27.425" x2="-69.334" y2="27.425" xlink:href="#linear-gradient-6"/>
    <linearGradient id="linear-gradient-101" x1="-23.546" y1="8.737" x2="-22.475" y2="8.737" xlink:href="#linear-gradient-9"/>
    <linearGradient id="linear-gradient-102" x1="-182.394" y1="99.397" x2="-173.237" y2="99.397" xlink:href="#linear-gradient-6"/>
    <linearGradient id="linear-gradient-103" x1="-177.815" y1="99.397" x2="-169.927" y2="99.397" xlink:href="#linear-gradient-9"/>
    <linearGradient id="linear-gradient-104" x1="-262.129" y1="41.908" x2="-249.495" y2="41.908" xlink:href="#linear-gradient-6"/>
    <linearGradient id="linear-gradient-105" x1="-268.967" y1="41.908" x2="-257.186" y2="41.908" xlink:href="#linear-gradient-9"/>
    <linearGradient id="linear-gradient-106" x1="-19.874" y1="5.802" x2="-18.803" y2="5.802" xlink:href="#linear-gradient-9"/>
    <linearGradient id="linear-gradient-107" x1="-145.267" y1="65.387" x2="-136.11" y2="65.387" xlink:href="#linear-gradient-6"/>
    <linearGradient id="linear-gradient-108" x1="-148.576" y1="65.387" x2="-140.688" y2="65.387" xlink:href="#linear-gradient-9"/>
    <linearGradient id="linear-gradient-109" x1="-226.261" y1="22.464" x2="-213.632" y2="22.464" xlink:href="#linear-gradient-9"/>
    <linearGradient id="linear-gradient-110" x1="-218.575" y1="22.464" x2="-206.799" y2="22.464" xlink:href="#linear-gradient-9"/>
    <linearGradient id="linear-gradient-111" x1="-24.807" y1="9.429" x2="-23.64" y2="9.429" xlink:href="#linear-gradient-54"/>
    <linearGradient id="linear-gradient-112" x1="-22.688" y1="5.103" x2="-21.521" y2="5.103" xlink:href="#linear-gradient-6"/>
    <linearGradient id="linear-gradient-113" x1="-226.256" y1="37.635" x2="-213.635" y2="37.635" xlink:href="#linear-gradient-9"/>
    <linearGradient id="linear-gradient-114" x1="-228.55" y1="37.635" x2="-216.804" y2="37.635" xlink:href="#linear-gradient-6"/>
    <linearGradient id="linear-gradient-115" x1="-124.229" y1="25.952" x2="-119.145" y2="25.952" xlink:href="#linear-gradient-7"/>
    <linearGradient id="linear-gradient-116" x1="-120.353" y1="25.952" x2="-114.171" y2="25.952" xlink:href="#linear-gradient-6"/>
    <linearGradient id="linear-gradient-117" x1="-22.297" y1="9.715" x2="-21.257" y2="9.715" xlink:href="#linear-gradient-6"/>
    <linearGradient id="linear-gradient-118" x1="-22.113" y1="4.835" x2="-21.073" y2="4.835" xlink:href="#linear-gradient-68"/>
    <linearGradient id="linear-gradient-119" x1="-98.004" y1="45.247" x2="-95.644" y2="45.247" xlink:href="#linear-gradient-5"/>
    <linearGradient id="linear-gradient-120" x1="-95.923" y1="45.247" x2="-91.476" y2="45.247" xlink:href="#linear-gradient-9"/>
    <linearGradient id="linear-gradient-121" x1="-20.128" y1="10.714" x2="-18.973" y2="10.714" xlink:href="#linear-gradient-9"/>
    <linearGradient id="linear-gradient-122" x1="-21.784" y1="5.527" x2="-20.63" y2="5.527" xlink:href="#linear-gradient-9"/>
    <linearGradient id="linear-gradient-123" x1="-18.63" y1="7.88" x2="-17.309" y2="7.88" xlink:href="#linear-gradient-5"/>
    <linearGradient id="linear-gradient-124" x1="-21.574" y1="6.02" x2="-20.471" y2="6.02" xlink:href="#linear-gradient-5"/>
    <linearGradient id="linear-gradient-125" x1="-17.714" y1="9.593" x2="-16.78" y2="9.593" xlink:href="#linear-gradient-6"/>
    <linearGradient id="linear-gradient-126" x1="-22.091" y1="7.473" x2="-21.157" y2="7.473" xlink:href="#linear-gradient-7"/>
    <linearGradient id="linear-gradient-127" x1="-19.911" y1="6.857" x2="-18.802" y2="6.857" xlink:href="#linear-gradient-7"/>
    <linearGradient id="linear-gradient-128" x1="-4132.324" y1="24.462" x2="-3873.431" y2="24.462" xlink:href="#linear-gradient-6"/>
    <linearGradient id="linear-gradient-129" x1="-4002.881" y1="24.462" x2="-3779.858" y2="24.462" xlink:href="#linear-gradient-7"/>
    <linearGradient id="linear-gradient-130" x1="-119.798" y1="221.404" x2="-112.611" y2="221.404" xlink:href="#linear-gradient-6"/>
    <linearGradient id="linear-gradient-131" x1="-123.688" y1="221.404" x2="-116.986" y2="221.404" xlink:href="#linear-gradient-7"/>
    <linearGradient id="linear-gradient-132" x1="-17.513" y1="8.144" x2="-16.529" y2="8.144" xlink:href="#linear-gradient-5"/>
    <linearGradient id="linear-gradient-133" x1="-22.393" y1="7.917" x2="-21.409" y2="7.917" xlink:href="#linear-gradient-6"/>
    <linearGradient id="linear-gradient-134" x1="-157.215" y1="207.423" x2="-151.709" y2="207.423" xlink:href="#linear-gradient-9"/>
    <linearGradient id="linear-gradient-135" x1="-153.018" y1="207.423" x2="-146.322" y2="207.423" xlink:href="#linear-gradient-6"/>
    <linearGradient id="linear-gradient-136" x1="-25.1" y1="8.316" x2="-23.991" y2="8.316" xlink:href="#linear-gradient-7"/>
    <linearGradient id="linear-gradient-137" x1="-18.395" y1="8.283" x2="-17.602" y2="8.283" xlink:href="#linear-gradient-68"/>
    <linearGradient id="linear-gradient-138" x1="-18.886" y1="7.63" x2="-17.918" y2="7.63" xlink:href="#linear-gradient-7"/>
    <linearGradient id="linear-gradient-139" x1="-21.82" y1="6.779" x2="-20.534" y2="6.779" xlink:href="#linear-gradient-70"/>
    <linearGradient id="linear-gradient-140" x1="-24.245" y1="8.769" x2="-22.726" y2="8.769" xlink:href="#linear-gradient-6"/>
    <linearGradient id="linear-gradient-141" x1="-26.298" y1="5.9" x2="-24.778" y2="5.9" xlink:href="#linear-gradient-5"/>
    <linearGradient id="linear-gradient-142" x1="-54.203" y1="12.156" x2="-51.093" y2="12.156" xlink:href="#linear-gradient-70"/>
    <linearGradient id="linear-gradient-143" x1="-54.637" y1="12.156" x2="-51.479" y2="12.156" xlink:href="#linear-gradient-5"/>
    <linearGradient id="linear-gradient-144" x1="-27.071" y1="8.157" x2="-25.367" y2="8.157" xlink:href="#linear-gradient-9"/>
    <linearGradient id="linear-gradient-145" x1="-30.578" y1="6.111" x2="-28.874" y2="6.111" xlink:href="#linear-gradient-6"/>
    <linearGradient id="linear-gradient-146" x1="-209.387" y1="17.584" x2="-197.642" y2="17.584" xlink:href="#linear-gradient-5"/>
    <linearGradient id="linear-gradient-147" x1="-207.773" y1="17.584" x2="-196.202" y2="17.584" xlink:href="#linear-gradient-9"/>
    <linearGradient id="linear-gradient-148" x1="-21.428" y1="10.149" x2="-20.717" y2="10.149" xlink:href="#linear-gradient-5"/>
    <linearGradient id="linear-gradient-149" x1="-19.931" y1="11.965" x2="-18.962" y2="11.965" xlink:href="#linear-gradient-5"/>
    <linearGradient id="linear-gradient-150" x1="-29.653" y1="6.629" x2="-28.289" y2="6.629" xlink:href="#linear-gradient-6"/>
    <linearGradient id="linear-gradient-151" x1="-22.267" y1="7.499" x2="-21.286" y2="7.499" xlink:href="#linear-gradient-5"/>
    <linearGradient id="linear-gradient-152" x1="-18.556" y1="7.833" x2="-17.844" y2="7.833" xlink:href="#linear-gradient-6"/>
    <linearGradient id="linear-gradient-153" x1="-20.486" y1="12.049" x2="-19.693" y2="12.049" xlink:href="#linear-gradient-6"/>
    <linearGradient id="linear-gradient-154" x1="-21.428" y1="10.633" x2="-20.143" y2="10.633" xlink:href="#linear-gradient-7"/>
    <linearGradient id="linear-gradient-155" x1="-127.652" y1="45.578" x2="-119.905" y2="45.578" xlink:href="#linear-gradient-6"/>
    <linearGradient id="linear-gradient-156" x1="-128.6" y1="45.578" x2="-120.969" y2="45.578" xlink:href="#linear-gradient-7"/>
    <linearGradient id="linear-gradient-157" x1="-25.487" y1="7.559" x2="-24.122" y2="7.559" xlink:href="#linear-gradient-9"/>
    <linearGradient id="linear-gradient-158" x1="-26.067" y1="8.084" x2="-25.086" y2="8.084" xlink:href="#linear-gradient-9"/>
    <linearGradient id="linear-gradient-159" x1="-96.654" y1="30.238" x2="-92.231" y2="30.238" xlink:href="#linear-gradient-5"/>
    <linearGradient id="linear-gradient-160" x1="-253.327" y1="33.995" x2="-242.629" y2="33.995" xlink:href="#linear-gradient-6"/>
    <linearGradient id="linear-gradient-161" x1="-251.237" y1="33.995" x2="-239.743" y2="33.995" xlink:href="#linear-gradient-5"/>
    <linearGradient id="linear-gradient-162" x1="-153.273" y1="252.253" x2="-146.574" y2="252.253" xlink:href="#linear-gradient-7"/>
    <linearGradient id="linear-gradient-163" x1="-157.646" y1="252.253" x2="-150.461" y2="252.253" xlink:href="#linear-gradient-5"/>
    <linearGradient id="linear-gradient-164" x1="-8.268" y1="3.309" x2="-7.283" y2="3.309" xlink:href="#linear-gradient-54"/>
    <linearGradient id="linear-gradient-165" x1="-155.517" y1="18.019" x2="-147.963" y2="18.019" xlink:href="#linear-gradient-5"/>
    <linearGradient id="linear-gradient-166" x1="-168.728" y1="18.019" x2="-150.699" y2="18.019" xlink:href="#linear-gradient-54"/>
    <linearGradient id="linear-gradient-167" x1="-67.433" y1="22.133" x2="-63.385" y2="22.133" xlink:href="#linear-gradient-7"/>
    <linearGradient id="linear-gradient-168" x1="-74.259" y1="22.133" x2="-66.214" y2="22.133" xlink:href="#linear-gradient-54"/>
    <linearGradient id="linear-gradient-169" x1="0.165" y1="0.194" x2="0.751" y2="1.084" gradientUnits="objectBoundingBox">
      <stop offset="0" stop-color="#fff"/>
      <stop offset="0.208" stop-color="#fcfcfc"/>
      <stop offset="0.343" stop-color="#f3f3f3"/>
      <stop offset="0.458" stop-color="#e4e4e4"/>
      <stop offset="0.56" stop-color="#cfcfcf"/>
      <stop offset="0.655" stop-color="#b4b4b4"/>
      <stop offset="0.744" stop-color="#929292"/>
      <stop offset="0.829" stop-color="#6b6b6b"/>
      <stop offset="0.91" stop-color="#3c3c3c"/>
      <stop offset="0.986" stop-color="#0a0a0a"/>
      <stop offset="1"/>
    </linearGradient>
    <linearGradient id="linear-gradient-170" x1="0.5" x2="0.5" y2="1" gradientUnits="objectBoundingBox">
      <stop offset="0" stop-color="#90c"/>
      <stop offset="1" stop-color="#57b3ff"/>
    </linearGradient>
    <linearGradient id="linear-gradient-175" x1="1.063" y1="0.237" x2="-0.064" y2="0.763" xlink:href="#linear-gradient-170"/>
  </defs>
  <g id="Group_37635" data-name="Group 37635" transform="translate(0)">
    <g id="Group_37275" data-name="Group 37275" transform="translate(0 0)">
      <path id="Path_41274" data-name="Path 41274" d="M998.4,1478.717a3.109,3.109,0,0,1,2.007.913l.009.007h0l0,0a2.4,2.4,0,0,0,.664.445,2.543,2.543,0,0,0,.841-.152l.006,0h0a6.252,6.252,0,0,1,1.055-.226,2.427,2.427,0,0,1,1.116.134h.016l.057.024a3.139,3.139,0,0,1,1.509,1.627l0,0c.083.152.166.3.256.441a.866.866,0,0,0,.191.228.94.94,0,0,0,.3.095c.142.029.337.053.532.077a6.251,6.251,0,0,1,1.07.2,2.427,2.427,0,0,1,1.033.6l0,0,0,0a2.373,2.373,0,0,1,.594,1.028,5.885,5.885,0,0,1,.179,1.054c.019.178.039.358.067.507a.861.861,0,0,0,.087.28,2.52,2.52,0,0,0,.678.469h0l.024.013a3.285,3.285,0,0,1,1.639,1.54l.024.057v.012a2.367,2.367,0,0,1,.133,1.113,5.924,5.924,0,0,1-.237,1.039l-.005.018h0a2.269,2.269,0,0,0-.15.775h0a2.591,2.591,0,0,0,.451.693h0l.012.016a3.27,3.27,0,0,1,.919,2.048h0v.006h0a2.367,2.367,0,0,1-.306,1.148,5.845,5.845,0,0,1-.616.87c-.112.138-.223.277-.31.4a.837.837,0,0,0-.135.26h0a.941.941,0,0,0,.023.322c.032.166.08.343.129.519a6.3,6.3,0,0,1,.227,1.061,2.423,2.423,0,0,1-.134,1.115v.017l-.024.057a3.088,3.088,0,0,1-1.589,1.487h0l-.042.023c-.152.083-.3.167-.441.256a.87.87,0,0,0-.228.191.929.929,0,0,0-.095.3c-.029.142-.053.337-.078.532a6.26,6.26,0,0,1-.2,1.07,2.435,2.435,0,0,1-.6,1.031l0,0,0,0a2.372,2.372,0,0,1-1.03.6,5.892,5.892,0,0,1-1.054.179c-.179.02-.358.039-.507.067a.857.857,0,0,0-.28.087.967.967,0,0,0-.206.242c-.093.138-.185.3-.276.46a6.324,6.324,0,0,1-.592.914,2.417,2.417,0,0,1-.948.725l-.057.024h-.014a2.363,2.363,0,0,1-1.113.132,5.864,5.864,0,0,1-1.038-.237c-.171-.05-.343-.1-.493-.131a.857.857,0,0,0-.3-.024,2.661,2.661,0,0,0-.708.463,6.214,6.214,0,0,1-.894.615,2.424,2.424,0,0,1-1.154.3h-.009a2.369,2.369,0,0,1-1.149-.306,5.87,5.87,0,0,1-.87-.616h0a2.4,2.4,0,0,0-.665-.445h0a.948.948,0,0,0-.322.023c-.166.031-.343.08-.52.129a6.316,6.316,0,0,1-1.06.227,2.427,2.427,0,0,1-1.116-.134h-.017l-.057-.024a2.363,2.363,0,0,1-.941-.724,5.968,5.968,0,0,1-.569-.907c-.083-.152-.166-.3-.256-.441a.858.858,0,0,0-.191-.228.933.933,0,0,0-.3-.1c-.143-.029-.337-.053-.532-.077a6.22,6.22,0,0,1-1.07-.2,2.418,2.418,0,0,1-1.034-.6h0l0,0h0a2.372,2.372,0,0,1-.6-1.03,5.89,5.89,0,0,1-.179-1.053c-.019-.179-.039-.358-.067-.507a.853.853,0,0,0-.087-.28.96.96,0,0,0-.241-.205c-.132-.089-.284-.176-.436-.263h0l-.024-.014a3.284,3.284,0,0,1-1.639-1.541l-.024-.057v-.012a3.176,3.176,0,0,1,.1-2.149h0c.05-.171.1-.343.131-.493a.861.861,0,0,0,.024-.3,2.675,2.675,0,0,0-.463-.708h0a6.166,6.166,0,0,1-.614-.893,2.425,2.425,0,0,1-.305-1.154h0v-.006h0a2.372,2.372,0,0,1,.306-1.148,5.883,5.883,0,0,1,.616-.87c.111-.138.223-.278.31-.4a.851.851,0,0,0,.136-.261,2.521,2.521,0,0,0-.15-.835h0v-.007a6.318,6.318,0,0,1-.227-1.061,2.422,2.422,0,0,1,.134-1.115v-.017l.024-.057a3.1,3.1,0,0,1,1.6-1.494l.029-.016c.157-.086.315-.173.441-.255h0a.864.864,0,0,0,.228-.191.931.931,0,0,0,.095-.3c.029-.142.053-.337.078-.532a6.228,6.228,0,0,1,.2-1.07,2.429,2.429,0,0,1,.6-1.034h0l0,0h0a2.37,2.37,0,0,1,1.03-.6,5.957,5.957,0,0,1,1.054-.18c.178-.019.358-.038.507-.066a.858.858,0,0,0,.28-.087.953.953,0,0,0,.205-.242c.094-.138.185-.3.276-.459a6.3,6.3,0,0,1,.592-.914,2.418,2.418,0,0,1,.949-.725l.057-.024h.013a3.178,3.178,0,0,1,2.151.1c.171.05.343.1.493.131a.865.865,0,0,0,.3.024,2.684,2.684,0,0,0,.708-.463h0a3.268,3.268,0,0,1,2.047-.919h.009Zm1.634,1.4h0a2.662,2.662,0,0,0-1.635-.788h-.006a2.809,2.809,0,0,0-1.672.792h0a2.782,2.782,0,0,1-.967.58,1.411,1.411,0,0,1-.543-.027c-.174-.036-.358-.09-.541-.143a2.657,2.657,0,0,0-1.811-.1l-.056.023a1.842,1.842,0,0,0-.659.524,5.9,5.9,0,0,0-.532.827c-.1.177-.2.354-.3.5a1.467,1.467,0,0,1-.373.407,1.389,1.389,0,0,1-.508.181c-.174.032-.365.053-.554.074a5.458,5.458,0,0,0-.946.158,1.778,1.778,0,0,0-.771.443h0l0,0h0a1.825,1.825,0,0,0-.449.779,5.881,5.881,0,0,0-.174.966c-.024.192-.048.383-.087.578a1.47,1.47,0,0,1-.186.517,1.4,1.4,0,0,1-.4.364h0c-.137.09-.289.174-.441.257h0l-.042.023a2.749,2.749,0,0,0-1.333,1.156h0l-.024.058a1.821,1.821,0,0,0-.115.889,5.813,5.813,0,0,0,.206.951h0v.007a2.754,2.754,0,0,1,.163,1.12,1.39,1.39,0,0,1-.232.489c-.1.145-.219.294-.339.443a5.49,5.49,0,0,0-.556.779,1.779,1.779,0,0,0-.232.857h0v.006h0a1.831,1.831,0,0,0,.233.867,5.9,5.9,0,0,0,.559.8h0a2.773,2.773,0,0,1,.58.967,1.416,1.416,0,0,1-.026.543c-.036.173-.089.356-.143.539h0a2.654,2.654,0,0,0-.1,1.811l.021.052a2.85,2.85,0,0,0,1.329,1.181h0l.024.014c.177.1.354.2.5.3a1.467,1.467,0,0,1,.407.374,1.386,1.386,0,0,1,.181.508c.033.175.054.365.074.555a5.449,5.449,0,0,0,.158.946,1.772,1.772,0,0,0,.443.77h0l0,0h0a1.834,1.834,0,0,0,.779.449,5.919,5.919,0,0,0,.967.174c.191.024.383.048.578.087a1.476,1.476,0,0,1,.517.186,1.4,1.4,0,0,1,.364.4c.091.139.186.312.28.484a5.483,5.483,0,0,0,.509.816,1.777,1.777,0,0,0,.646.517h0l.059.024a1.82,1.82,0,0,0,.888.115,5.825,5.825,0,0,0,.958-.208c.2-.054.392-.108.565-.141a1.5,1.5,0,0,1,.557-.023h0a2.558,2.558,0,0,1,.93.57h0a5.43,5.43,0,0,0,.779.557,1.772,1.772,0,0,0,.857.231h.006a1.831,1.831,0,0,0,.867-.233,5.89,5.89,0,0,0,.8-.559,2.779,2.779,0,0,1,.968-.581,1.411,1.411,0,0,1,.543.027c.174.036.358.09.541.143a5.387,5.387,0,0,0,.931.215,1.773,1.773,0,0,0,.881-.113l.044-.018a1.839,1.839,0,0,0,.67-.529,5.884,5.884,0,0,0,.532-.828c.1-.177.2-.354.3-.5a1.48,1.48,0,0,1,.373-.407,1.393,1.393,0,0,1,.508-.18c.174-.033.365-.053.555-.074a5.483,5.483,0,0,0,.946-.158,1.773,1.773,0,0,0,.769-.441l0,0,0,0a1.826,1.826,0,0,0,.449-.779,5.872,5.872,0,0,0,.174-.966c.024-.191.048-.383.087-.577a1.463,1.463,0,0,1,.186-.517,1.389,1.389,0,0,1,.4-.364c.134-.088.3-.179.463-.269l.021-.011a2.747,2.747,0,0,0,1.333-1.156h0l.024-.059a1.825,1.825,0,0,0,.115-.889,5.89,5.89,0,0,0-.208-.958c-.054-.2-.108-.392-.141-.565a1.5,1.5,0,0,1-.023-.557h0a1.4,1.4,0,0,1,.232-.488c.1-.144.219-.294.339-.443a5.44,5.44,0,0,0,.556-.779,1.778,1.778,0,0,0,.231-.857h0v-.006h0a2.808,2.808,0,0,0-.792-1.672h0a2.778,2.778,0,0,1-.58-.966h0a2.558,2.558,0,0,1,.169-1.084l0-.012a5.347,5.347,0,0,0,.212-.919,1.773,1.773,0,0,0-.113-.881l-.022-.054a2.894,2.894,0,0,0-1.353-1.193h0a2.769,2.769,0,0,1-.907-.673,1.387,1.387,0,0,1-.181-.508c-.033-.174-.054-.365-.074-.554a5.444,5.444,0,0,0-.158-.946,1.771,1.771,0,0,0-.443-.771l0,0,0,0a1.826,1.826,0,0,0-.777-.447,5.889,5.889,0,0,0-.966-.174c-.191-.024-.383-.048-.578-.087a1.473,1.473,0,0,1-.517-.186,1.393,1.393,0,0,1-.364-.4c-.091-.138-.185-.31-.278-.481l0,0a2.75,2.75,0,0,0-1.154-1.333h0l-.059-.024a1.824,1.824,0,0,0-.889-.115,5.85,5.85,0,0,0-.958.208l-.006,0h0a2.74,2.74,0,0,1-1.113.162,2.494,2.494,0,0,1-.914-.556h0l-.013-.01h0l0,0Zm-.992,1.235h0c-.154-.124-.307-.247-.434-.331a.66.66,0,0,0-.213-.11.746.746,0,0,0-.234.118c-.137.088-.3.217-.468.345h0a3.867,3.867,0,0,1-1.637.884,2.7,2.7,0,0,1-.969.005,6.911,6.911,0,0,1-.848-.209h0l-.011,0a2.659,2.659,0,0,0-.754-.163l-.013.005a.659.659,0,0,0-.175.2c-.094.135-.2.315-.3.5a7.49,7.49,0,0,1-.475.761,2.794,2.794,0,0,1-.7.68,2.726,2.726,0,0,1-.9.381h0a6.963,6.963,0,0,1-.875.133c-.194.021-.389.042-.539.073a.633.633,0,0,0-.226.073.722.722,0,0,0-.082.247c-.036.163-.061.367-.087.572a7.327,7.327,0,0,1-.148.885,2.81,2.81,0,0,1-.386.9,2.706,2.706,0,0,1-.684.694,7.035,7.035,0,0,1-.759.458c-.167.091-.334.183-.468.274a.583.583,0,0,0-.182.16l-.005.012a.924.924,0,0,0,.022.251c.03.165.084.363.138.56h0a3.885,3.885,0,0,1,.195,1.839,3.637,3.637,0,0,1-.874,1.6h0l-.019.024c-.122.151-.243.3-.331.435h0a.652.652,0,0,0-.109.212.735.735,0,0,0,.118.234c.088.137.217.3.345.467h0a3.868,3.868,0,0,1,.883,1.636,3.645,3.645,0,0,1-.2,1.8l0,.008-.006.017a2.678,2.678,0,0,0-.162.753l.005.012a.653.653,0,0,0,.2.175c.134.094.315.2.5.3a7.573,7.573,0,0,1,.761.475,2.787,2.787,0,0,1,.68.7,2.725,2.725,0,0,1,.382.9h0a6.965,6.965,0,0,1,.133.875c.021.194.042.388.073.539a.652.652,0,0,0,.073.226.74.74,0,0,0,.247.082c.163.035.368.061.572.087a7.35,7.35,0,0,1,.885.148,2.811,2.811,0,0,1,.9.386,2.715,2.715,0,0,1,.694.684,7.032,7.032,0,0,1,.458.759,2.123,2.123,0,0,0,.433.65l.016.007a2.971,2.971,0,0,0,.808-.161,7.66,7.66,0,0,1,.873-.2,2.777,2.777,0,0,1,.967.009,2.719,2.719,0,0,1,.906.367,7.026,7.026,0,0,1,.713.526c.154.124.307.247.434.331a.672.672,0,0,0,.213.11,2.624,2.624,0,0,0,.7-.463h0a7.349,7.349,0,0,1,.73-.521,2.812,2.812,0,0,1,.907-.364,2.7,2.7,0,0,1,.969-.005,7.007,7.007,0,0,1,.859.212c.184.054.367.108.528.138a.835.835,0,0,0,.229.024l.01,0a.651.651,0,0,0,.175-.2c.094-.134.2-.315.3-.5h0a3.868,3.868,0,0,1,1.169-1.439,2.736,2.736,0,0,1,.9-.382,6.887,6.887,0,0,1,.875-.134c.194-.021.389-.042.54-.073a.644.644,0,0,0,.226-.073.72.72,0,0,0,.082-.247c.036-.163.061-.367.087-.572a7.284,7.284,0,0,1,.148-.885,2.8,2.8,0,0,1,.386-.9,2.7,2.7,0,0,1,.684-.695,6.966,6.966,0,0,1,.759-.458c.167-.092.334-.183.468-.274a.588.588,0,0,0,.182-.159l.006-.015a2.927,2.927,0,0,0-.161-.808l-.006-.021h0a7.555,7.555,0,0,1-.2-.853,2.77,2.77,0,0,1,.009-.967,2.716,2.716,0,0,1,.367-.907,6.957,6.957,0,0,1,.526-.713h0a2.342,2.342,0,0,0,.44-.646,2.6,2.6,0,0,0-.463-.7h0a3.871,3.871,0,0,1-.884-1.637,3.691,3.691,0,0,1,.207-1.827h0a2.677,2.677,0,0,0,.163-.754l-.005-.013a.657.657,0,0,0-.2-.174h0c-.134-.094-.315-.2-.5-.3a7.4,7.4,0,0,1-.761-.475,2.782,2.782,0,0,1-.68-.7,2.72,2.72,0,0,1-.382-.9,6.883,6.883,0,0,1-.134-.875c-.021-.195-.042-.389-.073-.54a.647.647,0,0,0-.073-.226.73.73,0,0,0-.247-.082c-.163-.035-.367-.061-.572-.086a7.4,7.4,0,0,1-.885-.148,2.817,2.817,0,0,1-.9-.386,2.714,2.714,0,0,1-.695-.684,7.074,7.074,0,0,1-.457-.759,2.13,2.13,0,0,0-.434-.65l-.013-.006a.934.934,0,0,0-.25.022c-.165.03-.361.083-.557.137h0a3.877,3.877,0,0,1-1.839.195,2.714,2.714,0,0,1-.907-.367,7.034,7.034,0,0,1-.713-.526Zm-.1-.842h0a1.066,1.066,0,0,0-.545-.211h-.008a1.128,1.128,0,0,0-.56.214c-.17.109-.341.243-.513.376h0a3.4,3.4,0,0,1-1.378.766,2.106,2.106,0,0,1-.755,0,6.576,6.576,0,0,1-.784-.2l-.011,0h0a2.052,2.052,0,0,0-1.155-.137l-.3.116.034.077a1.837,1.837,0,0,0-.182.225c-.115.164-.223.354-.33.543a6.983,6.983,0,0,1-.434.7,2.211,2.211,0,0,1-.544.536,2.129,2.129,0,0,1-.7.295h0a6.438,6.438,0,0,1-.8.12c-.206.022-.411.045-.6.083a1.062,1.062,0,0,0-.534.237l-.006.006a1.122,1.122,0,0,0-.245.548c-.042.192-.069.41-.1.627a6.942,6.942,0,0,1-.134.81,2.222,2.222,0,0,1-.3.707,2.126,2.126,0,0,1-.535.538,6.386,6.386,0,0,1-.692.417c-.185.1-.37.2-.521.305a1.662,1.662,0,0,0-.221.177l-.078-.032-.111.295a1.164,1.164,0,0,0-.013.6c.035.192.093.4.15.612h0a3.414,3.414,0,0,1,.183,1.561,3.216,3.216,0,0,1-.768,1.354l-.011.013,0,0-.006.007c-.125.155-.248.31-.345.457h0a1.067,1.067,0,0,0-.211.545v.007a1.127,1.127,0,0,0,.214.562c.109.17.243.342.376.513h0a3.4,3.4,0,0,1,.766,1.377,3.214,3.214,0,0,1-.193,1.54h0a2.077,2.077,0,0,0-.14,1.165l.111.29.075-.03a1.793,1.793,0,0,0,.231.188c.164.115.354.222.544.33a7,7,0,0,1,.7.434,2.193,2.193,0,0,1,.536.544,2.129,2.129,0,0,1,.3.7h0a6.4,6.4,0,0,1,.12.8c.022.205.045.411.083.6a1.064,1.064,0,0,0,.237.534l.006.006a1.123,1.123,0,0,0,.548.245c.192.042.41.069.627.1a6.862,6.862,0,0,1,.81.134,2.219,2.219,0,0,1,.707.3,2.129,2.129,0,0,1,.538.535,6.455,6.455,0,0,1,.417.692,3.578,3.578,0,0,0,.48.738l-.034.081.3.112a2.277,2.277,0,0,0,1.21-.138,7.035,7.035,0,0,1,.8-.187,2.183,2.183,0,0,1,.758,0,2.129,2.129,0,0,1,.7.288,6.423,6.423,0,0,1,.651.481c.16.129.32.257.482.364a1.069,1.069,0,0,0,.544.211h.01a2.238,2.238,0,0,0,1.073-.59h0a7.047,7.047,0,0,1,.668-.48,2.2,2.2,0,0,1,.71-.287,2.106,2.106,0,0,1,.755,0,6.57,6.57,0,0,1,.785.2c.2.059.405.118.583.153a1.079,1.079,0,0,0,.582-.013l.3-.115-.034-.077a1.807,1.807,0,0,0,.182-.225c.114-.164.222-.353.33-.542h0a3.408,3.408,0,0,1,.977-1.234,2.126,2.126,0,0,1,.7-.3,6.564,6.564,0,0,1,.8-.119c.206-.022.411-.044.6-.083a1.063,1.063,0,0,0,.534-.236l.006-.006a1.126,1.126,0,0,0,.246-.548c.042-.192.069-.41.1-.627a6.9,6.9,0,0,1,.134-.81,2.214,2.214,0,0,1,.3-.707,2.125,2.125,0,0,1,.535-.539,6.348,6.348,0,0,1,.692-.417c.185-.1.37-.2.521-.305a1.671,1.671,0,0,0,.222-.178l.078.031.109-.292a2.227,2.227,0,0,0-.132-1.191h0l-.006-.021a7,7,0,0,1-.187-.8,2.176,2.176,0,0,1,0-.758,2.117,2.117,0,0,1,.287-.7,6.429,6.429,0,0,1,.481-.651h0a2.052,2.052,0,0,0,.575-1.027v-.007a2.234,2.234,0,0,0-.59-1.075l-.012-.016h0a3.365,3.365,0,0,1-.754-1.363,3.217,3.217,0,0,1,.192-1.539h0a2.077,2.077,0,0,0,.14-1.166l-.11-.285-.073.028a1.817,1.817,0,0,0-.235-.192h0c-.164-.114-.354-.222-.543-.33a6.939,6.939,0,0,1-.7-.434,2.2,2.2,0,0,1-.536-.544,2.125,2.125,0,0,1-.3-.7,6.472,6.472,0,0,1-.119-.8c-.022-.205-.045-.411-.083-.6a1.063,1.063,0,0,0-.237-.534l-.006-.006a1.122,1.122,0,0,0-.548-.246c-.192-.042-.41-.069-.627-.1a6.923,6.923,0,0,1-.81-.133,2.215,2.215,0,0,1-.707-.3,2.115,2.115,0,0,1-.538-.535,6.446,6.446,0,0,1-.417-.692,3.6,3.6,0,0,0-.481-.738l.034-.08-.3-.112a1.165,1.165,0,0,0-.6-.013c-.192.035-.4.093-.613.15h0a3.4,3.4,0,0,1-1.557.182,2.1,2.1,0,0,1-.7-.288,6.4,6.4,0,0,1-.651-.48C999.265,1480.745,999.105,1480.616,998.944,1480.51Z" transform="translate(-982.128 -1477.54)" fillRule="evenodd" fill="url(#radial-gradient)"/>
      <path id="Path_41275" data-name="Path 41275" d="M1002.254,1482.879a2.891,2.891,0,0,1,1.828.855,2.416,2.416,0,0,0,.8.508,2.612,2.612,0,0,0,.982-.158,3.037,3.037,0,0,1,2.042-.081h.009a2.906,2.906,0,0,1,1.36,1.494,2.419,2.419,0,0,0,.545.777,2.676,2.676,0,0,0,.961.223,3.042,3.042,0,0,1,1.924.711l0,0a2.893,2.893,0,0,1,.688,1.9,2.438,2.438,0,0,0,.2.925,2.646,2.646,0,0,0,.8.578,3.044,3.044,0,0,1,1.507,1.391v.006a2.887,2.887,0,0,1-.091,2.011,2.4,2.4,0,0,0-.162.94,2.656,2.656,0,0,0,.522.838,3.034,3.034,0,0,1,.856,1.86v.006a2.889,2.889,0,0,1-.855,1.828,2.418,2.418,0,0,0-.508.8,2.606,2.606,0,0,0,.158.982,3.037,3.037,0,0,1,.081,2.042v.009a2.9,2.9,0,0,1-1.494,1.36,2.419,2.419,0,0,0-.776.545,2.674,2.674,0,0,0-.223.961,3.042,3.042,0,0,1-.711,1.924l0,0a2.9,2.9,0,0,1-1.9.688,2.443,2.443,0,0,0-.925.2,2.656,2.656,0,0,0-.578.8,3.047,3.047,0,0,1-1.392,1.507h-.006a2.887,2.887,0,0,1-2.012-.091,2.4,2.4,0,0,0-.939-.162,2.657,2.657,0,0,0-.838.522,3.036,3.036,0,0,1-1.86.856h-.006a2.891,2.891,0,0,1-1.828-.855,2.406,2.406,0,0,0-.8-.508,2.611,2.611,0,0,0-.982.158,3.035,3.035,0,0,1-2.042.081h-.009a2.9,2.9,0,0,1-1.36-1.494,2.416,2.416,0,0,0-.545-.777,2.669,2.669,0,0,0-.961-.223,3.043,3.043,0,0,1-1.924-.711l0,0a2.9,2.9,0,0,1-.688-1.9,2.438,2.438,0,0,0-.2-.925,2.651,2.651,0,0,0-.8-.578,3.045,3.045,0,0,1-1.507-1.392v-.006a2.886,2.886,0,0,1,.091-2.012,2.4,2.4,0,0,0,.162-.94,2.657,2.657,0,0,0-.522-.838,3.034,3.034,0,0,1-.856-1.86v-.006a2.89,2.89,0,0,1,.855-1.828,2.42,2.42,0,0,0,.508-.8,2.61,2.61,0,0,0-.158-.982,3.035,3.035,0,0,1-.081-2.042V1492a2.908,2.908,0,0,1,1.494-1.36,2.413,2.413,0,0,0,.776-.545,2.672,2.672,0,0,0,.223-.961,3.041,3.041,0,0,1,.711-1.925l0,0a2.9,2.9,0,0,1,1.9-.688,2.439,2.439,0,0,0,.925-.2,2.653,2.653,0,0,0,.578-.8,3.046,3.046,0,0,1,1.392-1.507h.006a2.887,2.887,0,0,1,2.012.091,2.4,2.4,0,0,0,.939.162,2.659,2.659,0,0,0,.838-.522,3.03,3.03,0,0,1,1.86-.856Zm.835,2.089h0a1.971,1.971,0,0,0-.839-.508,2.184,2.184,0,0,0-.89.527,3.633,3.633,0,0,1-1.508.826,3.459,3.459,0,0,1-1.684-.2,1.992,1.992,0,0,0-.971-.149v0c-.2.084-.412.454-.623.825a3.642,3.642,0,0,1-1.074,1.338,3.447,3.447,0,0,1-1.638.465,1.959,1.959,0,0,0-.95.234,2.156,2.156,0,0,0-.256,1,3.632,3.632,0,0,1-.483,1.65,3.456,3.456,0,0,1-1.335,1.054c-.352.193-.7.385-.787.584h0a2.2,2.2,0,0,0,.146,1.022,3.647,3.647,0,0,1,.189,1.7,3.452,3.452,0,0,1-.831,1.487,1.974,1.974,0,0,0-.507.839,2.179,2.179,0,0,0,.527.889,3.637,3.637,0,0,1,.826,1.508,3.451,3.451,0,0,1-.2,1.684,2,2,0,0,0-.149.971h0c.084.2.454.412.824.623a3.637,3.637,0,0,1,1.338,1.074,3.452,3.452,0,0,1,.465,1.638,1.959,1.959,0,0,0,.234.949,2.165,2.165,0,0,0,1,.257,3.631,3.631,0,0,1,1.65.483,3.453,3.453,0,0,1,1.054,1.334c.193.353.385.7.585.787v0a2.206,2.206,0,0,0,1.023-.146,3.64,3.64,0,0,1,1.7-.189,3.448,3.448,0,0,1,1.487.83,1.971,1.971,0,0,0,.838.508,2.18,2.18,0,0,0,.89-.527,3.636,3.636,0,0,1,1.508-.826,3.457,3.457,0,0,1,1.684.2,1.991,1.991,0,0,0,.971.149v0c.2-.084.412-.454.623-.824A3.637,3.637,0,0,1,1009,1507.7a3.449,3.449,0,0,1,1.638-.465,1.958,1.958,0,0,0,.95-.234,2.156,2.156,0,0,0,.257-1,3.637,3.637,0,0,1,.483-1.65,3.454,3.454,0,0,1,1.335-1.054c.352-.193.7-.384.787-.585h0a2.2,2.2,0,0,0-.146-1.023,3.646,3.646,0,0,1-.189-1.7,3.453,3.453,0,0,1,.831-1.487,1.97,1.97,0,0,0,.507-.838,2.179,2.179,0,0,0-.527-.89,3.638,3.638,0,0,1-.826-1.508,3.453,3.453,0,0,1,.2-1.684,2,2,0,0,0,.149-.971h0c-.084-.2-.454-.412-.824-.622a3.639,3.639,0,0,1-1.338-1.074,3.451,3.451,0,0,1-.465-1.638,1.955,1.955,0,0,0-.234-.95,2.159,2.159,0,0,0-1-.257,3.63,3.63,0,0,1-1.65-.483,3.45,3.45,0,0,1-1.054-1.334c-.193-.352-.385-.7-.585-.787v0a2.2,2.2,0,0,0-1.023.146,3.646,3.646,0,0,1-1.7.189A3.451,3.451,0,0,1,1003.089,1484.969Z" transform="translate(-985.983 -1481.396)" fillRule="evenodd" fill="url(#linear-gradient)"/>
      <path id="Path_41276" data-name="Path 41276" d="M1012.176,1493.594c.913,0,1.585,1.174,2.477,1.351s2.035-.63,2.878-.286,1.015,1.69,1.772,2.2,2.122.2,2.768.838.291,1.95.8,2.707,1.885.994,2.237,1.833-.478,1.913-.3,2.806,1.361,1.639,1.365,2.549-1.173,1.585-1.351,2.477.63,2.036.285,2.878-1.69,1.015-2.2,1.772-.2,2.122-.838,2.768-1.95.291-2.707.8-.993,1.885-1.833,2.237-1.913-.478-2.806-.3-1.639,1.361-2.549,1.365-1.585-1.174-2.477-1.351-2.036.63-2.878.286-1.015-1.691-1.772-2.2-2.122-.2-2.768-.837-.291-1.95-.8-2.707-1.885-.994-2.237-1.833.478-1.913.3-2.806-1.361-1.64-1.365-2.55,1.174-1.584,1.351-2.477-.63-2.035-.286-2.878,1.69-1.015,2.2-1.772.2-2.122.838-2.768,1.95-.291,2.707-.8.994-1.885,1.833-2.237,1.913.477,2.806.3S1011.266,1493.6,1012.176,1493.594Z" transform="translate(-995.909 -1491.32)" fillRule="evenodd" fill="url(#linear-gradient-2)"/>
      <ellipse id="Ellipse_268" data-name="Ellipse 268" cx="11.86" cy="11.86" rx="11.86" ry="11.86" transform="translate(4.272 4.544) rotate(-0.657)" fill="url(#linear-gradient)"/>
      <path id="Path_41277" data-name="Path 41277" d="M1045.467,1529.537a11.341,11.341,0,1,1-8.02,3.322,11.307,11.307,0,0,1,8.02-3.322Zm7.889,3.452h0a11.157,11.157,0,1,0,3.268,7.89A11.123,11.123,0,0,0,1053.356,1532.989Z" transform="translate(-1029.199 -1524.61)" fill="#404040" fillRule="evenodd"/>
      <circle id="Ellipse_269" data-name="Ellipse 269" cx="11.503" cy="11.503" r="11.503" transform="translate(0 16.268) rotate(-45)" fill="url(#radial-gradient-2)"/>
      <path id="Path_41278" data-name="Path 41278" d="M1077.379,1565.012a4.918,4.918,0,0,0-1.627,2.993,4.131,4.131,0,0,0-1.729,3.449,6.792,6.792,0,0,1-.535-2,7.087,7.087,0,0,1,.623-3.758,4.7,4.7,0,0,1,3.268-.684Zm.635-.4h0a4.571,4.571,0,0,1,2.9-1.443,12.054,12.054,0,0,0-1.917,1.814,1.439,1.439,0,0,0-.986-.371Zm-1.731,3.384h0a3,3,0,0,1,1.422-.453,3.953,3.953,0,0,1,1.119-2.239,1.5,1.5,0,0,0-1.083-.263c-.44.1-2.1,2.792-1.458,2.955Zm3.578-6.546h0a7.543,7.543,0,0,0-5.395,3.656c.7-.172,1.53-1.148,3.207-.55.071-.042,0-.023.084-.047.758-1.171,2.271-1.35,2.816-1.628.663-.193.146-1.145.2-1.353C1081.023,1561.3,1079.92,1561.4,1079.862,1561.455Z" transform="translate(-1065.618 -1554.108)" fill="#fff" fillRule="evenodd"/>
      <path id="Path_41279" data-name="Path 41279" d="M1182.574,1692.485a4.916,4.916,0,0,0,2.134-2.656,4.129,4.129,0,0,0,2.316-3.086,6.761,6.761,0,0,1,.17,2.064,7.09,7.09,0,0,1-1.282,3.586,4.7,4.7,0,0,1-3.338.091Zm-.7.276h0a4.576,4.576,0,0,1-3.114.9,12.1,12.1,0,0,0,2.209-1.443,1.436,1.436,0,0,0,.9.54Zm2.306-3.022h0a2.993,2.993,0,0,1-1.479.193,3.956,3.956,0,0,1-1.5,2,1.5,1.5,0,0,0,1.02.452c.45-.02,2.568-2.372,1.96-2.648Zm-4.687,5.8h0a7.54,7.54,0,0,0,5.96-2.635c-.721.045-1.709.857-3.253-.03-.078.029,0,.022-.092.031-.954,1.017-2.475.923-3.061,1.1-.686.072-.348,1.1-.441,1.295C1178.327,1695.491,1179.43,1695.585,1179.5,1695.542Z" transform="translate(-1162.979 -1670.216)" fill="#fff" fillRule="evenodd"/>
      <path id="Path_41280" data-name="Path 41280" d="M1061.311,1557.874a.075.075,0,0,0-.1-.114l-.051.044-.052.043-.052.043-.052.042-.021.017a.075.075,0,0,0,.095.116l.021-.017.053-.043.052-.044.053-.044.052-.045Zm.05-.242h0l.005,0,.05-.045.05-.045.05-.045.049-.046.014-.014a.075.075,0,0,1,.1.109l-.015.014-.05.046-.05.046-.051.046-.051.046-.006.005a.075.075,0,0,1-.1-.112Zm.537-.512h0a.075.075,0,0,0,.107.1h0l.047-.048.047-.049.047-.049.046-.049.02-.022a.075.075,0,0,0-.11-.1l-.02.021-.045.049-.046.048-.046.048-.046.048Zm.5-.549h0a.075.075,0,0,0,.115.1l.034-.041.043-.051.042-.052.042-.052.031-.038a.075.075,0,0,0-.117-.093l-.03.037-.041.051-.042.051-.042.05-.034.041Zm.46-.583h0a.075.075,0,1,0,.121.088l.017-.023.038-.053.039-.053.037-.054.038-.054.005-.009a.075.075,0,0,0-.124-.084l-.005.007-.037.053-.037.053-.038.053-.038.053-.017.023Zm.417-.614h0a.075.075,0,0,0,.127.079l.033-.053.034-.056.034-.056.033-.056.022-.037a.075.075,0,0,0-.129-.075l-.022.036-.033.055-.033.055-.034.055-.033.053Zm.372-.643h0a.075.075,0,0,0,.132.07l.012-.022.03-.058.03-.058.029-.058.029-.058.008-.015a.075.075,0,0,0-.134-.066l-.007.015-.029.057-.029.057-.029.056-.03.057-.012.022Zm.325-.668h0a.075.075,0,0,0,.137.06l.019-.043.026-.059.026-.059.025-.06.023-.055a.075.075,0,0,0-.138-.057l-.023.055-.025.059-.025.059-.026.058-.019.043Zm.277-.689h0a.075.075,0,0,0,.141.051v0l.021-.06.022-.061.021-.061.021-.061.013-.041a.075.075,0,0,0-.142-.046l-.013.04-.02.06-.021.06-.021.06-.021.059v0Zm.227-.707h0a.075.075,0,0,0,.144.041l.005-.017.017-.062.017-.062.016-.062.016-.062.007-.027a.075.075,0,0,0-.145-.036l-.007.026-.016.061-.016.06-.016.061-.017.061-.005.017Zm.177-.721h0a.075.075,0,0,0,.146.03l.006-.03.013-.062.012-.063.012-.062.012-.063,0-.015a.075.075,0,0,0-.147-.03v0l0,.014-.011.062-.012.062-.012.062-.012.062-.007.031Zm.126-.732h0a.075.075,0,0,0,.149.02l.006-.043.008-.063.008-.063.007-.063.007-.063v0a.075.075,0,0,0-.146-.031l0,.016v0l-.007.063-.007.063-.008.063-.008.062-.006.043Zm.074-.739h0a.075.075,0,0,0,.149.009l0-.055,0-.064,0-.063,0-.064,0-.055a.075.075,0,0,0-.149-.005l0,.054,0,.063,0,.063,0,.063,0,.055Zm.021-.743h0a.075.075,0,0,0,.15,0v-.195l0-.064,0-.043a.075.075,0,0,0-.149.006v.042l0,.063v.192Zm-.031-.742h0a.075.075,0,0,0,.149-.012v-.016l-.005-.064-.006-.063-.006-.063-.006-.064,0-.029a.076.076,0,0,0-.076-.067.075.075,0,0,0-.073.083l0,.028.006.063.006.063.005.063.005.063v.016Zm-.083-.738h0a.075.075,0,0,0,.148-.022l0-.03-.01-.063-.01-.063-.011-.063-.011-.063,0-.014a.075.075,0,0,0-.147.027l0,.013.011.062.011.063.01.062.009.062,0,.03Zm-.135-.73h0a.075.075,0,0,0,.146-.033l-.01-.047-.014-.063-.015-.062-.015-.063-.015-.059a.075.075,0,0,0-.145.037l.014.058.015.062.015.062.014.062.01.046Zm-.187-.719h0a.075.075,0,0,0,.144-.042v0l-.019-.062-.019-.062-.019-.062-.02-.062-.012-.037a.075.075,0,0,0-.142.047l.012.036.019.061.019.061.019.061.019.061v0Zm-.238-.7h0a.075.075,0,0,0,.14-.053l-.01-.026-.024-.06-.024-.061-.024-.061-.024-.06,0-.012a.075.075,0,0,0-.138.058l0,.011.024.06.024.06.024.06.023.06.01.026Zm-.286-.685h0a.075.075,0,0,0,.135-.064l-.025-.052-.028-.059-.028-.06-.029-.059-.02-.041a.075.075,0,0,0-.134.067l.02.04.028.059.028.058.028.059.025.052Zm-.335-.663h0a.075.075,0,0,0,.13-.073l-.014-.026-.032-.058-.033-.058-.033-.058-.034-.057,0-.005a.075.075,0,0,0-.129.076l0,0,.033.057.033.056.032.057.032.057.015.026Zm-.382-.638h0a.075.075,0,0,0,.125-.082l0-.007-.037-.056-.037-.056-.038-.056-.038-.055-.014-.02a.075.075,0,0,0-.123.085l.013.019.037.055.037.055.037.056.036.055,0,.007Zm-.425-.608h0a.075.075,0,0,0,.119-.091l-.039-.052-.042-.054-.042-.053-.042-.054-.02-.025a.075.075,0,0,0-.117.094l.02.024.041.053.041.053.041.053.039.052Zm-.467-.577h0a.075.075,0,0,0,.113-.1l-.042-.048-.045-.051-.046-.051-.046-.051-.022-.023a.075.075,0,0,0-.11.1l.021.023.045.05.045.05.045.051.042.048Zm-.506-.544h0a.075.075,0,0,0,.105-.107l-.042-.042-.048-.047-.048-.047-.049-.046-.029-.028a.075.075,0,0,0-.1.109l.028.027.048.046.047.046.047.047.042.042Zm-.543-.506h0a.075.075,0,0,0,.1-.114l-.034-.029-.051-.043-.051-.043-.051-.042-.044-.036a.075.075,0,0,0-.094.116l.043.035.051.042.05.042.05.043.034.029Zm-.578-.467h0a.075.075,0,0,0,.09-.12l-.017-.013-.053-.039-.054-.039-.053-.039-.054-.038-.013-.009a.075.075,0,0,0-.086.123l.012.009.053.038.053.038.052.038.052.039.017.013Zm-.609-.424h0a.075.075,0,0,0,.08-.126l-.047-.031-.055-.035-.056-.034-.056-.034-.042-.025a.075.075,0,0,0-.077.128l.041.024.055.034.055.034.054.034.047.03Zm-.638-.38h0a.075.075,0,0,0,.072-.131l-.018-.01-.057-.031-.057-.031-.057-.03-.058-.03-.02-.01a.075.075,0,1,0-.067.134l.019.01.057.029.057.03.056.03.056.03.017.01Zm-.664-.333h0a.075.075,0,0,0,.062-.136l-.039-.018-.059-.026-.059-.026-.059-.025-.059-.026a.075.075,0,0,0-.059.138l.058.025.059.025.058.026.058.026.039.018Zm-.686-.285h0a.075.075,0,0,0,.052-.141l-.058-.021-.06-.022-.06-.021-.061-.021-.044-.015a.075.075,0,0,0-.048.142l.043.015.06.021.06.021.06.022.058.022Zm-.7-.236h0a.075.075,0,0,0,.042-.144l-.014,0-.062-.018-.062-.017-.061-.017-.062-.016-.03-.009a.075.075,0,0,0-.038.145l.029.008.061.017.061.017.061.017.061.018.014,0Zm-.719-.186h0a.075.075,0,0,0,.032-.146l-.028-.006-.062-.013-.062-.013-.062-.013-.063-.012-.018,0a.075.075,0,0,0-.027.147l.016,0,.062.012.062.012.062.013.061.013.028.006Zm-.731-.134h0a.075.075,0,0,0,.025-.148h0l-.04-.006-.063-.009-.063-.009-.063-.008-.063-.008h-.006a.075.075,0,0,0-.027.147l.01,0h0l.062.008.062.008.062.009.062.009.04.006Zm-.738-.083h0a.075.075,0,0,0,.011-.149h0l-.052,0-.064,0-.064,0-.063,0-.057,0a.075.075,0,0,0-.007.149l.056,0,.063,0,.063,0,.063,0,.052,0Zm-.742-.03h0a.075.075,0,0,0,0-.149h-.3a.075.075,0,0,0,0,.15h.3Zm-.742.022h0a.075.075,0,0,0-.01-.149h-.013l-.064,0-.064,0-.064.005-.063.006-.032,0a.075.075,0,0,0,0,.149h.009l.032,0,.063-.006.063,0,.063,0,.063,0Zm-.739.074h0a.075.075,0,0,0-.021-.148l-.027,0-.063.009-.063.01-.064.009-.063.01-.017,0a.075.075,0,0,0,.025.147l.016,0,.062-.01.063-.01.062-.009.063-.009.027,0Zm-.732.126h0a.075.075,0,0,0-.031-.146l-.043.009-.062.014-.063.014-.062.014-.063.015a.075.075,0,0,0,.035.146l.062-.015.062-.014.062-.014.062-.014.043-.009Zm-.721.178h0a.075.075,0,0,0-.042-.144l-.06.018-.062.018-.062.019-.062.019-.042.013a.075.075,0,0,0,.045.143l.041-.013.061-.019.061-.019.061-.018.061-.018Zm-.707.229h0a.075.075,0,0,0-.052-.14l-.021.008-.061.022-.061.023-.06.023-.061.024-.017.007a.075.075,0,0,0,.056.139l.016-.007.06-.023.06-.023.06-.022.06-.022.022-.008Zm-.688.279h0a.075.075,0,0,0-.062-.136l-.047.021-.06.028-.06.028-.059.028-.047.023a.075.075,0,0,0,.065.135l.047-.022.059-.028.058-.027.059-.027.047-.021Zm-.667.327h0a.075.075,0,0,0-.071-.132l-.02.011-.058.031-.058.032-.058.032-.058.033-.013.007a.075.075,0,0,0,.075.129l.012-.007.057-.032.057-.032.057-.031.057-.031.02-.01Zm-.642.374h0a.075.075,0,0,0-.08-.126l-.056.036-.056.036-.056.037-.056.037-.028.019a.075.075,0,0,0,.084.124l.027-.018.055-.036.055-.036.056-.036.055-.035Zm-.613.418h0a.075.075,0,0,0-.089-.12l-.043.032-.054.04-.054.041-.054.041-.035.027a.075.075,0,0,0,.092.118l.034-.026.053-.041.054-.041.053-.04.043-.032Zm-.583.461h0a.075.075,0,0,0-.1-.113l-.039.033-.052.045-.052.045-.051.046-.033.029a.075.075,0,0,0,.1.111l.032-.029.051-.045.051-.044.052-.044.039-.033Zm-.549.5h0a.075.075,0,0,0-.1-.106l-.035.034-.048.048-.048.047-.047.048-.035.036a.075.075,0,0,0,.108.1l.034-.035.047-.047.047-.047.048-.047.035-.035Zm-.513.537h0a.075.075,0,0,0-.113-.1l-.024.027-.044.051-.044.051-.043.051-.042.05a.075.075,0,0,0,.115.1l.041-.049.043-.05.043-.05.043-.049.024-.027Zm-.473.573h0a.075.075,0,0,0-.119-.091l-.009.011-.04.052-.04.053-.039.053-.039.053-.014.019a.075.075,0,0,0,.122.087l.013-.018.038-.052.039-.052.039-.052.04-.052.009-.011Zm-.432.6h0a.075.075,0,0,0-.125-.082l-.028.042-.036.055-.035.055-.035.055-.029.046a.075.075,0,0,0,.127.079l.028-.046.035-.054.035-.054.035-.054.028-.042Zm-.387.634h0a.075.075,0,0,0-.131-.073l-.007.013-.032.057-.031.057-.031.057-.031.057-.013.024a.075.075,0,0,0,.133.069l.012-.023.03-.056.03-.056.031-.056.031-.056.007-.013Zm-.341.66h0a.075.075,0,0,0-.136-.063l-.016.035-.027.059-.027.059-.027.059-.026.059,0,0a.075.075,0,0,0,.138.06v0l.026-.058.026-.058.026-.058.027-.058.016-.035Zm-.293.682h0a.075.075,0,0,0-.14-.053l-.021.055-.023.06-.022.06-.022.06-.017.047a.075.075,0,0,0,.141.05l.017-.046.021-.06.022-.06.023-.059.021-.054Zm-.244.7h0a.075.075,0,0,0-.143-.044l0,.011-.018.061-.018.061-.018.062-.017.061-.009.033a.075.075,0,0,0,.144.04l.009-.032.017-.061.018-.061.018-.061.018-.061,0-.011Zm-.194.717h0a.075.075,0,0,0-.146-.033l-.006.025-.014.062-.014.062-.013.063-.013.062,0,.02a.075.075,0,0,0,.147.029l0-.019.013-.062.013-.062.014-.062.014-.061.006-.025Zm-.143.729h0a.076.076,0,0,0-.033-.074.075.075,0,0,0-.115.051l-.006.038-.01.063-.009.063-.009.063-.009.063v.008a.075.075,0,0,0,.148.019v-.008l.009-.062.008-.062.009-.062.009-.062.006-.038Zm-.091.737h0a.075.075,0,0,0-.149-.012l0,.05-.005.064,0,.063,0,.064,0,.059a.075.075,0,0,0,.149.009l0-.059,0-.063.005-.063,0-.062,0-.05Zm-.039.741h0a.075.075,0,0,0-.15,0v.3a.075.075,0,0,0,.15,0v-.3Zm.014.743h0a.075.075,0,0,0-.15.008v.01l0,.064,0,.064,0,.064,0,.064,0,.035a.075.075,0,0,0,.149-.013l0-.034,0-.063,0-.063,0-.063,0-.063v-.011Zm.066.74h0a.075.075,0,0,0-.149.006v.013l0,.024.008.064.009.063.009.063.009.063,0,.021a.075.075,0,0,0,.148-.023l0-.02-.009-.062-.009-.063-.008-.062-.008-.062,0-.024Zm.118.733h0a.075.075,0,0,0-.147.029l.008.039.013.063.013.063.014.063.014.063v0a.075.075,0,0,0,.146-.034v0l-.014-.062-.013-.062-.013-.062-.012-.062-.008-.039Zm.169.722h0a.075.075,0,0,0-.144.04l.016.057.018.062.018.062.018.062.014.046a.075.075,0,0,0,.143-.044l-.013-.045-.018-.061-.018-.061-.017-.061-.016-.057Zm.221.709h0a.075.075,0,0,0-.141.05l.006.017.021.061.022.061.023.061.023.061.009.022a.075.075,0,0,0,.14-.054l-.008-.021-.023-.06-.022-.06-.022-.06-.021-.06-.006-.017Zm.271.692h0a.075.075,0,0,0-.137.06l.018.042.026.06.027.059.027.06.025.053a.075.075,0,0,0,.135-.063l-.024-.052-.027-.059-.027-.059-.026-.059-.019-.042Zm.319.671h0a.075.075,0,0,0-.133.069l.007.013.031.058.031.059.032.058.032.058.011.019a.075.075,0,0,0,.13-.073l-.01-.018-.031-.057-.031-.057-.031-.057-.03-.058-.007-.013Zm.366.646h0a.075.075,0,0,0-.127.079l.03.049.036.057.036.056.036.056.024.036a.075.075,0,0,0,.125-.083l-.023-.035-.036-.056-.035-.055-.035-.056-.031-.049Zm.411.619h0a.075.075,0,0,0-.121.087l.025.035.04.055.04.054.04.055.033.043a.075.075,0,0,0,.119-.091l-.032-.043-.04-.054-.04-.054-.039-.054-.025-.035Zm.454.588h0a.075.075,0,0,0-.115.1l.025.03.044.052.045.052.045.052.037.042a.075.075,0,0,0,.112-.1l-.037-.041-.044-.052-.044-.051-.043-.052-.025-.03Zm.494.555h0a.075.075,0,0,0-.108.1l.026.028.047.049.047.049.048.048.042.042a.075.075,0,0,0,.105-.107l-.042-.042-.047-.048-.047-.047-.047-.048-.026-.027Zm.531.519h0a.075.075,0,0,0-.1.111l.02.018.05.045.05.044.051.044.05.043.006,0a.075.075,0,0,0,.1-.114l0,0-.05-.043-.05-.043-.049-.044-.049-.044-.02-.018Zm.566.48h0a.075.075,0,0,0-.092.117l.005,0,.052.041.052.04.053.04.053.04.024.018a.075.075,0,0,0,.089-.12l-.023-.018-.052-.039-.052-.039-.052-.04-.052-.04-.005,0Zm.6.438h0a.075.075,0,0,0-.083.124l.037.025.054.036.055.036.055.036.051.032a.075.075,0,0,0,.081-.126l-.05-.032-.054-.035-.054-.036-.054-.036-.037-.025Zm.629.395h0a.075.075,0,0,0-.075.13l.009,0,.057.032.056.032.057.031.057.031.028.015a.075.075,0,0,0,.071-.132l-.027-.014-.056-.031-.056-.031-.056-.031-.056-.032-.008,0Zm.655.349h0a.075.075,0,0,0-.065.135l.031.015.058.028.059.027.058.027.059.027.008,0a.075.075,0,0,0,.061-.136l-.007,0-.058-.026-.058-.027-.058-.028-.057-.027-.031-.015Zm.679.3h0a.075.075,0,0,0-.055.139l.051.021.06.023.06.023.06.023.05.019a.075.075,0,0,0,.052-.14l-.049-.019-.059-.022-.059-.023-.059-.023-.051-.021Zm.7.253h0a.075.075,0,0,0-.046.142l.008,0,.061.019.061.019.061.019.061.018.036.01a.075.075,0,0,0,.042-.144l-.035-.01-.06-.018-.061-.018-.06-.019-.061-.019-.008,0Zm.715.2h0a.075.075,0,0,0-.035.146l.022,0,.062.015.062.015.062.014.062.014.023,0a.075.075,0,0,0,.031-.146l-.022,0-.061-.013-.061-.014-.062-.014-.061-.015-.022-.005Zm.727.151h0a.075.075,0,0,0-.024.148l.035.006.063.01.063.01.063.01.063.009.011,0a.077.077,0,0,0,.073-.033.075.075,0,0,0-.053-.115h-.01l-.062-.009-.062-.01-.062-.01-.062-.01-.035-.006Zm.736.1h0a.075.075,0,0,0-.044.14.074.074,0,0,0,.029.009l.047,0,.063.006.064.005.064,0,.062,0a.075.075,0,0,0,.011-.149h0l-.061,0-.063-.005-.063-.005-.063-.006-.047,0Zm.741.048h0a.075.075,0,0,0,0,.15h.3a.075.075,0,0,0,0-.15h-.239l-.059,0Zm.743,0h0a.075.075,0,0,0,0,.15h.01l.064,0,.063,0,.064,0,.064,0,.038,0a.075.075,0,0,0-.011-.149l-.037,0-.063,0-.063,0-.063,0-.063,0Zm.74-.057h0a.075.075,0,0,0,0,.149h.016l.021,0,.064-.008.063-.008.064-.008.063-.008.024,0a.075.075,0,0,0-.021-.148l-.023,0-.063.008-.063.008-.063.008-.062.007-.021,0Zm.734-.109h0a.075.075,0,0,0,.028.147l.036-.007.063-.012.063-.012.063-.013.063-.013.008,0a.075.075,0,0,0-.032-.146h-.007l-.062.013-.062.013-.062.012-.062.012-.036.007Zm.725-.161h0a.075.075,0,0,0,.038.144l.053-.014.062-.017.062-.017.062-.018.051-.015a.075.075,0,0,0-.042-.144l-.049.015-.061.017-.061.017-.062.017-.053.014Zm.712-.213h0a.075.075,0,0,0,.048.142l.012,0,.061-.021.061-.021.061-.021.061-.022.027-.01a.075.075,0,0,0-.053-.14l-.026.01-.06.022-.06.021-.061.021-.06.021-.012,0Zm.694-.262h0a.075.075,0,0,0,.058.138l.037-.016.06-.026.06-.026.06-.027.059-.026a.075.075,0,0,0-.062-.136l-.058.026-.059.026-.059.025-.059.026-.037.015Zm.675-.311h0a.075.075,0,0,0,.068.133l.007,0,.059-.03.059-.031.058-.031.059-.031.026-.014a.075.075,0,0,0-.072-.131l-.025.014-.058.031-.057.03-.058.03-.057.03-.008,0Zm.65-.358h0a.075.075,0,0,0,.078.128l.042-.025.057-.035.057-.035.057-.036.043-.028a.075.075,0,0,0-.08-.126l-.043.027-.056.035-.056.035-.056.034-.042.026Zm.623-.4h0a.075.075,0,0,0,.086.122l.027-.019.055-.039.055-.039.055-.04.053-.039a.075.075,0,0,0-.089-.12l-.052.038-.054.039-.054.039-.055.038Z" transform="translate(-1038.127 -1533.534)" fillRule="evenodd" fill="url(#linear-gradient)"/>
      <g id="Group_37409" data-name="Group 37409" transform="translate(5.15 4.926)" style="mix-blend-mode: soft-light;isolation: isolate">
        <g id="Group_37358" data-name="Group 37358" transform="translate(0 0)">
          <path id="Path_42124" data-name="Path 42124" d="M151,73.012l1.73,4.172,9.623-6.431L151,73.012Z" transform="translate(-150.992 -59.389)" fill="url(#linear-gradient-5)"/>
          <path id="Path_42125" data-name="Path 42125" d="M176.18,70.752l-6.43,9.626,4.173,1.727,2.257-11.353Z" transform="translate(-164.817 -59.389)" fill="url(#linear-gradient-6)"/>
          <path id="Path_42126" data-name="Path 42126" d="M167.213,70.752l-9.623,6.431,3.193,3.195,6.43-9.626Z" transform="translate(-155.85 -59.389)" fill="url(#linear-gradient-7)"/>
          <path id="Path_42127" data-name="Path 42127" d="M162.355,64.413,151,62.156v4.517l11.353-2.26Z" transform="translate(-150.992 -53.05)" fill="url(#linear-gradient-6)"/>
          <path id="Path_42128" data-name="Path 42128" d="M185.643,82.1h4.517L187.9,70.752,185.643,82.1Z" transform="translate(-176.537 -59.389)" fill="url(#linear-gradient-9)"/>
          <path id="Path_42129" data-name="Path 42129" d="M162.358,52.694l-9.625-6.43-1.727,4.173,11.352,2.257Z" transform="translate(-150.995 -41.331)" fill="url(#linear-gradient-7)"/>
          <path id="Path_42130" data-name="Path 42130" d="M203.866,77.184l-9.626-6.43h0l6.431,9.623,3.195-3.193Z" transform="translate(-182.877 -59.391)" fill="url(#linear-gradient-6)"/>
          <path id="Path_42131" data-name="Path 42131" d="M194.238,70.752,196.5,82.1l4.172-1.729-6.431-9.623Z" transform="translate(-182.875 -59.389)" fill="url(#linear-gradient-7)"/>
          <path id="Path_42132" data-name="Path 42132" d="M176.178,38.869l-2.259-11.353-4.172,1.73,6.431,9.623Z" transform="translate(-164.815 -27.506)" fill="url(#linear-gradient-7)"/>
          <path id="Path_42133" data-name="Path 42133" d="M194.238,52.69h0l11.354-2.26-1.73-4.173-9.624,6.432Z" transform="translate(-182.875 -41.327)" fill="url(#linear-gradient-9)"/>
          <path id="Path_42134" data-name="Path 42134" d="M205.593,66.665V62.148l-11.354,2.26,11.353,2.257Z" transform="translate(-182.877 -53.045)" fill="url(#linear-gradient-5)"/>
          <path id="Path_42135" data-name="Path 42135" d="M167.207,43.727,160.776,34.1,157.582,37.3l9.625,6.43Z" transform="translate(-155.844 -32.364)" fill="url(#linear-gradient-16)"/>
          <path id="Path_42136" data-name="Path 42136" d="M194.238,43.72l9.624-6.432-3.194-3.194-6.43,9.625Z" transform="translate(-182.875 -32.357)" fill="url(#linear-gradient-7)"/>
          <path id="Path_42137" data-name="Path 42137" d="M194.24,70.754l9.626,6.43,1.727-4.173L194.24,70.754Z" transform="translate(-182.877 -59.391)" fill="url(#linear-gradient-9)"/>
          <path id="Path_42138" data-name="Path 42138" d="M200.669,29.244,196.5,27.518h0L194.239,38.87l6.43-9.625Z" transform="translate(-182.876 -27.507)" fill="url(#linear-gradient-5)"/>
          <path id="Path_42139" data-name="Path 42139" d="M187.895,38.868l2.257-11.352h-4.516l2.259,11.353Z" transform="translate(-176.532 -27.506)" fill="url(#linear-gradient-6)"/>
          <path id="Path_42140" data-name="Path 42140" d="M192.627,75.242l-.893-4.49-.893,4.49.893,6.873.893-6.873Z" transform="translate(-180.37 -59.389)" fill="url(#linear-gradient-7)"/>
          <path id="Path_42141" data-name="Path 42141" d="M191.73,27.479l-.892,6.873.893,4.49.893-4.49-.894-6.873Z" transform="translate(-180.368 -27.479)" fill="url(#linear-gradient-7)"/>
          <path id="Path_42142" data-name="Path 42142" d="M196.784,74.558l-2.544-3.806.893,4.49,3.456,6.008-1.806-6.692Z" transform="translate(-182.877 -59.389)" fill="url(#linear-gradient-5)"/>
          <path id="Path_42143" data-name="Path 42143" d="M181.132,36.781l-3.456-6.008,1.806,6.691,2.544,3.806-.893-4.49Z" transform="translate(-170.662 -29.908)" fill="url(#linear-gradient-6)"/>
          <path id="Path_42144" data-name="Path 42144" d="M198.046,73.295l-3.806-2.543,2.544,3.806,5.492,4.228-4.229-5.491Z" transform="translate(-182.877 -59.389)" fill="url(#linear-gradient-9)"/>
          <path id="Path_42145" data-name="Path 42145" d="M169.129,44.384l-5.492-4.227,4.229,5.491,3.807,2.543-2.544-3.806Z" transform="translate(-160.31 -36.827)" fill="url(#linear-gradient-5)"/>
          <path id="Path_42146" data-name="Path 42146" d="M198.73,71.645l-4.49-.893,3.806,2.543,6.692,1.8-6.008-3.455Z" transform="translate(-182.877 -59.389)" fill="url(#linear-gradient-7)"/>
          <path id="Path_42147" data-name="Path 42147" d="M160.949,56l-6.692-1.8,6.008,3.455,4.491.893L160.949,56Z" transform="translate(-153.392 -47.18)" fill="url(#linear-gradient-9)"/>
          <path id="Path_42148" data-name="Path 42148" d="M198.73,67.35l-4.49.893,4.49.893,6.873-.894-6.873-.892Z" transform="translate(-182.877 -56.88)" fill="url(#linear-gradient-6)"/>
          <path id="Path_42149" data-name="Path 42149" d="M157.838,67.352l-6.873.894,6.873.892,4.49-.893-4.491-.893Z" transform="translate(-150.965 -56.882)" fill="url(#linear-gradient-7)"/>
          <path id="Path_42150" data-name="Path 42150" d="M204.738,54.188h0l-6.691,1.806-3.806,2.543,4.49-.893,6.007-3.456Z" transform="translate(-182.877 -47.174)" fill="url(#linear-gradient-16)"/>
          <path id="Path_42151" data-name="Path 42151" d="M160.269,71.645,154.262,75.1l0,0,0,0,6.691-1.805,3.806-2.544-4.49.893Z" transform="translate(-153.396 -59.389)" fill="url(#linear-gradient-6)"/>
          <path id="Path_42152" data-name="Path 42152" d="M198.588,30.77h0v0l-3.453,6.007-.893,4.49,2.543-3.806,1.8-6.69v0Z" transform="translate(-182.877 -29.905)" fill="url(#linear-gradient-9)"/>
          <path id="Path_42153" data-name="Path 42153" d="M202.275,40.15h0l-5.49,4.228-2.543,3.806,3.806-2.543,4.227-5.492Z" transform="translate(-182.877 -36.823)" fill="url(#linear-gradient-5)"/>
          <path id="Path_42154" data-name="Path 42154" d="M179.487,74.559l-1.805,6.692,3.455-6.009.893-4.49-2.543,3.807Z" transform="translate(-170.666 -59.389)" fill="url(#linear-gradient-5)"/>
          <path id="Path_42155" data-name="Path 42155" d="M167.871,73.3l-4.228,5.492.006-.006-.006.006,5.491-4.228,2.543-3.807L167.871,73.3Z" transform="translate(-160.314 -59.389)" fill="url(#linear-gradient-9)"/>
        </g>
        <g id="Group_37360" data-name="Group 37360" transform="translate(0.01 0.01)" opacity="0.7">
          <path id="Path_42156" data-name="Path 42156" d="M187.9,109.473l-2.258,1.186h4.517l-2.259-1.186Z" transform="translate(-176.543 -87.953)" fill="url(#linear-gradient-6)"/>
          <path id="Path_42157" data-name="Path 42157" d="M187.9,28.7l-2.258-1.186h4.517L187.9,28.7Z" transform="translate(-176.543 -27.518)" fill="url(#linear-gradient-6)"/>
          <path id="Path_42158" data-name="Path 42158" d="M204.472,106.525l-1.633,1.96h0l4.173-1.728h0l-2.54-.231Z" transform="translate(-189.228 -85.779)" fill="url(#linear-gradient-6)"/>
          <path id="Path_42159" data-name="Path 42159" d="M172.288,29.477l-2.54-.232h0l4.172-1.728h0l-1.633,1.96Z" transform="translate(-164.826 -27.518)" fill="url(#linear-gradient-9)"/>
          <path id="Path_42160" data-name="Path 42160" d="M219.489,96l-.758,2.435h0l3.193-3.194h0L219.489,96Z" transform="translate(-200.946 -77.46)" fill="url(#linear-gradient-9)"/>
          <path id="Path_42161" data-name="Path 42161" d="M160.021,36.533l-2.435.759h0l3.194-3.194h0l-.759,2.436Z" transform="translate(-155.857 -32.37)" fill="url(#linear-gradient-7)"/>
          <path id="Path_42162" data-name="Path 42162" d="M230.013,80.986l.231,2.54h0l1.728-4.173h0l-1.959,1.632Z" transform="translate(-209.266 -65.742)" fill="url(#linear-gradient-5)"/>
          <path id="Path_42163" data-name="Path 42163" d="M152.963,48.8,151,50.435h0l1.729-4.172h0l.231,2.54Z" transform="translate(-151.003 -41.34)" fill="url(#linear-gradient-5)"/>
          <path id="Path_42164" data-name="Path 42164" d="M232.96,64.41l1.185,2.259h0V62.153h0L232.96,64.41Z" transform="translate(-211.44 -53.058)" fill="url(#linear-gradient-7)"/>
          <path id="Path_42165" data-name="Path 42165" d="M152.189,64.41,151,66.669h0V62.153h0l1.186,2.258Z" transform="translate(-151.003 -53.058)" fill="url(#linear-gradient-6)"/>
          <path id="Path_42166" data-name="Path 42166" d="M230.013,48.8l1.959,1.632h0l-1.728-4.172h0l-.231,2.54Z" transform="translate(-209.266 -41.34)" fill="url(#linear-gradient-16)"/>
          <path id="Path_42167" data-name="Path 42167" d="M152.963,80.986l-.231,2.54h0L151,79.354h0l1.96,1.632Z" transform="translate(-151.003 -65.742)" fill="url(#linear-gradient-9)"/>
          <path id="Path_42168" data-name="Path 42168" d="M219.489,36.533l2.435.759h0L218.731,34.1h0l.759,2.436Z" transform="translate(-200.946 -32.37)" fill="url(#linear-gradient-5)"/>
          <path id="Path_42169" data-name="Path 42169" d="M160.021,96l.759,2.436h0l-3.193-3.194h0l2.435.758Z" transform="translate(-155.857 -77.46)" fill="url(#linear-gradient-9)"/>
          <path id="Path_42170" data-name="Path 42170" d="M204.472,29.477l2.54-.232h0l-4.172-1.728h0l1.633,1.96Z" transform="translate(-189.228 -27.518)" fill="url(#linear-gradient-6)"/>
          <path id="Path_42171" data-name="Path 42171" d="M197.544,98.383,195.63,97.4l-1.392,1.642v1.528l2.258,1.186h0l1.632-1.96-.585-1.412Z" transform="translate(-182.885 -79.049)" fill="url(#linear-gradient-9)"/>
          <path id="Path_42172" data-name="Path 42172" d="M180.006,30.889l1.914.985,1.391-1.642V28.7l-2.258-1.186h0l-1.632,1.96.585,1.412Z" transform="translate(-171.959 -27.518)" fill="url(#linear-gradient-16)"/>
          <path id="Path_42173" data-name="Path 42173" d="M207.486,93.344l-.658,2.049.585,1.412,2.54.231.758-2.435-1.081-1.081Z" transform="translate(-192.169 -76.059)" fill="url(#linear-gradient-54)"/>
          <path id="Path_42174" data-name="Path 42174" d="M170.085,37.791h0l.657-2.049-.585-1.412-2.54-.232h0l-.759,2.435,1.081,1.081Z" transform="translate(-162.696 -32.37)" fill="url(#linear-gradient-5)"/>
          <path id="Path_42175" data-name="Path 42175" d="M218.877,83.342,216.828,84h0l.177,2.145,1.081,1.081,2.436-.759-.231-2.54-1.413-.585Z" transform="translate(-199.544 -68.683)" fill="url(#linear-gradient-6)"/>
          <path id="Path_42176" data-name="Path 42176" d="M161.279,46.6l-.177-2.145h0l-1.081-1.081-2.435.759h0l.231,2.54,1.413.585Z" transform="translate(-155.857 -39.21)" fill="url(#linear-gradient-6)"/>
          <path id="Path_42177" data-name="Path 42177" d="M224.056,70.752h-1.529l-1.642,1.392h0l.984,1.913,1.413.585,1.959-1.632Z" transform="translate(-202.535 -59.399)" fill="url(#linear-gradient-9)"/>
          <path id="Path_42178" data-name="Path 42178" d="M155.359,58.435h0l-.984-1.914h0l-1.413-.585L151,57.568h0l1.185,2.258h1.529Z" transform="translate(-151.003 -48.473)" fill="url(#linear-gradient-54)"/>
          <path id="Path_42179" data-name="Path 42179" d="M219.453,56.521l-.984,1.914-.86.171h0l.861-.171,1.641,1.392h1.529l1.185-2.258-1.959-1.632-1.413.585Z" transform="translate(-200.119 -48.473)" fill="url(#linear-gradient-5)"/>
          <path id="Path_42180" data-name="Path 42180" d="M155.359,72.144h0l-1.642-1.391h-1.529L151,73.011h0l1.96,1.632,1.413-.585Z" transform="translate(-151.003 -59.399)" fill="url(#linear-gradient-5)"/>
          <path id="Path_42181" data-name="Path 42181" d="M216.829,46.6l2.049.658,1.413-.585.231-2.54-2.435-.759-1.081,1.081Z" transform="translate(-199.544 -39.21)" fill="url(#linear-gradient-6)"/>
          <path id="Path_42182" data-name="Path 42182" d="M161.279,84h0l-2.049-.658h0l-1.413.585-.231,2.54h0l2.435.758,1.082-1.081Z" transform="translate(-155.857 -68.683)" fill="url(#linear-gradient-7)"/>
          <path id="Path_42183" data-name="Path 42183" d="M195.63,31.874h0l1.914-.984.585-1.413-1.632-1.96h0L194.238,28.7v1.529Z" transform="translate(-182.885 -27.518)" fill="url(#linear-gradient-7)"/>
          <path id="Path_42184" data-name="Path 42184" d="M206.829,35.742l.657,2.049h0l2.145-.176,1.081-1.081-.758-2.436-2.54.232-.585,1.413Z" transform="translate(-192.17 -32.37)" fill="url(#linear-gradient-54)"/>
          <path id="Path_42185" data-name="Path 42185" d="M170.086,93.342h0l-2.144.176h0L166.859,94.6l.759,2.435h0l2.539-.231.585-1.413Z" transform="translate(-162.696 -76.057)" fill="url(#linear-gradient-6)"/>
          <path id="Path_42186" data-name="Path 42186" d="M181.92,97.4l-1.914.984h0l-.585,1.413,1.633,1.959h0l2.258-1.186V99.042Z" transform="translate(-171.959 -79.05)" fill="url(#linear-gradient-7)"/>
          <g id="Group_37359" data-name="Group 37359" transform="translate(2.715 2.715)">
            <path id="Path_42187" data-name="Path 42187" d="M180.454,44.366l1.723-.713-.289-1.451-.171-.86-1.914-.985h0l-.657,2.049.487.729Z" transform="translate(-174.47 -39.7)" fill="url(#linear-gradient-68)"/>
            <path id="Path_42188" data-name="Path 42188" d="M171.882,50.122l1.23.822h0l1.318-1.318h0l-.821-1.229h0l-.487-.729h0l-2.145-.176h0l.177,2.145h0Z" transform="translate(-168.446 -44.96)" fill="url(#linear-gradient-69)"/>
            <path id="Path_42189" data-name="Path 42189" d="M167.141,58.69l.713-1.723-1.23-.822-.729-.487-2.049.658h0l.984,1.914h0l.86.171Z" transform="translate(-163.188 -50.983)" fill="url(#linear-gradient-70)"/>
            <path id="Path_42190" data-name="Path 42190" d="M212.084,67.777l1.451.289.86.171,1.642-1.392h0L214.4,65.453l-.861.171-1.451.288v1.864Z" transform="translate(-198.76 -58.206)" fill="url(#linear-gradient-71)"/>
            <path id="Path_42191" data-name="Path 42191" d="M165.294,65.913h0l-1.451-.289-.86-.171-1.642,1.392h0l1.642,1.391.86-.171,1.451-.289h0Z" transform="translate(-161.341 -58.206)" fill="url(#linear-gradient-72)"/>
            <path id="Path_42192" data-name="Path 42192" d="M210.6,56.145h0l-.937.626-.293.2.713,1.723h0l1.451-.288.86-.171.984-1.914h0l-2.049-.658h0Z" transform="translate(-196.758 -50.983)" fill="url(#linear-gradient-73)"/>
            <path id="Path_42193" data-name="Path 42193" d="M166.623,76.847h0l1.23-.822-.713-1.722-1.451.288-.86.171-.984,1.914h0l2.049.658h0Z" transform="translate(-163.188 -64.732)" fill="url(#linear-gradient-74)"/>
            <path id="Path_42194" data-name="Path 42194" d="M191.263,88.6H189.4l-.288,1.45-.171.86h0l1.391,1.642,1.392-1.642-.171-.86Z" transform="translate(-181.693 -75.275)" fill="url(#linear-gradient-5)"/>
            <path id="Path_42195" data-name="Path 42195" d="M205.169,83.41l.487.729,2.145.176-.177-2.145h0l-.729-.487h0l-1.23-.822-1.318,1.318Z" transform="translate(-193.054 -69.569)" fill="url(#linear-gradient-76)"/>
            <path id="Path_42196" data-name="Path 42196" d="M173.61,83.41h0l.822-1.229h0l-1.318-1.318-1.23.822-.729.487-.176,2.144h0l2.145-.176h0Z" transform="translate(-168.448 -69.569)" fill="url(#linear-gradient-77)"/>
            <path id="Path_42197" data-name="Path 42197" d="M197.788,43.654l1.722.712h0l.24-.36.582-.87.487-.729-.657-2.049h0l-1.914.984-.171.86Z" transform="translate(-188.218 -39.702)" fill="url(#linear-gradient-78)"/>
            <path id="Path_42198" data-name="Path 42198" d="M189.4,41.808h1.864l.289-1.451.171-.86-1.392-1.642L188.939,39.5l.171.86Z" transform="translate(-181.693 -37.855)" fill="url(#linear-gradient-6)"/>
            <path id="Path_42199" data-name="Path 42199" d="M200.333,87.112h0l-.822-1.23-1.722.714.288,1.45.171.86,1.914.984.658-2.049h0Z" transform="translate(-188.218 -73.27)" fill="url(#linear-gradient-80)"/>
            <path id="Path_42200" data-name="Path 42200" d="M210.081,74.3l-.713,1.722h0l1.959,1.309,2.049-.658-.984-1.913h0l-.86-.171Z" transform="translate(-196.757 -64.732)" fill="url(#linear-gradient-81)"/>
            <path id="Path_42201" data-name="Path 42201" d="M205.17,48.4h0l-.582.87-.24.36,1.319,1.318h0l.293-.2.937-.626.729-.487.177-2.145-2.145.176h0Z" transform="translate(-193.055 -44.96)" fill="url(#linear-gradient-82)"/>
            <path id="Path_42202" data-name="Path 42202" d="M181.889,88.045h0l.289-1.45-1.722-.714-.822,1.23h0l-.487.729.657,2.049h0l1.914-.984h0Z" transform="translate(-174.471 -73.27)" fill="url(#linear-gradient-83)"/>
          </g>
          <path id="Path_42203" data-name="Path 42203" d="M172.289,106.525l1.633,1.959h0l-4.172-1.728h0l2.54-.231Z" transform="translate(-164.827 -85.779)" fill="url(#linear-gradient-5)"/>
          <path id="Path_42204" data-name="Path 42204" d="M183.734,53.621l-1.722-.712h-1.863l-1.723.713-1.318,1.318-.713,1.723v1.864l.713,1.723,1.318,1.318,1.723.714h1.863l1.722-.714,1.319-1.318.713-1.723V56.662l-.713-1.723h0l-1.319-1.318Z" transform="translate(-169.727 -46.241)" fill="url(#linear-gradient-54)"/>
        </g>
        <g id="Group_37361" data-name="Group 37361" transform="translate(0.01 0.01)" style="mix-blend-mode: color-burn;isolation: isolate">
          <path id="Path_42205" data-name="Path 42205" d="M151,62.154Z" transform="translate(-151.004 -53.059)" fill="none"/>
          <path id="Path_42206" data-name="Path 42206" d="M200.692,46.039h0l-.485,1.534Z" transform="translate(-187.287 -41.176)" fill="none"/>
          <path id="Path_42207" data-name="Path 42207" d="M174.742,64.783l-.223,2.016.223-2.016Z" transform="translate(-168.344 -54.998)" fill="none"/>
          <path id="Path_42208" data-name="Path 42208" d="M211.8,58.31l1.428-.741h0l.847-.44h0L211.8,58.31Z" transform="translate(-195.838 -49.353)" fill="none"/>
          <path id="Path_42209" data-name="Path 42209" d="M195.948,88.882l1.947-.565-1.947.565h0l.138,1.6h0l.082.949h0l-.082-.95Z" transform="translate(-184.146 -72.352)" fill="none"/>
          <path id="Path_42210" data-name="Path 42210" d="M213.333,68.424l-.222,2.017h0l.222-2.016,1.6-.138h0l.95-.083h0l-.951.082Z" transform="translate(-196.803 -57.52)" fill="none"/>
          <path id="Path_42211" data-name="Path 42211" d="M187.322,90.41l.249-.787h0Z" transform="translate(-177.786 -73.315)" fill="none"/>
          <path id="Path_42212" data-name="Path 42212" d="M192.529,51.031h0l2.016.223Z" transform="translate(-181.625 -44.857)" fill="none"/>
          <path id="Path_42213" data-name="Path 42213" d="M184.5,51.6l-.217-.417.217.417,1.947-.567Z" transform="translate(-175.547 -44.857)" fill="none"/>
          <path id="Path_42214" data-name="Path 42214" d="M164.795,72.682h0l.95-.082h0l1.6-.139-1.6.138Z" transform="translate(-161.173 -60.66)" fill="none"/>
          <path id="Path_42215" data-name="Path 42215" d="M207.95,51.174l-.977,1.163h0Z" transform="translate(-192.276 -44.962)" fill="none"/>
          <path id="Path_42216" data-name="Path 42216" d="M170.287,79.875l1.268,1.583-1.268-1.583h0l-1.428.742-.846.44h0l.846-.44Z" transform="translate(-163.546 -66.127)" fill="none"/>
          <path id="Path_42217" data-name="Path 42217" d="M185.328,98.217h0l.08-.254Z" transform="translate(-176.315 -79.465)" fill="none"/>
          <path id="Path_42218" data-name="Path 42218" d="M206.177,84.522l-1.231-1.035h0l-1.583,1.268.741,1.428h0l.439.846h0l-.44-.846h0l-.742-1.428,1.583-1.268,1.231,1.035h0l.73.614h0Z" transform="translate(-189.614 -68.79)" fill="none"/>
          <path id="Path_42219" data-name="Path 42219" d="M181.578,46.384l-.524-1.011h0l-.439-.846h0l.44.846Z" transform="translate(-172.838 -40.061)" fill="none"/>
          <path id="Path_42220" data-name="Path 42220" d="M191.876,43.479l-.106-1.221h0l-.082-.95h0l.082.951Z" transform="translate(-181.004 -37.686)" fill="none"/>
          <path id="Path_42221" data-name="Path 42221" d="M231.077,91.033l.556-1.342-.536.355Z" transform="translate(-210.051 -73.366)" fill="url(#linear-gradient-86)"/>
          <path id="Path_42222" data-name="Path 42222" d="M155.841,46.709l-.555,1.341.536-.355Z" transform="translate(-154.161 -41.67)" fill="url(#linear-gradient-87)"/>
          <path id="Path_42223" data-name="Path 42223" d="M236.465,74.793V73.342l-.359.533Z" transform="translate(-213.759 -61.309)" fill="url(#linear-gradient-88)"/>
          <path id="Path_42224" data-name="Path 42224" d="M151,62.639v1.45l.359-.533Z" transform="translate(-151.004 -53.416)" fill="url(#linear-gradient-89)"/>
          <path id="Path_42225" data-name="Path 42225" d="M235.37,57.94l-.555-1.341-.128.63Z" transform="translate(-212.713 -48.963)" fill="url(#linear-gradient-90)"/>
          <path id="Path_42226" data-name="Path 42226" d="M151.744,81.141l.128-.631-.683-.71Z" transform="translate(-151.141 -66.072)" fill="url(#linear-gradient-91)"/>
          <path id="Path_42227" data-name="Path 42227" d="M227.669,43.036l-1.026-1.026.123.632Z" transform="translate(-206.781 -38.204)" fill="url(#linear-gradient-92)"/>
          <path id="Path_42228" data-name="Path 42228" d="M158.955,96.612l-.123-.631-.9-.394Z" transform="translate(-156.111 -77.712)" fill="url(#linear-gradient-93)"/>
          <path id="Path_42229" data-name="Path 42229" d="M214.519,32.354l-1.341-.555.355.536Z" transform="translate(-196.852 -30.675)" fill="url(#linear-gradient-94)"/>
          <path id="Path_42230" data-name="Path 42230" d="M171.538,108.147l-.355-.536-.984-.019Z" transform="translate(-165.159 -86.566)" fill="url(#linear-gradient-95)"/>
          <path id="Path_42231" data-name="Path 42231" d="M198.281,27.518h-1.449l.533.36Z" transform="translate(-184.798 -27.518)" fill="url(#linear-gradient-96)"/>
          <path id="Path_42232" data-name="Path 42232" d="M187.574,112.977l-.533-.36-.918.36Z" transform="translate(-176.901 -90.271)" fill="url(#linear-gradient-97)"/>
          <path id="Path_42233" data-name="Path 42233" d="M181.427,27.7l-1.339.555.63.128Z" transform="translate(-172.451 -27.654)" fill="url(#linear-gradient-98)"/>
          <path id="Path_42234" data-name="Path 42234" d="M203.284,111.883l1.341-.555-.631-.128Z" transform="translate(-189.556 -89.226)" fill="url(#linear-gradient-99)"/>
          <path id="Path_42235" data-name="Path 42235" d="M166.524,34.439,165.5,35.466l.632-.123Z" transform="translate(-161.692 -32.622)" fill="url(#linear-gradient-100)"/>
          <path id="Path_42236" data-name="Path 42236" d="M224.358,74.678l-1.941,1.309.836,2.187,1.458.8.536-.355,1.124-2.714v-.127l-.359-.918Z" transform="translate(-203.665 -62.294)" fill="url(#linear-gradient-101)"/>
          <path id="Path_42237" data-name="Path 42237" d="M231.687,89.69h0l-.536.355Z" transform="translate(-210.105 -73.364)" fill="url(#linear-gradient-102)"/>
          <path id="Path_42238" data-name="Path 42238" d="M231.687,89.69h0l-.536.355Z" transform="translate(-210.105 -73.364)" fill="url(#linear-gradient-103)"/>
          <path id="Path_42239" data-name="Path 42239" d="M236.106,75.373l.359.918h0Z" transform="translate(-213.759 -62.807)" fill="url(#linear-gradient-104)"/>
          <path id="Path_42240" data-name="Path 42240" d="M236.106,75.373l.359.918h0Z" transform="translate(-213.759 -62.807)" fill="url(#linear-gradient-105)"/>
          <path id="Path_42241" data-name="Path 42241" d="M153.016,54.76h0l1.941-1.308-.835-2.187-1.458-.8-.536.355L151,53.532h0v.127l.359.918Z" transform="translate(-151.003 -44.438)" fill="url(#linear-gradient-106)"/>
          <path id="Path_42242" data-name="Path 42242" d="M155.285,50.818h0l.536-.355Z" transform="translate(-154.161 -44.438)" fill="url(#linear-gradient-107)"/>
          <path id="Path_42243" data-name="Path 42243" d="M155.285,50.818h0l.536-.355Z" transform="translate(-154.161 -44.438)" fill="url(#linear-gradient-108)"/>
          <path id="Path_42244" data-name="Path 42244" d="M151,62.637h0l.359.918Z" transform="translate(-151.004 -53.415)" fill="url(#linear-gradient-109)"/>
          <path id="Path_42245" data-name="Path 42245" d="M151,62.637h0l.359.918Z" transform="translate(-151.004 -53.415)" fill="url(#linear-gradient-110)"/>
          <path id="Path_42246" data-name="Path 42246" d="M224.976,59.464l-1.292,1.952,1.608,1.7,1.653.183.36-.533V59.828h0l-.049-.117-.683-.71Z" transform="translate(-204.599 -50.733)" fill="url(#linear-gradient-111)"/>
          <path id="Path_42247" data-name="Path 42247" d="M154.624,68.015l-1.609-1.7-1.653-.182-.359.533V69.6h0l.049.117.683.71,1.6-.464Z" transform="translate(-151.003 -55.993)" fill="url(#linear-gradient-112)"/>
          <path id="Path_42248" data-name="Path 42248" d="M151,66.666h0l.359-.533Z" transform="translate(-151.004 -55.993)" fill="url(#linear-gradient-113)"/>
          <path id="Path_42249" data-name="Path 42249" d="M151,66.666h0l.359-.533Z" transform="translate(-151.004 -55.993)" fill="url(#linear-gradient-114)"/>
          <path id="Path_42250" data-name="Path 42250" d="M151.19,79.8l.683.71-.683-.71Z" transform="translate(-151.141 -66.072)" fill="url(#linear-gradient-115)"/>
          <path id="Path_42251" data-name="Path 42251" d="M151.19,79.8l.683.71-.683-.71Z" transform="translate(-151.141 -66.072)" fill="url(#linear-gradient-116)"/>
          <path id="Path_42252" data-name="Path 42252" d="M220.912,45.456l-.447,2.3h0l2.137.955,1.6-.464.129-.63L223.2,44.9h0l-.09-.09-.9-.394Z" transform="translate(-202.225 -39.979)" fill="url(#linear-gradient-117)"/>
          <path id="Path_42253" data-name="Path 42253" d="M157.166,81.694l-2.138-.955-1.6.464-.128.631,1.125,2.715h0l.089.089.9.394,1.3-1.04Z" transform="translate(-152.699 -66.763)" fill="url(#linear-gradient-118)"/>
          <path id="Path_42254" data-name="Path 42254" d="M157.929,95.586l.9.394-.9-.394Z" transform="translate(-156.11 -77.712)" fill="url(#linear-gradient-119)"/>
          <path id="Path_42255" data-name="Path 42255" d="M157.929,95.586l.9.394-.9-.394Z" transform="translate(-156.11 -77.712)" fill="url(#linear-gradient-120)"/>
          <path id="Path_42256" data-name="Path 42256" d="M211.479,35.3h0l.466,2.294h0l2.34.066,1.3-1.04-.123-.632-2.077-2.078h0l-.117-.049-.986-.019Z" transform="translate(-195.599 -32.18)" fill="url(#linear-gradient-121)"/>
          <path id="Path_42257" data-name="Path 42257" d="M165.006,93.192h0l-2.34-.065h0l-1.3,1.04.123.631,2.078,2.078h0l.118.049.984.019.8-1.458Z" transform="translate(-158.646 -75.899)" fill="url(#linear-gradient-122)"/>
          <path id="Path_42258" data-name="Path 42258" d="M198.165,29.53h0l1.309,1.941-.287.91h0l.288-.91,2.187-.835.8-1.458-.355-.536-2.714-1.124h-.128l-.917.36Z" transform="translate(-185.781 -27.518)" fill="url(#linear-gradient-123)"/>
          <path id="Path_42259" data-name="Path 42259" d="M176.936,98.93h0l-2.187.836h0l-.8,1.458.355.536,2.715,1.124h.127l.918-.36.183-1.653Z" transform="translate(-167.922 -80.178)" fill="url(#linear-gradient-124)"/>
          <path id="Path_42260" data-name="Path 42260" d="M182.951,29.846l1.952,1.292,1.7-1.608.183-1.653-.533-.36h-2.939l-.118.049-.709.683Z" transform="translate(-174.22 -27.518)" fill="url(#linear-gradient-125)"/>
          <path id="Path_42261" data-name="Path 42261" d="M193.454,101.487,191.5,100.2h0l-1.7,1.608h0l-.183,1.653.533.36h2.938l.117-.049.71-.684Z" transform="translate(-179.479 -81.111)" fill="url(#linear-gradient-126)"/>
          <path id="Path_42262" data-name="Path 42262" d="M158.786,41.986l2.294-.467.066-2.34-1.04-1.3-.632.123L157.4,40.081h0l-.049.117-.019.986Z" transform="translate(-155.667 -35.16)" fill="url(#linear-gradient-127)"/>
          <path id="Path_42263" data-name="Path 42263" d="M157.347,46.709h0l-.019.986Z" transform="translate(-155.667 -41.67)" fill="url(#linear-gradient-128)"/>
          <path id="Path_42264" data-name="Path 42264" d="M157.347,46.709h0l-.019.986Z" transform="translate(-155.667 -41.67)" fill="url(#linear-gradient-129)"/>
          <path id="Path_42265" data-name="Path 42265" d="M165.5,38h0l.632-.123Z" transform="translate(-161.692 -35.16)" fill="url(#linear-gradient-130)"/>
          <path id="Path_42266" data-name="Path 42266" d="M165.5,38h0l.632-.123Z" transform="translate(-161.692 -35.16)" fill="url(#linear-gradient-131)"/>
          <path id="Path_42267" data-name="Path 42267" d="M168.944,33.232h0l2.3.448h0l.956-2.137-.464-1.6-.63-.128-2.715,1.124h0l-.09.09-.394.9Z" transform="translate(-163.466 -29.213)" fill="url(#linear-gradient-132)"/>
          <path id="Path_42268" data-name="Path 42268" d="M207.477,97.424l-2.3-.447h0l-.956,2.137h0l.463,1.6.631.128,2.715-1.124.089-.09.395-.9Z" transform="translate(-190.249 -78.738)" fill="url(#linear-gradient-133)"/>
          <path id="Path_42269" data-name="Path 42269" d="M206.619,111.327h0l-.631-.128Z" transform="translate(-191.55 -89.226)" fill="url(#linear-gradient-134)"/>
          <path id="Path_42270" data-name="Path 42270" d="M206.619,111.327h0l-.631-.128Z" transform="translate(-191.55 -89.226)" fill="url(#linear-gradient-135)"/>
          <path id="Path_42271" data-name="Path 42271" d="M218.974,87.992l-2.294.466-.065,2.34h0l1.04,1.3.632-.123,2.077-2.077h0l.048-.116.019-.987Z" transform="translate(-199.386 -72.113)" fill="url(#linear-gradient-136)"/>
          <path id="Path_42272" data-name="Path 42272" d="M160.277,64.851l.95-.083,1.6-.138.223-2.016-1.534-.485-.91-.288-1.941,1.308h0l1.609,1.7h0Z" transform="translate(-156.655 -52.829)" fill="url(#linear-gradient-137)"/>
          <path id="Path_42273" data-name="Path 42273" d="M162.857,75.15l1.428-.742h0l-.566-1.947-1.6.139h0l-.95.082h0l-1.292,1.953,2.138.955h0Z" transform="translate(-157.544 -60.66)" fill="url(#linear-gradient-138)"/>
          <path id="Path_42274" data-name="Path 42274" d="M164.795,73.3Z" transform="translate(-161.173 -61.279)" fill="#fff"/>
          <path id="Path_42275" data-name="Path 42275" d="M164.795,73.3Z" transform="translate(-161.173 -61.279)" fill="#fff"/>
          <path id="Path_42276" data-name="Path 42276" d="M164.795,73.3Z" transform="translate(-161.173 -61.279)" fill="#fff"/>
          <path id="Path_42277" data-name="Path 42277" d="M170.3,81.458l-1.268-1.583-1.428.742-.846.44-.447,2.3h0l2.34.065h0l.614-.73Z" transform="translate(-162.292 -66.127)" fill="url(#linear-gradient-139)"/>
          <path id="Path_42278" data-name="Path 42278" d="M201.984,43.648h0l.977-1.163.058-.069.614-.73-.466-2.294h0l-2.187.835-.288.91-.485,1.534Z" transform="translate(-187.287 -36.274)" fill="url(#linear-gradient-140)"/>
          <path id="Path_42279" data-name="Path 42279" d="M178.164,88.415l.236-.747.249-.787-1.777-.976-1.035,1.232-.614.73.466,2.294h0l2.187-.836.08-.254Z" transform="translate(-168.864 -70.573)" fill="url(#linear-gradient-141)"/>
          <path id="Path_42280" data-name="Path 42280" d="M176.873,85.9l-1.035,1.232-.614.73.614-.73Z" transform="translate(-168.864 -70.573)" fill="url(#linear-gradient-142)"/>
          <path id="Path_42281" data-name="Path 42281" d="M176.873,85.9l-1.035,1.232-.614.73.614-.73Z" transform="translate(-168.864 -70.573)" fill="url(#linear-gradient-143)"/>
          <path id="Path_42282" data-name="Path 42282" d="M191.77,37.741h0l.106,1.221.033.382,2.016.223.485-1.534.287-.91-1.309-1.941h0l-1.7,1.608h0Z" transform="translate(-181.004 -33.169)" fill="url(#linear-gradient-144)"/>
          <path id="Path_42283" data-name="Path 42283" d="M188.255,91.449h0l-.138-1.6-2.016-.222-.249.787-.236.747-.207.655-.08.254,1.309,1.941h0l1.7-1.608h0Z" transform="translate(-176.315 -73.315)" fill="url(#linear-gradient-145)"/>
          <path id="Path_42284" data-name="Path 42284" d="M185.634,94.024l.207-.655.236-.747-.236.747Z" transform="translate(-176.54 -75.526)" fill="url(#linear-gradient-146)"/>
          <path id="Path_42285" data-name="Path 42285" d="M185.634,94.024l.207-.655.236-.747-.236.747Z" transform="translate(-176.54 -75.526)" fill="url(#linear-gradient-147)"/>
          <path id="Path_42286" data-name="Path 42286" d="M210.369,76.721h0l-.976,1.776h0l1.231,1.035.73.614h0l2.294-.466-.836-2.187-.91-.288Z" transform="translate(-194.061 -63.801)" fill="url(#linear-gradient-148)"/>
          <path id="Path_42287" data-name="Path 42287" d="M213.231,57.569h0l-1.428.741.565,1.947,1.6-.138.951-.082,1.292-1.952-2.137-.955h0Z" transform="translate(-195.838 -49.353)" fill="url(#linear-gradient-149)"/>
          <path id="Path_42288" data-name="Path 42288" d="M198.637,89.745h0l-.741-1.428h0l-1.947.565.139,1.6.082.95,1.952,1.292h0l.956-2.137h0Z" transform="translate(-184.146 -72.352)" fill="url(#linear-gradient-150)"/>
          <path id="Path_42289" data-name="Path 42289" d="M173.577,46.812l1.582-1.268h0l-.217-.417-.525-1.011-.44-.846-2.3-.448h0l-.066,2.34.731.614Z" transform="translate(-166.203 -38.803)" fill="url(#linear-gradient-151)"/>
          <path id="Path_42290" data-name="Path 42290" d="M166.159,55.162h0l.977-1.777L165.9,52.35l-.731-.614-2.294.467.835,2.187.91.288Z" transform="translate(-159.76 -45.377)" fill="url(#linear-gradient-152)"/>
          <path id="Path_42291" data-name="Path 42291" d="M215.887,68.2l-.95.083h0l-1.6.138-.222,2.016,1.534.485.91.288L217.5,69.9l-1.608-1.7Z" transform="translate(-196.803 -57.52)" fill="url(#linear-gradient-153)"/>
          <path id="Path_42292" data-name="Path 42292" d="M207.952,48.927l-.977,1.163,1.268,1.582h0l2.275-1.181.447-2.3-2.34-.066h0l-.614.73Z" transform="translate(-192.277 -42.715)" fill="url(#linear-gradient-154)"/>
          <path id="Path_42293" data-name="Path 42293" d="M210.7,48.928l.058-.069.614-.73-.614.73Z" transform="translate(-195.021 -42.717)" fill="url(#linear-gradient-155)"/>
          <path id="Path_42294" data-name="Path 42294" d="M210.7,48.928l.058-.069.614-.73-.614.73Z" transform="translate(-195.021 -42.717)" fill="url(#linear-gradient-156)"/>
          <path id="Path_42295" data-name="Path 42295" d="M181.053,39.371h0l.524,1.011.217.417,1.947-.566h0l-.033-.382-.106-1.221-.082-.951-1.952-1.292-.956,2.137h0Z" transform="translate(-172.838 -34.058)" fill="url(#linear-gradient-157)"/>
          <path id="Path_42296" data-name="Path 42296" d="M206.178,84.523h0l-1.231-1.035-1.583,1.268.742,1.428h0l.44.846,2.3.447h0l.065-2.34h0Z" transform="translate(-189.614 -68.791)" fill="url(#linear-gradient-158)"/>
          <path id="Path_42297" data-name="Path 42297" d="M219.071,104.181l1.026-1.027-.632.123Z" transform="translate(-201.198 -83.293)" fill="url(#linear-gradient-159)"/>
          <path id="Path_42298" data-name="Path 42298" d="M219.07,104.527h0l.395-.9Z" transform="translate(-201.197 -83.639)" fill="url(#linear-gradient-160)"/>
          <path id="Path_42299" data-name="Path 42299" d="M219.07,104.527h0l.395-.9Z" transform="translate(-201.197 -83.639)" fill="url(#linear-gradient-161)"/>
          <path id="Path_42300" data-name="Path 42300" d="M221.206,103.154h0l-.632.123Z" transform="translate(-202.306 -83.293)" fill="url(#linear-gradient-162)"/>
          <path id="Path_42301" data-name="Path 42301" d="M221.206,103.154h0l-.632.123Z" transform="translate(-202.306 -83.293)" fill="url(#linear-gradient-163)"/>
          <path id="Path_42302" data-name="Path 42302" d="M184.309,53.813h0l-1.268-1.582h0l-1.777-.976-2.016-.223h0L177.3,51.6h0l-1.582,1.268-.976,1.777-.223,2.016.566,1.947,1.268,1.583,1.777.976h0l2.016.222h0l1.947-.565h0l1.583-1.268.976-1.776.222-2.017Z" transform="translate(-168.344 -44.857)" fill="url(#linear-gradient-164)"/>
          <rect id="Rectangle_746" data-name="Rectangle 746" height="2.028" transform="translate(10.794 15.405)" fill="#fff"/>
          <rect id="Rectangle_747" data-name="Rectangle 747" height="2.028" transform="translate(10.794 15.405)" fill="#fff"/>
          <path id="Path_42303" data-name="Path 42303" d="M212.368,63.574l-.565-1.947h0Z" transform="translate(-195.838 -52.67)" fill="url(#linear-gradient-165)"/>
          <path id="Path_42304" data-name="Path 42304" d="M212.368,63.574l-.565-1.947h0Z" transform="translate(-195.838 -52.67)" fill="url(#linear-gradient-166)"/>
          <path id="Path_42305" data-name="Path 42305" d="M203.361,88.316h0Z" transform="translate(-189.613 -72.352)" fill="#fff"/>
          <path id="Path_42306" data-name="Path 42306" d="M203.361,88.316h0Z" transform="translate(-189.613 -72.352)" fill="#fff"/>
          <path id="Path_42307" data-name="Path 42307" d="M208.242,57.184,206.975,55.6h0Z" transform="translate(-192.277 -48.227)" fill="url(#linear-gradient-167)"/>
          <path id="Path_42308" data-name="Path 42308" d="M208.242,57.184,206.975,55.6h0Z" transform="translate(-192.277 -48.227)" fill="url(#linear-gradient-168)"/>
          <path id="Path_42309" data-name="Path 42309" d="M211.8,61.627Z" transform="translate(-195.838 -52.67)" fill="#fff"/>
          <path id="Path_42310" data-name="Path 42310" d="M211.8,61.627Z" transform="translate(-195.838 -52.67)" fill="#fff"/>
        </g>
        <path id="Path_42311" data-name="Path 42311" d="M185.766,56.662l-.713-1.723h0l-1.319-1.318h0l-1.722-.712h-1.863l-1.723.713-1.318,1.318-.713,1.723v1.864l.234.566,9.137-1.816Z" transform="translate(-169.717 -46.231)" opacity="0.8" fill="url(#linear-gradient-169)" style="mix-blend-mode: screen;isolation: isolate"/>
      </g>
    </g>
    <g id="Group_37376" data-name="Group 37376" transform="translate(11.238 11.152)" opacity="0.82" style="mix-blend-mode: multiply;isolation: isolate">
      <path id="Path_40553" data-name="Path 40553" d="M211.915,255v5.933H211V255Z" transform="translate(-206.294 -249.313)" fill="url(#linear-gradient-170)"/>
      <path id="Path_40554" data-name="Path 40554" d="M317.892,129v5.933H317V129Z" transform="translate(-309.93 -126.123)" fill="url(#linear-gradient-170)"/>
      <path id="Path_40555" data-name="Path 40555" d="M423.892,0V5.933H423V0Z" transform="translate(-413.566)" fill="url(#linear-gradient-170)"/>
      <path id="Path_40556" data-name="Path 40556" d="M106.892,129v5.933H106V129Z" transform="translate(-103.636 -126.123)" fill="url(#linear-gradient-170)"/>
      <path id="Path_40557" data-name="Path 40557" d="M.892,0V5.933H0V0Z" fill="url(#linear-gradient-170)"/>
    </g>
    <path id="Path_42405" data-name="Path 42405" d="M2070.223,1567.391l.054.412-.376.178.41.075.052.413.2-.365.409.076-.287-.3.2-.365-.375.179-.286-.3Zm-5.64,13.027H2065l.128.4.128-.4h.416l-.337-.244.13-.4-.337.244-.335-.246.129.4-.337.243Zm-.5-2.766h0l.4.107.02.416.227-.349.4.109-.262-.323.228-.348-.388.149-.26-.324.021.416-.389.147Zm.23-2.8h0l.36.208-.088.407.309-.279.359.209-.169-.38.31-.277-.413.043-.168-.381-.087.407-.414.042Zm.948-2.647h0l.294.294-.19.37.37-.189.294.3-.066-.411.371-.187-.411-.065-.064-.411-.189.37-.41-.067Zm1.6-2.312h0l.208.36-.28.308.407-.086.206.361.044-.414.407-.085-.379-.169.045-.414-.279.309-.379-.171Zm4.686-3.021h0v.416l-.4.127.4.128v.416l.244-.336.4.13-.245-.336.246-.336-.4.129-.243-.337Zm2.766-.5h0l-.108.4-.416.02.349.227-.109.4.323-.262.348.228-.149-.388.324-.26-.415.021-.148-.388Zm2.8.23h0l-.208.36-.406-.088.278.309-.209.359.38-.169.277.31-.043-.414.381-.167-.407-.086-.042-.414Zm2.648.947h0l-.294.294-.37-.191.189.37-.3.293.41-.065.188.372.065-.411.411-.064-.37-.188.067-.411Zm2.312,1.6h0l-.36.208-.308-.28.086.407-.361.206.414.044.084.407.169-.38.414.045-.309-.278.17-.379Zm1.819,2.144h0l-.4.107-.225-.349-.022.416-.4.106.389.149-.024.416.262-.323.388.15-.227-.348.263-.323Zm1.2,2.542h-.416l-.127-.4-.128.4H2084l.336.245-.13.4.336-.245.335.246-.128-.4.337-.243Zm.5,2.766h0l-.4-.108-.02-.416-.227.349-.4-.109.262.323-.228.348.388-.149.26.324-.022-.415.389-.148Zm-.23,2.8h0l-.36-.208.088-.406-.309.278-.359-.209.169.38-.311.277.414-.043.168.38.086-.407.414-.042Zm-.947,2.647h0l-.294-.294.191-.369-.371.189-.293-.3.065.411-.372.187.411.065.063.411.189-.371.41.066Zm-1.6,2.312h0l-.208-.361.279-.308-.406.087-.207-.361-.043.414-.407.085.38.169-.045.414.279-.309.379.17Zm-2.144,1.819h0l-.108-.4.35-.225-.416-.022-.106-.4-.149.389-.415-.024.323.262-.15.388.348-.227.323.263Zm-2.542,1.2h0v-.416l.4-.126-.4-.129v-.416l-.244.336-.4-.13.244.336-.246.336.4-.128.244.337Zm-2.766.5h0l.107-.4.416-.02-.349-.227.109-.4-.323.262-.348-.228.149.389-.324.261.416-.022.147.389Zm-2.8-.23h0l.208-.361.407.088-.278-.309.209-.36-.38.169-.277-.31.044.414-.381.168.407.086.042.414Zm-2.647-.947h0l.293-.294.37.19-.189-.371.3-.293-.411.065-.188-.372-.065.411-.411.063.37.189-.066.411Zm-2.312-1.6h0l.36-.208.308.28-.086-.407.361-.207-.414-.043-.085-.407-.169.38-.413-.046.309.278-.17.38Zm-1.819-2.144h0l.4-.108.225.35.022-.416.4-.106-.388-.149.023-.415-.262.323-.387-.151.227.349-.263.322Zm-1.542-3.9h0l.412.053.075.409.178-.375.412.055-.3-.286.18-.375-.365.2-.3-.288.076.41-.366.2Zm-.141-2.808h0l.4-.1.032-.415.216.356.4-.1-.271.316.218.354-.384-.16-.27.317.033-.415-.384-.159Zm.591-2.749h0l.416.012.139-.393.116.4.416.01-.343.235.118.4-.329-.254-.342.236.14-.392-.33-.253Zm1.282-2.5h0l.4.119.235-.343.01.416.4.117-.392.138.011.416-.253-.331-.392.139.237-.342-.254-.329Zm1.886-2.085h0l.354.218.316-.271-.1.4.355.217-.415.031-.1.4-.158-.385-.415.033.317-.269-.16-.384Zm5.038-2.389h0l-.054.413-.409.074.376.179-.055.412.286-.3.375.18-.2-.365.287-.3-.409.076-.2-.366Zm2.807-.14h0l.1.405.415.032-.355.217.1.4-.316-.271-.354.218.16-.384-.317-.27.415.034.158-.385Zm2.749.591h0l-.012.416.393.138-.4.117-.01.416-.235-.343-.4.119.254-.33-.236-.343.391.14.253-.33Zm2.5,1.282h0l-.119.4.343.235-.416.01-.117.4-.138-.392-.416.011.331-.252-.139-.392.342.237.329-.254Zm2.085,1.886h0l-.218.354.271.316-.4-.1-.217.355-.032-.415-.4-.1.385-.158-.033-.415.269.317.384-.16Zm1.526,2.362h0l-.413.055-.178-.376-.076.409-.412.053.365.2-.077.409.3-.287.365.2-.179-.375.3-.286Zm.862,2.676h0l-.412-.054-.075-.409-.178.376-.412-.055.3.286-.179.375.365-.2.3.287-.076-.409.366-.2Zm.141,2.808h0l-.4.1-.032.414-.216-.355-.4.1.271-.316-.218-.354.384.16.27-.317-.033.415.384.159Zm-.591,2.749h0l-.416-.012-.138.392-.117-.4-.416-.011.344-.235-.119-.4.329.254.343-.236-.14.391.33.253Zm-1.282,2.5h0l-.4-.119-.235.343-.01-.416-.4-.117.393-.138-.011-.416.253.331.391-.139-.236.342.253.33Zm-1.886,2.085h0l-.354-.218-.315.271.1-.4-.354-.217.414-.032.1-.4.158.385.415-.033-.317.269.16.384Zm-2.361,1.526h0l-.055-.412.376-.178-.409-.075-.053-.412-.2.366-.408-.077.287.3-.2.365.375-.18.285.3Zm-2.677.863h0l.054-.413.409-.075-.375-.178.055-.413-.286.3-.375-.18.2.365-.287.3.409-.076.2.366Zm-2.808.14h0l-.1-.4-.415-.032.355-.217-.1-.4.315.271.355-.218-.161.384.317.27-.414-.034-.159.384Zm-2.749-.591h0l.012-.416-.393-.138.4-.117.01-.416.234.344.4-.119-.254.329.236.343-.392-.14-.253.33Zm-2.5-1.282h0l.119-.4-.343-.235.415-.01.118-.4.138.392.416-.011-.331.253.14.392-.342-.237-.33.254Zm-2.085-1.886h0l.218-.354-.271-.316.4.1.217-.355.032.415.4.1-.384.158.033.415-.27-.317-.384.159Zm-1.526-2.361h0l.412-.055.178.376.075-.409.412-.053-.366-.2.077-.408-.3.286-.365-.2.18.375-.3.285Zm3.9-13.667h0l.108.4-.35.225.416.022.106.4.149-.389.416.024-.323-.262.15-.387-.349.226Z" transform="translate(-2058.58 -1560.867)" fillRule="evenodd" fill="url(#linear-gradient-175)"/>
  </g>
</svg>
