<svg xmlns="http://www.w3.org/2000/svg" width="139.5" height="139.5" viewBox="0 0 139.5 139.5">
  <g id="authentication" transform="translate(-0.001 0)">
    <path id="Path_42440" data-name="Path 42440" d="M144.281,136.266h4.368v4.1h-4.368Zm0,0" transform="translate(-104.97 -99.139)" fill="#dbdbdb"/>
    <path id="Path_42441" data-name="Path 42441" d="M176.344,136.266h4.368v4.1h-4.368Zm0,0" transform="translate(-128.297 -99.139)" fill="#dbdbdb"/>
    <path id="Path_42442" data-name="Path 42442" d="M208.406,136.266h4.368v4.1h-4.368Zm0,0" transform="translate(-151.623 -99.139)" fill="#dbdbdb"/>
    <path id="Path_42443" data-name="Path 42443" d="M240.469,136.266h4.368v4.1h-4.368Zm0,0" transform="translate(-174.95 -99.139)" fill="#dbdbdb"/>
    <path id="Path_42444" data-name="Path 42444" d="M4.1,17.2H104.83V41.222h4.1V0H0V91.453H41.5v-4.1H4.1ZM43.407,4.1H104.83V13.1H43.407ZM4.1,4.1H39.311V13.1H4.1Zm0,0" fill="#dbdbdb"/>
    <path id="Path_42445" data-name="Path 42445" d="M40.078,24.047h4.368v4.1H40.078Zm0,0" transform="translate(-29.158 -17.495)" fill="#dbdbdb"/>
    <path id="Path_42446" data-name="Path 42446" d="M72.141,24.047h4.368v4.1H72.141Zm0,0" transform="translate(-52.485 -17.495)" fill="#dbdbdb"/>
    <path id="Path_42447" data-name="Path 42447" d="M104.2,24.047h4.368v4.1H104.2Zm0,0" transform="translate(-75.811 -17.495)" fill="#dbdbdb"/>
    <path id="Path_42448" data-name="Path 42448" d="M189.8,204.665v-8.736h-2.184v-31.7l-9.8-9.8h-5.489v-26.48a6.192,6.192,0,0,0-6.279-6.279h-24.3V104.2H72.14V125.77h58.967v-4.1H76.236V108.3h61.423v13.576a6.533,6.533,0,0,0-4.368,6.079v52.415a6.659,6.659,0,0,0,6.552,6.552H155.13v-4.1H139.843a2.563,2.563,0,0,1-2.456-2.456V127.954a2.332,2.332,0,0,1,2.456-2.184h2.893l1.468,4.405a3.136,3.136,0,0,0,2.979,2.147h11.53a3.135,3.135,0,0,0,2.978-2.147l1.469-4.405h2.892a2.1,2.1,0,0,1,2.184,2.184v39.583H159.5v18.047l8.736,8.736v1.608H166.05v8.736h-2.184v10.647h4.1V208.76h19.928v6.552h4.1V204.665Zm-31.778-76.438H147.871l-.82-2.456h11.79Zm5.571,55.662V171.633h4.64v8.736h4.1V158.529h3.793l7.4,7.4v30H172.329v-3.3Zm22.112,20.776h-15.56v-4.64h15.56Zm0,0" transform="translate(-52.484 -75.812)" fill="#dbdbdb"/>
    <path id="Path_42449" data-name="Path 42449" d="M328.641,232.453h13.1v4.1h-13.1Zm0,0" transform="translate(-239.099 -169.119)" fill="#dbdbdb"/>
    <path id="Path_42450" data-name="Path 42450" d="M328.641,264.516H350.48v4.1H328.641Zm0,0" transform="translate(-239.099 -192.446)" fill="#dbdbdb"/>
    <path id="Path_42451" data-name="Path 42451" d="M204.9,332.618v4.842h4.1v-4.842a6.242,6.242,0,0,0,4.436-6.078,6.394,6.394,0,0,0-6.382-6.416,6.425,6.425,0,0,0-2.15,12.494Zm2.184-8.4a2.32,2.32,0,1,1-2.32,2.32A2.323,2.323,0,0,1,207.079,324.22Zm0,0" transform="translate(-145.928 -232.903)" fill="#dbdbdb"/>
    <path id="Path_42452" data-name="Path 42452" d="M192.079,244.564a4.006,4.006,0,0,0-4.1-4.1h-8.736a4.241,4.241,0,0,0-4.368,4.1v11.192h-6.552v30.3h30.3v-30.3h-6.552Zm-13.1,0c0-.076.2,0,.272,0h8.736v11.192h-9.008Zm15.56,15.288v22.112H172.423V259.852Zm0,0" transform="translate(-122.465 -174.95)" fill="#dbdbdb"/>
    <path id="Path_42453" data-name="Path 42453" d="M72.141,200.391h13.1v4.1h-13.1Zm0,0" transform="translate(-52.485 -145.792)" fill="#dbdbdb"/>
    <path id="Path_42454" data-name="Path 42454" d="M72.141,232.453H93.98v4.1H72.141Zm0,0" transform="translate(-52.485 -169.119)" fill="#dbdbdb"/>
  </g>
</svg>
