<svg xmlns="http://www.w3.org/2000/svg" xmlns:xlink="http://www.w3.org/1999/xlink" width="67.316" height="67.316" viewBox="0 0 67.316 67.316">
  <defs>
    <linearGradient id="linear-gradient" x1="0.5" x2="0.5" y2="1" gradientUnits="objectBoundingBox">
      <stop offset="0" stop-color="#90c"/>
      <stop offset="1" stop-color="#57b3ff"/>
    </linearGradient>
  </defs>
  <g id="Group_37702" data-name="Group 37702" transform="translate(-730.374 -464.48)">
    <ellipse id="Ellipse_293" data-name="Ellipse 293" cx="33.658" cy="33.658" rx="33.658" ry="33.658" transform="translate(730.374 464.48)" fill="#e4e4e4"/>
    <path id="Intersection_1" data-name="Intersection 1" d="M-4898.617,403.289l-6.559-6.262a2.281,2.281,0,0,1-.681-2.009l2.479-16.112h-5.35a8.218,8.218,0,0,0-8.208,8.21v10.912a33.852,33.852,0,0,1-4.586-3.957v-6.956a12.808,12.808,0,0,1,12.795-12.8h8.025a2.3,2.3,0,0,1,1.741.8,2.29,2.29,0,0,1,.523,1.841l-2.708,17.573,4.109,3.923,4.114-3.923-2.71-17.573a2.292,2.292,0,0,1,.523-1.841,2.3,2.3,0,0,1,1.741-.8h8.027a12.806,12.806,0,0,1,12.793,12.8v6.3a33.862,33.862,0,0,1-4.586,4.157V387.115a8.22,8.22,0,0,0-8.207-8.21h-5.351l2.482,16.112a2.3,2.3,0,0,1-.685,2.009l-6.559,6.262a2.287,2.287,0,0,1-1.583.633A2.284,2.284,0,0,1-4898.617,403.289Zm-12.377-45.023a13.973,13.973,0,0,1,13.959-13.959,13.973,13.973,0,0,1,13.96,13.959,13.974,13.974,0,0,1-13.96,13.96A13.974,13.974,0,0,1-4910.995,358.265Zm4.586,0a9.383,9.383,0,0,0,9.373,9.374,9.383,9.383,0,0,0,9.375-9.374,9.383,9.383,0,0,0-9.375-9.373A9.383,9.383,0,0,0-4906.408,358.265Z" transform="translate(5661.374 127.48)" fill="url(#linear-gradient)"/>
  </g>
</svg>
