<svg id="cloud-download" xmlns="http://www.w3.org/2000/svg" width="19.398" height="15.242" viewBox="0 0 19.398 15.242">
  <path id="XMLID_98_" d="M17.915,9.742A6.233,6.233,0,0,0,5.722,8.469a5.539,5.539,0,0,0,1.82,10.772h9.006a4.848,4.848,0,0,0,1.366-9.5Zm-1.366,8.114H7.542a4.154,4.154,0,0,1-1.069-8.17.694.694,0,0,0,.5-.518A4.846,4.846,0,0,1,16.546,10.3a.692.692,0,0,0,.578.683,3.462,3.462,0,0,1-.576,6.876Z" transform="translate(-2 -4)"/>
  <path id="XMLID_104_" d="M17.725,14.36a.692.692,0,0,1,0,.98l-2.771,2.771a.692.692,0,0,1-.98,0L11.2,15.339a.693.693,0,1,1,.98-.98l1.589,1.589V10.693a.693.693,0,1,1,1.386,0v5.256l1.589-1.589a.692.692,0,0,1,.98,0Z" transform="translate(-4.765 -5.843)"/>
</svg>
