<svg xmlns="http://www.w3.org/2000/svg" width="20" height="20.025" viewBox="0 0 20 20.025">
  <g id="refresh" transform="translate(-2 0.025)">
    <path id="Path_357" data-name="Path 357" d="M4,9.1A8.043,8.043,0,0,1,6.3,4.3,8.275,8.275,0,0,1,12,2a8.459,8.459,0,0,1,5.7,2.3L16,6h5V1L19.1,2.9a10.08,10.08,0,0,0-14.2,0A10.312,10.312,0,0,0,2,8.9V10H4V9.1Z"/>
    <path id="Path_358" data-name="Path 358" d="M20,10a8.1,8.1,0,0,1-2.3,5.7,8.213,8.213,0,0,1-11.4,0L8,14H3v5l1.9-1.9A9.9,9.9,0,0,0,12,20a9.9,9.9,0,0,0,7.1-2.9A10.068,10.068,0,0,0,22,10Z"/>
  </g>
</svg>
