<svg xmlns="http://www.w3.org/2000/svg" width="28.416" height="28.416" viewBox="0 0 28.416 28.416">
  <path id="Path_332_-_Outline" data-name="Path 332 - Outline" d="M19.709,5.5a3.242,3.242,0,0,1,1.048,6.309v.9a7.008,7.008,0,0,1,3.159,1.312l.636-.636a3.254,3.254,0,0,1,.618-3.72,3.241,3.241,0,1,1,.864,5.2L25.4,15.5a7.008,7.008,0,0,1,1.312,3.159h.9a3.242,3.242,0,1,1,0,2.1h-.9A7.008,7.008,0,0,1,25.4,23.916l.635.635a3.243,3.243,0,1,1-1.482,1.483l-.636-.636a7.008,7.008,0,0,1-3.159,1.312v.9a3.242,3.242,0,1,1-2.1,0v-.9A7.008,7.008,0,0,1,15.5,25.4l-.636.636a3.255,3.255,0,0,1-.618,3.72,3.241,3.241,0,1,1-.864-5.2l.635-.635a7.008,7.008,0,0,1-1.312-3.159h-.9a3.242,3.242,0,1,1,0-2.1h.9A7.008,7.008,0,0,1,14.019,15.5l-.635-.635a3.243,3.243,0,1,1,1.482-1.483l.636.636a7.008,7.008,0,0,1,3.159-1.312v-.9A3.242,3.242,0,0,1,19.709,5.5Zm4.274,9.865-.351-.3a6.029,6.029,0,0,0-3.416-1.418l-.459-.038V11.02l.4-.082a2.242,2.242,0,1,0-.9,0l.4.082v2.592l-.459.038a6.029,6.029,0,0,0-3.416,1.418l-.351.3L13.6,13.53l.225-.341a2.242,2.242,0,0,0-3.455-2.821,2.242,2.242,0,0,0,2.821,3.456l.341-.226,1.835,1.835-.3.351A6.029,6.029,0,0,0,13.65,19.2l-.038.459H11.021l-.082-.4a2.242,2.242,0,1,0,0,.9l.082-.4h2.592l.038.459a6.029,6.029,0,0,0,1.418,3.416l.3.351-1.835,1.835-.341-.226a2.243,2.243,0,1,0,.635.635l-.225-.341,1.835-1.835.351.3A6.03,6.03,0,0,0,19.2,25.766l.459.038V28.4l-.4.082a2.242,2.242,0,1,0,.9,0l-.4-.082V25.8l.459-.038a6.029,6.029,0,0,0,3.416-1.418l.351-.3,1.835,1.835-.225.341a2.239,2.239,0,1,0,.635-.635l-.341.226-1.835-1.835.3-.351a6.029,6.029,0,0,0,1.418-3.416l.038-.459H28.4l.082.4a2.242,2.242,0,1,0,0-.9l-.082.4H25.805l-.038-.459a6.03,6.03,0,0,0-1.418-3.416l-.3-.351L25.887,13.6l.341.226a2.243,2.243,0,1,0-.635-.635l.225.341ZM19.709,6.6a2.145,2.145,0,1,1-2.145,2.145A2.147,2.147,0,0,1,19.709,6.6Zm0,3.29a1.145,1.145,0,1,0-1.145-1.145A1.146,1.146,0,0,0,19.709,9.887Zm7.754-.078a2.144,2.144,0,1,1-1.517.629A2.131,2.131,0,0,1,27.463,9.808Zm0,3.291a1.144,1.144,0,1,0-.81-.336A1.138,1.138,0,0,0,27.463,13.1ZM11.955,9.808a2.144,2.144,0,1,1-1.517.629A2.131,2.131,0,0,1,11.955,9.808Zm0,3.291a1.144,1.144,0,1,0-.81-.336A1.138,1.138,0,0,0,11.955,13.1Zm7.754.626a5.983,5.983,0,1,1-5.983,5.983A5.99,5.99,0,0,1,19.709,13.725Zm0,10.966a4.983,4.983,0,1,0-4.983-4.983A4.989,4.989,0,0,0,19.709,24.691ZM8.743,17.563A2.145,2.145,0,1,1,6.6,19.708,2.147,2.147,0,0,1,8.743,17.563Zm0,3.29A1.145,1.145,0,1,0,7.6,19.708,1.146,1.146,0,0,0,8.743,20.853Zm21.933-3.29a2.145,2.145,0,1,1-2.145,2.145A2.147,2.147,0,0,1,30.675,17.563Zm0,3.29a1.145,1.145,0,1,0-1.145-1.145A1.146,1.146,0,0,0,30.675,20.853ZM11.955,25.317a2.144,2.144,0,1,1-1.517.629A2.131,2.131,0,0,1,11.955,25.317Zm0,3.291a1.144,1.144,0,1,0-.81-.336A1.138,1.138,0,0,0,11.954,28.608Zm15.509-3.29a2.145,2.145,0,1,1-1.517.628A2.131,2.131,0,0,1,27.463,25.317Zm0,3.29a1.145,1.145,0,1,0-.81-.336A1.138,1.138,0,0,0,27.463,28.608Zm-7.754-.078a2.145,2.145,0,1,1-2.145,2.145A2.147,2.147,0,0,1,19.709,28.529Zm0,3.29a1.145,1.145,0,1,0-1.145-1.145A1.146,1.146,0,0,0,19.709,31.819Z" transform="translate(-5.501 -5.5)"/>
</svg>
