<svg xmlns="http://www.w3.org/2000/svg" width="25.84" height="25.844" viewBox="0 0 25.84 25.844">
  <path id="_001-wallet-passes-app" data-name="001-wallet-passes-app" d="M24.868,7.12a1.009,1.009,0,0,0,1.009-1.009V5.051A5.056,5.056,0,0,0,20.827,0S5,0,4.965.007A5.153,5.153,0,0,0,1.432,1.591,4.975,4.975,0,0,0,.041,5.225c0,.026,0,14.559,0,14.559a6.067,6.067,0,0,0,6.06,6.06H20.827a5.056,5.056,0,0,0,5.051-5.051V13.13a5.056,5.056,0,0,0-5.051-5.051H5.084A3.022,3.022,0,0,1,2.06,5.2a2.975,2.975,0,0,1,.833-2.21,3.123,3.123,0,0,1,2.249-.962l15.685,0a3.035,3.035,0,0,1,3.032,3.032v1.06A1.01,1.01,0,0,0,24.868,7.12ZM5.084,10.1H20.827a3.035,3.035,0,0,1,3.032,3.032v7.664a3.035,3.035,0,0,1-3.032,3.032H6.1a4.046,4.046,0,0,1-4.041-4.041V9.092A5.034,5.034,0,0,0,5.084,10.1ZM21.84,16.961A1.262,1.262,0,1,1,20.578,15.7,1.262,1.262,0,0,1,21.84,16.961Zm0-11.911a1.009,1.009,0,0,0-1.009-1.009H5.085a1.009,1.009,0,0,0,0,2.019H20.831A1.009,1.009,0,0,0,21.84,5.051Z" transform="translate(-0.038 0)"/>
</svg>
