<svg xmlns="http://www.w3.org/2000/svg" xmlns:xlink="http://www.w3.org/1999/xlink" width="95" height="101.023" viewBox="0 0 95 101.023">
  <defs>
    <clipPath id="clip-path">
      <path id="Union_21" data-name="Union 21" d="M12.026,86.763A12.037,12.037,0,0,1,0,74.742V54A16.156,16.156,0,0,1,16.138,37.858H26.262a2.888,2.888,0,0,1,2.856,3.333L25.7,63.356,30.887,68.3l5.188-4.948L32.657,41.191a2.888,2.888,0,0,1,2.856-3.333H45.637A16.153,16.153,0,0,1,61.775,54V74.742A12.037,12.037,0,0,1,49.754,86.763ZM5.785,54V74.742a6.245,6.245,0,0,0,6.241,6.236H49.754a6.244,6.244,0,0,0,6.236-6.236V54A10.368,10.368,0,0,0,45.637,43.644H38.888l3.131,20.323a2.9,2.9,0,0,1-.863,2.534l-8.272,7.9a2.893,2.893,0,0,1-3.992,0l-8.272-7.9a2.882,2.882,0,0,1-.859-2.534l3.127-20.323H16.138A10.366,10.366,0,0,0,5.785,54Zm7.495-36.389A17.608,17.608,0,1,1,30.887,35.217,17.626,17.626,0,0,1,13.279,17.608Zm5.785,0A11.823,11.823,0,1,0,30.887,5.785,11.836,11.836,0,0,0,19.064,17.608Z" transform="translate(1065 181.26)" fill="#fff"/>
    </clipPath>
  </defs>
  <g id="Group_37514" data-name="Group 37514" transform="translate(-1048 -167)">
    <circle id="Ellipse_293" data-name="Ellipse 293" cx="47.5" cy="47.5" r="47.5" transform="translate(1048 167)" fill="#e4e4e4"/>
    <g id="Mask_Group_1" data-name="Mask Group 1" clip-path="url(#clip-path)">
      <circle id="Ellipse_292" data-name="Ellipse 292" cx="47.5" cy="47.5" r="47.5" transform="translate(1048 167)" fill="#fff"/>
    </g>
  </g>
</svg>
