<svg xmlns="http://www.w3.org/2000/svg" width="230.996" height="126.335" viewBox="0 0 230.996 126.335">
  <path id="Union_22" data-name="Union 22" d="M-16081.211-1075.666a9.55,9.55,0,0,1-9.621-9.474,9.552,9.552,0,0,1,9.621-9.476h70.586a9.555,9.555,0,0,1,9.621,9.476,9.553,9.553,0,0,1-9.621,9.474Zm-54.543-9.474v-6.318a15.942,15.942,0,0,0-16.039-15.792h-44.914a15.94,15.94,0,0,0-16.043,15.792v6.318a9.555,9.555,0,0,1-9.629,9.474,9.553,9.553,0,0,1-9.621-9.474v-6.318c0-19.167,15.82-34.743,35.293-34.743h44.914c19.465,0,35.289,15.576,35.289,34.743v6.318a9.551,9.551,0,0,1-9.625,9.474A9.556,9.556,0,0,1-16135.754-1085.139Zm54.543-41.061a9.55,9.55,0,0,1-9.621-9.474,9.552,9.552,0,0,1,9.621-9.476h70.586a9.555,9.555,0,0,1,9.621,9.476,9.553,9.553,0,0,1-9.621,9.474Zm-125.125-44.215c0-17.411,14.4-31.586,32.082-31.586s32.082,14.175,32.082,31.586-14.395,31.583-32.082,31.583S-16206.336-1153.007-16206.336-1170.415Zm19.25,0a12.756,12.756,0,0,0,12.832,12.631,12.754,12.754,0,0,0,12.832-12.631,12.756,12.756,0,0,0-12.832-12.636A12.759,12.759,0,0,0-16187.086-1170.415Zm105.875-6.318a9.55,9.55,0,0,1-9.621-9.474,9.552,9.552,0,0,1,9.621-9.476h70.586a9.555,9.555,0,0,1,9.621,9.476,9.553,9.553,0,0,1-9.621,9.474Z" transform="translate(16232 1202.001)" fill="#dbdbdb"/>
</svg>
