<svg id="Group_37634" data-name="Group 37634" xmlns="http://www.w3.org/2000/svg" xmlns:xlink="http://www.w3.org/1999/xlink" width="75.316" height="80.091" viewBox="0 0 75.316 80.091">
  <defs>
    <linearGradient id="linear-gradient" x1="0.5" x2="0.5" y2="1" gradientUnits="objectBoundingBox">
      <stop offset="0" stop-color="#90c"/>
      <stop offset="1" stop-color="#57b3ff"/>
    </linearGradient>
    <clipPath id="clip-path">
      <path id="Union_21" data-name="Union 21" d="M9.534,68.786A9.543,9.543,0,0,1,0,59.255V42.809a12.808,12.808,0,0,1,12.794-12.8H20.82a2.29,2.29,0,0,1,2.264,2.642L20.377,50.229l4.11,3.923L28.6,50.229l-2.71-17.573a2.29,2.29,0,0,1,2.264-2.642h8.026a12.806,12.806,0,0,1,12.794,12.8V59.255a9.543,9.543,0,0,1-9.531,9.53ZM4.586,42.809V59.255A4.951,4.951,0,0,0,9.534,64.2H39.445a4.951,4.951,0,0,0,4.944-4.944V42.809A8.22,8.22,0,0,0,36.181,34.6h-5.35l2.482,16.112a2.3,2.3,0,0,1-.684,2.009L26.07,58.983a2.294,2.294,0,0,1-3.165,0l-6.558-6.261a2.285,2.285,0,0,1-.681-2.009L18.145,34.6h-5.35A8.218,8.218,0,0,0,4.586,42.809ZM10.528,13.96A13.96,13.96,0,1,1,24.487,27.92,13.974,13.974,0,0,1,10.528,13.96Zm4.586,0a9.373,9.373,0,1,0,9.373-9.373A9.384,9.384,0,0,0,15.114,13.96Z" stroke="#161616" stroke-width="4" fill="url(#linear-gradient)"/>
    </clipPath>
  </defs>
  <g id="Ellipse_293" data-name="Ellipse 293" transform="translate(0 0)" fill="#e4e4e4" stroke="#161616" stroke-width="4">
    <ellipse cx="37.658" cy="37.658" rx="37.658" ry="37.658" stroke="none"/>
    <ellipse cx="37.658" cy="37.658" rx="35.658" ry="35.658" fill="none"/>
  </g>
  <g id="Mask_Group_1" data-name="Mask Group 1" transform="translate(13.478 11.306)" clip-path="url(#clip-path)">
    <g id="Ellipse_292" data-name="Ellipse 292" transform="translate(-13.478 -11.306)" stroke="#161616" stroke-width="4" fill="url(#linear-gradient)">
      <ellipse cx="37.658" cy="37.658" rx="37.658" ry="37.658" stroke="none"/>
      <ellipse cx="37.658" cy="37.658" rx="35.658" ry="35.658" fill="none"/>
    </g>
  </g>
</svg>
