<svg xmlns="http://www.w3.org/2000/svg" xmlns:xlink="http://www.w3.org/1999/xlink" width="111.693" height="116.613" viewBox="0 0 111.693 116.613">
  <defs>
    <linearGradient id="linear-gradient" x1="0.5" y1="1" x2="0.5" gradientUnits="objectBoundingBox">
      <stop offset="0" stop-color="#f4c761"/>
      <stop offset="0.28" stop-color="#a97f2c"/>
      <stop offset="0.36" stop-color="#230b0a"/>
      <stop offset="0.46" stop-color="#6d4c1e"/>
      <stop offset="0.51" stop-color="#1a0b05"/>
      <stop offset="0.53" stop-color="#f8f1de"/>
      <stop offset="0.86" stop-color="#f3e3c2"/>
      <stop offset="1" stop-color="#d0ab5b"/>
    </linearGradient>
    <linearGradient id="linear-gradient-2" x1="0.06" y1="0.91" x2="0.94" y2="0.09" gradientUnits="objectBoundingBox">
      <stop offset="0" stop-color="#482a0f"/>
      <stop offset="0.1" stop-color="#a77129"/>
      <stop offset="0.15" stop-color="#fff"/>
      <stop offset="0.22" stop-color="#da9e41"/>
      <stop offset="0.34" stop-color="#8e5923"/>
      <stop offset="0.5" stop-color="#d8a64d"/>
      <stop offset="0.66" stop-color="#f5e380"/>
      <stop offset="0.72" stop-color="#dac164"/>
      <stop offset="0.77" stop-color="#fff"/>
      <stop offset="0.83" stop-color="#a0752b"/>
      <stop offset="1" stop-color="#664219"/>
    </linearGradient>
    <linearGradient id="linear-gradient-3" x1="0.006" y1="0.797" x2="0.995" y2="0.203" xlink:href="#linear-gradient-2"/>
    <linearGradient id="linear-gradient-4" x1="0.5" y1="1.1" x2="0.5" y2="-0.115" gradientUnits="objectBoundingBox">
      <stop offset="0" stop-color="#dba73e"/>
      <stop offset="0.16" stop-color="#d89d3a"/>
      <stop offset="0.3" stop-color="#f5e380"/>
      <stop offset="0.39" stop-color="#d5b767"/>
      <stop offset="0.49" stop-color="#f4f3b8"/>
      <stop offset="0.56" stop-color="#f7ed9a"/>
      <stop offset="0.69" stop-color="#d5b767"/>
      <stop offset="0.85" stop-color="#d0ab5b"/>
      <stop offset="1" stop-color="#e0c77d"/>
    </linearGradient>
    <linearGradient id="linear-gradient-5" x1="0.5" y1="1.019" x2="0.5" y2="-0.019" xlink:href="#linear-gradient"/>
    <linearGradient id="linear-gradient-6" x1="0.328" y1="1.03" x2="0.672" y2="-0.03" xlink:href="#linear-gradient-2"/>
    <linearGradient id="linear-gradient-7" x1="1" y1="0.5" x2="0" y2="0.5" gradientUnits="objectBoundingBox">
      <stop offset="0" stop-color="#dba73e"/>
      <stop offset="0.16" stop-color="#d89d3a"/>
      <stop offset="0.54" stop-color="#f4f3b8"/>
      <stop offset="0.56" stop-color="#f7ed9a"/>
      <stop offset="0.69" stop-color="#d5b767"/>
      <stop offset="0.85" stop-color="#d0ab5b"/>
      <stop offset="1" stop-color="#e0c77d"/>
    </linearGradient>
    <radialGradient id="radial-gradient" cx="0.5" cy="0.5" r="0.567" gradientUnits="objectBoundingBox">
      <stop offset="0" stop-color="#fff"/>
      <stop offset="0.1" stop-color="#fff"/>
      <stop offset="0.58" stop-color="#f1f1f1"/>
      <stop offset="0.85" stop-color="#c8c0af"/>
      <stop offset="1" stop-color="#5b564e"/>
    </radialGradient>
    <radialGradient id="radial-gradient-2" cx="0.5" cy="1.31" r="1.694" gradientUnits="objectBoundingBox">
      <stop offset="0" stop-color="#fff"/>
      <stop offset="0.1" stop-color="#fff"/>
      <stop offset="0.58" stop-color="#f7f8f9"/>
      <stop offset="0.85" stop-color="#e1ded5"/>
      <stop offset="1" stop-color="#a9a8a4"/>
    </radialGradient>
    <radialGradient id="radial-gradient-3" cx="0.5" cy="0.5" r="0.831" gradientUnits="objectBoundingBox">
      <stop offset="0" stop-color="#fff"/>
      <stop offset="0.1" stop-color="#fff"/>
      <stop offset="0.58" stop-color="#f7f8f9"/>
      <stop offset="0.85" stop-color="#ded9cf"/>
      <stop offset="1" stop-color="#9e9d99"/>
    </radialGradient>
    <linearGradient id="linear-gradient-8" x1="0.5" x2="0.5" y2="1" gradientUnits="objectBoundingBox">
      <stop offset="0" stop-color="#0e6106"/>
      <stop offset="1" stop-color="#f4f4f4"/>
    </linearGradient>
    <linearGradient id="linear-gradient-13" x1="-0.699" y1="1.067" x2="1.278" y2="-0.184" gradientUnits="objectBoundingBox">
      <stop offset="0" stop-color="#154e0f"/>
      <stop offset="1" stop-color="#aedbaa"/>
    </linearGradient>
  </defs>
  <g id="Group_37556" data-name="Group 37556" transform="translate(-647.031 -949.937)">
    <g id="Group_37158" data-name="Group 37158" transform="translate(648 951)">
      <g id="Group_37156" data-name="Group 37156" transform="translate(0 0)">
        <path id="Path_41281" data-name="Path 41281" d="M1061.74,926.909c6.538.012,10.273,7.1,15.881,8.925s12.559-1.791,17.766,2.007c5.283,3.853,4.137,11.785,7.6,16.555s11.212,5.933,13.193,12.067c2.008,6.222-3.581,11.966-3.581,17.862s5.583,11.39,3.581,17.516c-2.032,6.214-9.93,7.576-13.4,12.347s-2.178,12.5-7.4,16.275c-5.3,3.833-12.486.292-18.094,2.115s-9.108,8.83-15.552,8.818c-6.539-.013-10.274-7.1-15.881-8.926s-12.558,1.791-17.765-2.007c-5.282-3.852-4.137-11.785-7.6-16.554s-11.212-5.934-13.192-12.067c-2.009-6.221,3.58-11.966,3.58-17.862s-5.583-11.39-3.58-17.516c2.031-6.215,9.93-7.576,13.4-12.347s2.178-12.5,7.4-16.276c5.3-3.833,12.486-.293,18.094-2.115s9.107-8.829,15.553-8.818" transform="translate(-1006.862 -926.909)" fill="none" stroke="#6a4d31" stroke-width="2.126" fillRule="evenodd"/>
        <path id="Path_41282" data-name="Path 41282" d="M1061.74,926.909c6.538.012,10.273,7.1,15.881,8.925s12.559-1.791,17.766,2.007c5.283,3.853,4.137,11.785,7.6,16.555s11.212,5.933,13.193,12.067c2.008,6.222-3.581,11.966-3.581,17.862s5.583,11.39,3.581,17.516c-2.032,6.214-9.93,7.576-13.4,12.347s-2.178,12.5-7.4,16.275c-5.3,3.833-12.486.292-18.094,2.115s-9.108,8.83-15.552,8.818c-6.539-.013-10.274-7.1-15.881-8.926s-12.558,1.791-17.765-2.007c-5.282-3.852-4.137-11.785-7.6-16.554s-11.212-5.934-13.192-12.067c-2.009-6.221,3.58-11.966,3.58-17.862s-5.583-11.39-3.58-17.516c2.031-6.215,9.93-7.576,13.4-12.347s2.178-12.5,7.4-16.276c5.3-3.833,12.486-.293,18.094-2.115S1055.295,926.9,1061.74,926.909Z" transform="translate(-1006.862 -926.909)" fillRule="evenodd" fill="url(#linear-gradient)"/>
      </g>
      <path id="Path_41283" data-name="Path 41283" d="M1099.478,960.693a49.286,49.286,0,1,1-67.034,19.1A49.287,49.287,0,0,1,1099.478,960.693Z" transform="translate(-1020.632 -946.515)" fillRule="evenodd" fill="url(#linear-gradient-2)"/>
      <path id="Path_41284" data-name="Path 41284" d="M1100.543,962.489a48.749,48.749,0,1,1-66.3,18.887A48.749,48.749,0,0,1,1100.543,962.489Z" transform="translate(-1021.958 -947.841)" fillRule="evenodd" fill="url(#linear-gradient-3)"/>
      <path id="Path_41285" data-name="Path 41285" d="M1093.23,966.368a46.172,46.172,0,1,1-55.11,35.025A46.173,46.173,0,0,1,1093.23,966.368Z" transform="translate(-1028.309 -954.192)" fillRule="evenodd" fill="url(#linear-gradient-4)"/>
      <path id="Path_41286" data-name="Path 41286" d="M1093.707,964.617a46.669,46.669,0,0,1,28.424,21.815h0A46.805,46.805,0,0,1,1105,1050.382h0a46.8,46.8,0,0,1-63.946-17.135h0a46.807,46.807,0,0,1,17.133-63.951h0a46.666,46.666,0,0,1,35.522-4.68Zm26.939,22.671h0a45.1,45.1,0,0,0-61.6-16.507v0a45.094,45.094,0,0,0-16.508,61.6v0a45.1,45.1,0,0,0,61.6,16.506h0a45.093,45.093,0,0,0,16.509-61.6Z" transform="translate(-1026.713 -952.597)" fillRule="evenodd" fill="url(#linear-gradient-5)"/>
      <path id="Path_41287" data-name="Path 41287" d="M1094.343,966.093l0-.013.088-.332a46.338,46.338,0,0,1,28.225,21.659h0a46.341,46.341,0,0,1,4.646,35.275v0a46.5,46.5,0,0,1-56.936,32.871h0a46.34,46.34,0,0,1-28.224-21.661h0a46.34,46.34,0,0,1-4.647-35.274h0a46.335,46.335,0,0,1,21.661-28.226h0a46.34,46.34,0,0,1,35.273-4.647l-.092.345Zm-.091.344h0a45.631,45.631,0,0,0-34.733,4.573h0a45.633,45.633,0,0,0-21.328,27.793h0a45.632,45.632,0,0,0,4.574,34.732v0a45.631,45.631,0,0,0,27.792,21.328h0a45.776,45.776,0,0,0,56.062-32.367h0a45.629,45.629,0,0,0-4.574-34.732h0A45.628,45.628,0,0,0,1094.251,966.437Z" transform="translate(-1027.526 -953.409)" fillRule="evenodd" fill="url(#linear-gradient-6)"/>
      <g id="Group_37157" data-name="Group 37157" transform="translate(7.452 10.006)">
        <path id="Path_41288" data-name="Path 41288" d="M1080.12,1056.071a47.237,47.237,0,1,0-47.425-47.237A47.423,47.423,0,0,0,1080.12,1056.071Z" transform="translate(-1032.695 -961.597)" fillRule="evenodd" fill="url(#linear-gradient-7)"/>
        <path id="Path_41289" data-name="Path 41289" d="M1083.174,1057.944a46.007,46.007,0,1,0-46.187-46.006A46.187,46.187,0,0,0,1083.174,1057.944Z" transform="translate(-1035.749 -964.681)" fillRule="evenodd" fill="url(#radial-gradient)"/>
        <path id="Path_41290" data-name="Path 41290" d="M1139.339,1004.815a42.605,42.605,0,0,0-78.766,0,144.556,144.556,0,0,0,78.766,0Z" transform="translate(-1052.531 -973.598)" fillRule="evenodd" fill="url(#radial-gradient-2)"/>
        <path id="Path_41291" data-name="Path 41291" d="M1086.229,1166.7a44.949,44.949,0,0,0,44.95-44.772c0-.5-.011-.987-.027-1.478a44.953,44.953,0,0,1-89.845,0c-.016.491-.027.983-.027,1.478A44.947,44.947,0,0,0,1086.229,1166.7Z" transform="translate(-1038.803 -1074.626)" fillRule="evenodd" fill="url(#radial-gradient-3)"/>
        <path id="Path_41292" data-name="Path 41292" d="M1086.159,1023.988c-2.31,2.441-3.531,3.568-4.6,8.454-3.413,2.244-4.694,5.882-4.886,9.745a19.154,19.154,0,0,1-1.511-5.651,20.008,20.008,0,0,1,1.76-10.616c3.728-1.863,5.035-2.336,9.232-1.932Zm1.794-1.119h0c2.565-2.42,5.436-4.042,8.2-4.078a34.1,34.1,0,0,0-5.417,5.126,4.068,4.068,0,0,0-2.786-1.048Zm-4.889,9.561h0a8.458,8.458,0,0,1,4.015-1.281c.8-3.257,1.842-5.331,3.162-6.324a4.226,4.226,0,0,0-3.061-.744c-1.241.28-5.946,7.888-4.116,8.349Zm10.108-18.493h0a21.3,21.3,0,0,0-15.24,10.329c1.981-.486,4.32-3.244,9.06-1.554.2-.119-.01-.065.237-.133,2.14-3.31,6.417-3.813,7.955-4.6,1.872-.548.413-3.235.574-3.822C1096.452,1013.49,1093.337,1013.785,1093.172,1013.937Z" transform="translate(-1062.83 -998.698)" fill="#fff" fillRule="evenodd"/>
        <path id="Path_41293" data-name="Path 41293" d="M1258.757,1138.254c2.31-2.442,3.531-3.57,4.6-8.455,3.412-2.244,4.692-5.882,4.885-9.744a19.124,19.124,0,0,1,1.511,5.651,20.012,20.012,0,0,1-1.76,10.616c-3.727,1.862-5.034,2.334-9.232,1.932Zm-1.794,1.118h0c-2.566,2.42-5.436,4.042-8.2,4.078a34.161,34.161,0,0,0,5.416-5.126,4.069,4.069,0,0,0,2.786,1.049Zm4.889-9.561h0a8.455,8.455,0,0,1-4.015,1.281c-.8,3.257-1.842,5.33-3.163,6.324a4.222,4.222,0,0,0,3.062.743c1.241-.28,5.946-7.888,4.116-8.348Zm-10.109,18.493h0a21.3,21.3,0,0,0,15.24-10.328c-1.981.486-4.32,3.244-9.06,1.554-.2.119.01.064-.237.132-2.139,3.31-6.417,3.814-7.954,4.6-1.873.546-.414,3.235-.575,3.822C1248.463,1148.75,1251.578,1148.456,1251.744,1148.3Z" transform="translate(-1186.433 -1074.345)" fill="#fff" fillRule="evenodd"/>
      </g>
    </g>
    <g id="Group_37377" data-name="Group 37377" transform="translate(681.466 990.273)">
      <g id="Group_37371" data-name="Group 37371" transform="translate(0 0)">
        <path id="Path_40553" data-name="Path 40553" d="M214.657,255v23.724H211V255Z" transform="translate(-192.181 -232.257)" fill="url(#linear-gradient-8)"/>
        <path id="Path_40554" data-name="Path 40554" d="M320.568,129v23.724H317V129Z" transform="translate(-288.727 -117.495)" fill="url(#linear-gradient-8)"/>
        <path id="Path_40555" data-name="Path 40555" d="M426.568,0V23.724H423V0Z" transform="translate(-385.273)" fill="url(#linear-gradient-8)"/>
        <path id="Path_40556" data-name="Path 40556" d="M109.568,129v23.724H106V129Z" transform="translate(-96.546 -117.495)" fill="url(#linear-gradient-8)"/>
        <path id="Path_40557" data-name="Path 40557" d="M3.568,0V23.724H0V0Z" fill="url(#linear-gradient-8)"/>
      </g>
    </g>
    <path id="Path_42406" data-name="Path 42406" d="M2088.646,1570.463l.219,1.65-1.5.713,1.636.3.212,1.651.792-1.462,1.635.306-1.146-1.205.8-1.459-1.5.717-1.142-1.21Zm-22.553,52.092h1.663l.509,1.585.513-1.582,1.663.006-1.346-.978.521-1.579-1.346.976-1.342-.981.514,1.583-1.349.97Zm-2.013-11.061h0l1.607.431.081,1.661.906-1.394,1.6.436-1.047-1.292.912-1.393-1.554.6-1.041-1.3.087,1.66-1.556.591Zm.919-11.207h0l1.441.833-.353,1.626,1.236-1.114,1.437.837-.677-1.52,1.242-1.107-1.655.174-.671-1.522-.345,1.627-1.655.166Zm3.79-10.586h0l1.175,1.177-.76,1.478,1.481-.755,1.173,1.181-.261-1.643,1.485-.75-1.643-.259-.255-1.645-.755,1.482-1.641-.267Zm6.4-9.245h0l.832,1.44-1.119,1.233,1.627-.346.827,1.443.174-1.654,1.628-.338-1.52-.677.181-1.655-1.113,1.237-1.517-.683Zm18.737-12.081h0v1.664l-1.584.508,1.582.515-.005,1.662.977-1.345,1.58.52-.979-1.344.983-1.343-1.582.515-.973-1.35Zm11.062-2.008h0l-.432,1.606-1.661.08,1.394.906-.436,1.606,1.293-1.047,1.392.909-.6-1.552,1.3-1.041-1.661.087-.59-1.554Zm11.2.919h0l-.832,1.44-1.626-.353,1.113,1.236-.836,1.437,1.52-.676,1.108,1.241-.173-1.656,1.521-.671-1.626-.344-.169-1.655Zm10.586,3.788h0l-1.175,1.177-1.48-.761.756,1.482-1.181,1.172,1.644-.261.75,1.486.259-1.643,1.643-.255-1.48-.754.266-1.642Zm9.245,6.4h0l-1.44.832-1.232-1.118.346,1.626-1.444.826,1.655.175.339,1.628.677-1.52,1.653.181-1.236-1.112.682-1.518Zm7.273,8.573h0l-1.606.429-.9-1.4-.086,1.662-1.607.423,1.552.6-.094,1.662,1.047-1.293,1.55.6-.906-1.394,1.051-1.289Zm4.807,10.163h-1.662l-.509-1.583-.513,1.582-1.664-.006,1.346.978-.519,1.58,1.344-.978,1.342.983-.513-1.583,1.348-.973Zm2.013,11.062h0l-1.608-.43-.08-1.662-.906,1.4-1.6-.436,1.046,1.293-.911,1.391,1.553-.6,1.041,1.3-.087-1.66,1.556-.59Zm-.919,11.207h0l-1.441-.832.352-1.625-1.235,1.112-1.438-.837.677,1.52-1.241,1.108,1.655-.174.671,1.521.346-1.627,1.655-.166Zm-3.788,10.584h0l-1.176-1.175.761-1.478-1.482.754-1.172-1.18.262,1.644-1.486.75,1.644.258.254,1.645.754-1.482,1.642.266Zm-6.4,9.246h0l-.831-1.442,1.117-1.232-1.626.346-.827-1.443-.174,1.654-1.627.34,1.52.676-.181,1.655,1.113-1.236,1.516.682Zm-8.574,7.273h0l-.43-1.607,1.4-.9-1.661-.086-.424-1.61-.6,1.554-1.66-.094,1.292,1.047-.6,1.55,1.393-.905,1.29,1.052Zm-10.165,4.805h0v-1.664l1.584-.507-1.582-.514.006-1.662-.978,1.344-1.58-.519.978,1.344-.982,1.344,1.582-.514.973,1.348Zm-11.062,2.013h0l.429-1.607,1.663-.079-1.4-.907.438-1.6-1.294,1.047-1.391-.911.6,1.553-1.3,1.043,1.661-.088.591,1.555ZM2098,1651.48h0l.832-1.441,1.626.352-1.113-1.235.837-1.438-1.52.676-1.108-1.239.174,1.654-1.521.671,1.627.344.166,1.656Zm-10.584-3.788h0l1.174-1.176,1.479.761-.755-1.483,1.181-1.172-1.643.261-.75-1.486-.26,1.644-1.644.253,1.482.755-.265,1.642Zm-9.246-6.4h0l1.441-.832,1.231,1.118-.347-1.627,1.445-.826-1.654-.174-.339-1.628-.677,1.52-1.653-.182,1.236,1.114-.683,1.518Zm-7.273-8.573h0l1.607-.431.9,1.4.086-1.661,1.61-.425-1.553-.6.093-1.659-1.046,1.292-1.55-.6.905,1.4-1.052,1.288Zm-6.167-15.586h0l1.65.215.3,1.636.714-1.5,1.648.222-1.207-1.144.719-1.5-1.461.8-1.2-1.149.305,1.637-1.463.789Zm-.563-11.229h0l1.618-.385.129-1.657.866,1.421,1.616-.39-1.083,1.261.871,1.417-1.534-.641-1.079,1.266.134-1.657-1.537-.635Zm2.362-10.994h0l1.663.049.554-1.569.468,1.595,1.663.042-1.374.939.474,1.593-1.316-1.016-1.371.944.561-1.565-1.322-1.012Zm5.127-10.005h0l1.595.476.94-1.371.04,1.662,1.594.47-1.569.551.046,1.664-1.01-1.323-1.567.558.946-1.368-1.015-1.318Zm7.544-8.338h0l1.415.871,1.264-1.081-.393,1.616,1.419.868-1.659.126-.385,1.616-.632-1.538-1.658.132,1.268-1.075-.638-1.535Zm20.144-9.555h0l-.214,1.651-1.637.3,1.5.715-.222,1.648,1.144-1.209,1.5.722-.8-1.461,1.148-1.205-1.635.305-.791-1.465Zm11.229-.559h0l.383,1.619,1.659.128-1.42.866.39,1.618-1.261-1.083-1.417.87.64-1.536-1.266-1.078,1.658.134.635-1.537Zm10.991,2.364h0l-.048,1.662,1.569.553-1.6.47-.042,1.66-.938-1.373-1.594.475,1.017-1.317-.944-1.37,1.566.561,1.011-1.321Zm10.006,5.127h0l-.477,1.593,1.373.94-1.664.04-.47,1.595-.551-1.569-1.663.046,1.322-1.01-.558-1.567,1.369.946,1.318-1.013Zm8.337,7.541h0l-.871,1.418,1.082,1.262-1.617-.393-.867,1.419-.127-1.659-1.619-.387,1.539-.632-.131-1.658,1.076,1.269,1.535-.639Zm6.1,9.443h0l-1.648.219-.712-1.5-.3,1.635-1.65.213,1.461.792-.307,1.635,1.206-1.146,1.458.8-.718-1.5,1.211-1.142Zm3.449,10.7h0l-1.648-.216-.3-1.636-.714,1.5-1.646-.222,1.206,1.144-.719,1.5,1.46-.8,1.2,1.149-.3-1.636,1.462-.789Zm.563,11.229h0l-1.617.385-.128,1.657-.866-1.42-1.616.391,1.083-1.263-.872-1.417,1.536.64,1.078-1.266-.134,1.658,1.536.635Zm-2.362,10.991h0L2146,1623.8l-.554,1.569-.467-1.6-1.664-.043,1.373-.939-.473-1.593,1.316,1.015,1.37-.943-.56,1.566,1.32,1.011Zm-5.126,10.007h0l-1.593-.476-.941,1.372-.038-1.664-1.6-.47,1.57-.551-.045-1.664,1.009,1.323,1.567-.557-.947,1.368,1.014,1.319Zm-7.542,8.338h0l-1.417-.873-1.263,1.082.393-1.616-1.419-.866,1.659-.128.385-1.617.634,1.539,1.658-.131-1.269,1.075.64,1.537Zm-9.444,6.1h0l-.218-1.647,1.5-.713-1.636-.3-.212-1.649-.792,1.463-1.634-.309,1.147,1.206-.8,1.46,1.5-.719,1.141,1.209Zm-10.7,3.45h0l.215-1.65,1.637-.3-1.5-.714.223-1.649-1.145,1.208-1.5-.72.8,1.46-1.149,1.2,1.634-.3.791,1.464Zm-11.228.562h0l-.385-1.618-1.658-.129,1.42-.866-.39-1.617,1.262,1.084,1.418-.87-.641,1.534,1.266,1.079-1.658-.135-.634,1.536Zm-10.992-2.362h0l.049-1.663-1.57-.554,1.6-.467.042-1.663.939,1.373,1.594-.474-1.016,1.317.943,1.369-1.566-.56-1.012,1.321Zm-10.006-5.127h0l.477-1.593-1.372-.94,1.663-.04.471-1.595.551,1.57,1.662-.046-1.323,1.011.558,1.567-1.368-.947-1.319,1.014Zm-8.337-7.542h0l.874-1.416-1.083-1.264,1.617.394.868-1.42.125,1.659,1.618.385-1.538.633.132,1.658-1.077-1.269-1.536.638Zm-6.1-9.442h0l1.649-.219.712,1.5.3-1.636,1.649-.213-1.463-.792.308-1.634-1.2,1.146-1.46-.8.718,1.5-1.21,1.141Zm15.579-54.653h0l.43,1.606-1.4.9,1.662.088.424,1.608.6-1.553,1.661.093-1.292-1.046.6-1.551-1.395.905Z" transform="translate(-1404.604 -601.024)" fillRule="evenodd" fill="url(#linear-gradient-13)"/>
  </g>
</svg>
