<svg xmlns="http://www.w3.org/2000/svg" xmlns:xlink="http://www.w3.org/1999/xlink" width="109.755" height="109.755" viewBox="0 0 109.755 109.755">
  <defs>
    <linearGradient id="linear-gradient" x1="0.5" y1="1.171" x2="0.5" y2="-0.244" gradientUnits="objectBoundingBox">
      <stop offset="0" stop-color="#f4c761"/>
      <stop offset="0.28" stop-color="#a97f2c"/>
      <stop offset="0.36" stop-color="#230b0a"/>
      <stop offset="0.46" stop-color="#6d4c1e"/>
      <stop offset="0.51" stop-color="#1a0b05"/>
      <stop offset="0.53" stop-color="#f8f1de"/>
      <stop offset="0.86" stop-color="#f3e3c2"/>
      <stop offset="1" stop-color="#d0ab5b"/>
    </linearGradient>
    <linearGradient id="linear-gradient-2" x1="0.487" y1="-0.233" x2="0.512" y2="1.16" gradientUnits="objectBoundingBox">
      <stop offset="0" stop-color="#482a0f"/>
      <stop offset="0.1" stop-color="#a77129"/>
      <stop offset="0.22" stop-color="#da9e41"/>
      <stop offset="0.34" stop-color="#8e5923"/>
      <stop offset="0.5" stop-color="#d8a64d"/>
      <stop offset="0.66" stop-color="#f5e380"/>
      <stop offset="0.83" stop-color="#a0752b"/>
      <stop offset="1" stop-color="#664219"/>
    </linearGradient>
    <linearGradient id="linear-gradient-3" x1="0.5" y1="1.13" x2="0.5" y2="-0.13" xlink:href="#linear-gradient"/>
    <linearGradient id="linear-gradient-4" x1="0.048" y1="0.921" x2="0.952" y2="0.079" gradientUnits="objectBoundingBox">
      <stop offset="0" stop-color="#482a0f"/>
      <stop offset="0.1" stop-color="#a77129"/>
      <stop offset="0.15" stop-color="#fff"/>
      <stop offset="0.22" stop-color="#da9e41"/>
      <stop offset="0.34" stop-color="#8e5923"/>
      <stop offset="0.5" stop-color="#d8a64d"/>
      <stop offset="0.66" stop-color="#f5e380"/>
      <stop offset="0.72" stop-color="#dac164"/>
      <stop offset="0.77" stop-color="#fff"/>
      <stop offset="0.83" stop-color="#a0752b"/>
      <stop offset="1" stop-color="#664219"/>
    </linearGradient>
    <linearGradient id="linear-gradient-5" x1="-0.049" y1="0.83" x2="1.05" y2="0.17" xlink:href="#linear-gradient-4"/>
    <linearGradient id="linear-gradient-6" x1="0.327" y1="1.031" x2="0.673" y2="-0.031" xlink:href="#linear-gradient-4"/>
    <linearGradient id="linear-gradient-7" x1="0.5" y1="1.019" x2="0.5" y2="-0.019" xlink:href="#linear-gradient"/>
    <radialGradient id="radial-gradient" cx="0.5" cy="0.5" r="0.567" gradientUnits="objectBoundingBox">
      <stop offset="0" stop-color="#fff"/>
      <stop offset="0.1" stop-color="#fff"/>
      <stop offset="0.58" stop-color="#f1f1f1"/>
      <stop offset="0.85" stop-color="#c8c0af"/>
      <stop offset="1" stop-color="#5b564e"/>
    </radialGradient>
    <radialGradient id="radial-gradient-2" cx="0.5" cy="1.31" r="1.658" gradientUnits="objectBoundingBox">
      <stop offset="0" stop-color="#fff"/>
      <stop offset="0.1" stop-color="#fff"/>
      <stop offset="0.58" stop-color="#f7f8f9"/>
      <stop offset="0.85" stop-color="#e1ded5"/>
      <stop offset="1" stop-color="#a9a8a4"/>
    </radialGradient>
    <linearGradient id="linear-gradient-8" x1="0.5" x2="0.5" y2="1" gradientUnits="objectBoundingBox">
      <stop offset="0" stop-color="red"/>
      <stop offset="1" stop-color="#ffe0e0"/>
    </linearGradient>
    <linearGradient id="linear-gradient-13" x1="-0.699" y1="1.067" x2="1.278" y2="-0.184" gradientUnits="objectBoundingBox">
      <stop offset="0" stop-color="red"/>
      <stop offset="1" stop-color="#ffd1d1"/>
    </linearGradient>
  </defs>
  <g id="Group_37561" data-name="Group 37561" transform="translate(-648 -686)">
    <g id="Group_37311" data-name="Group 37311" transform="translate(648 686)">
      <ellipse id="Ellipse_280" data-name="Ellipse 280" cx="52.209" cy="52.209" rx="52.209" ry="52.209" transform="translate(0 104.274) rotate(-86.991)" fill="url(#linear-gradient)"/>
      <path id="Path_41532" data-name="Path 41532" d="M370.808,423.766a51.113,51.113,0,1,1,13.978-70.92A51.113,51.113,0,0,1,370.808,423.766Z" transform="translate(-287.46 -326.439)" fillRule="evenodd" fill="url(#linear-gradient-2)"/>
      <ellipse id="Ellipse_281" data-name="Ellipse 281" cx="50.059" cy="50.059" rx="50.059" ry="50.059" transform="translate(4.818 4.818)" fill="url(#linear-gradient-3)"/>
      <path id="Path_41533" data-name="Path 41533" d="M368.254,341.056a48.657,48.657,0,1,1-66.177,18.852A48.657,48.657,0,0,1,368.254,341.056Z" transform="translate(-289.714 -328.694)" fillRule="evenodd" fill="url(#linear-gradient-4)"/>
      <path id="Path_41534" data-name="Path 41534" d="M368.484,342.007a48.126,48.126,0,1,1-65.457,18.646A48.127,48.127,0,0,1,368.484,342.007Z" transform="translate(-290.202 -329.181)" fillRule="evenodd" fill="url(#linear-gradient-5)"/>
      <path id="Path_41535" data-name="Path 41535" d="M358.914,342.116l0-.012.088-.329a45.752,45.752,0,0,1,27.865,21.384h0a45.753,45.753,0,0,1,4.587,34.824v0a45.9,45.9,0,0,1-56.208,32.452h0a45.752,45.752,0,0,1-27.865-21.384h0a45.754,45.754,0,0,1-4.589-34.825h0a45.752,45.752,0,0,1,21.385-27.866h0A45.75,45.75,0,0,1,359,341.775l-.091.34v0Zm-.09.34h0a45.048,45.048,0,0,0-34.289,4.516h0a45.05,45.05,0,0,0-21.057,27.438h0a45.043,45.043,0,0,0,4.517,34.289v0a45.047,45.047,0,0,0,27.437,21.056h0A45.191,45.191,0,0,0,390.778,397.8v0a45.053,45.053,0,0,0-4.516-34.29h0A45.054,45.054,0,0,0,358.824,342.456Z" transform="translate(-292.251 -331.23)" fillRule="evenodd" fill="url(#linear-gradient-6)"/>
      <path id="Path_41536" data-name="Path 41536" d="M359.748,343.9a44.631,44.631,0,0,1,27.182,20.862h0a44.759,44.759,0,0,1-16.384,61.155h0a44.755,44.755,0,0,1-61.149-16.386h0a44.762,44.762,0,0,1,16.384-61.155h0a44.628,44.628,0,0,1,33.967-4.476Zm25.762,21.681h0a43.126,43.126,0,0,0-58.91-15.785v0a43.122,43.122,0,0,0-15.786,58.91v0a43.125,43.125,0,0,0,58.909,15.784h0a43.123,43.123,0,0,0,15.787-58.91Z" transform="translate(-293.285 -332.264)" fillRule="evenodd" fill="url(#linear-gradient-7)"/>
      <path id="Path_41537" data-name="Path 41537" d="M349.414,431.8a43.249,43.249,0,1,1,43.418-43.248A43.418,43.418,0,0,1,349.414,431.8Z" transform="translate(-294.537 -333.673)" fillRule="evenodd" fill="url(#radial-gradient)"/>
      <path id="Path_41538" data-name="Path 41538" d="M318.272,376.6a40.052,40.052,0,0,1,74.045,0,135.874,135.874,0,0,1-74.045,0Z" transform="translate(-300.417 -336.797)" fillRule="evenodd" fill="url(#radial-gradient-2)"/>
      <path id="Path_41539" data-name="Path 41539" d="M424.161,379.816c2.171,2.3,3.32,3.355,4.321,7.948,3.208,2.11,4.411,5.529,4.592,9.161a18.028,18.028,0,0,0,1.421-5.313,18.809,18.809,0,0,0-1.655-9.979c-3.5-1.751-4.733-2.2-8.678-1.816Zm-1.687-1.051h0c-2.412-2.275-5.109-3.8-7.71-3.833a32.079,32.079,0,0,1,5.092,4.819,3.82,3.82,0,0,1,2.618-.985Zm4.6,8.988h0a7.963,7.963,0,0,0-3.774-1.2c-.753-3.061-1.732-5.011-2.973-5.944a3.968,3.968,0,0,1,2.877-.7c1.167.263,5.59,7.415,3.87,7.848Zm-9.5-17.385h0a20.028,20.028,0,0,1,14.326,9.71c-1.862-.456-4.061-3.049-8.516-1.461-.188-.112.009-.06-.224-.123-2.011-3.111-6.032-3.585-7.478-4.324-1.76-.515-.389-3.041-.54-3.593C414.484,369.949,417.413,370.226,417.568,370.368Z" transform="translate(-346.63 -345.589)" fill="#fff" fillRule="evenodd"/>
      <path id="Path_41540" data-name="Path 41540" d="M334.8,442.622c-2.171-2.3-3.32-3.356-4.321-7.948-3.207-2.11-4.411-5.529-4.592-9.161a17.973,17.973,0,0,0-1.42,5.313,18.808,18.808,0,0,0,1.654,9.979c3.5,1.751,4.732,2.2,8.678,1.817Zm1.687,1.05h0c2.412,2.275,5.11,3.8,7.711,3.833a32.118,32.118,0,0,1-5.092-4.818,3.825,3.825,0,0,1-2.619.985Zm-4.6-8.988h0a7.945,7.945,0,0,0,3.774,1.205c.754,3.061,1.732,5.01,2.974,5.944a3.969,3.969,0,0,1-2.878.7c-1.167-.263-5.589-7.415-3.869-7.849Zm9.5,17.385h0a20.023,20.023,0,0,1-14.326-9.71c1.862.457,4.061,3.05,8.516,1.462.187.11-.009.06.223.124,2.011,3.111,6.032,3.585,7.478,4.325,1.76.514.388,3.04.54,3.593C344.48,452.488,341.55,452.212,341.4,452.068Z" transform="translate(-303.331 -372.089)" fill="#fff" fillRule="evenodd"/>
    </g>
    <g id="Group_37374" data-name="Group 37374" transform="translate(681.961 720.931)" opacity="0.39">
      <path id="Path_40553" data-name="Path 40553" d="M214.711,255v24.075H211V255Z" transform="translate(-191.903 -231.921)" fill="url(#linear-gradient-8)"/>
      <path id="Path_40554" data-name="Path 40554" d="M320.62,129v24.075H317V129Z" transform="translate(-288.31 -117.325)" fill="url(#linear-gradient-8)"/>
      <path id="Path_40555" data-name="Path 40555" d="M426.62,0V24.075H423V0Z" transform="translate(-384.716)" fill="url(#linear-gradient-8)"/>
      <path id="Path_40556" data-name="Path 40556" d="M109.62,129v24.075H106V129Z" transform="translate(-96.406 -117.325)" fill="url(#linear-gradient-8)"/>
      <path id="Path_40557" data-name="Path 40557" d="M3.62,0V24.075H0V0Z" fill="url(#linear-gradient-8)"/>
    </g>
    <path id="Path_42407" data-name="Path 42407" d="M2087.839,1570.329l.211,1.595-1.455.69,1.583.29.205,1.6.767-1.415,1.581.3-1.109-1.166.771-1.412-1.452.694-1.1-1.17Zm-21.813,50.381h1.608l.492,1.533.5-1.53,1.608.006-1.3-.946.5-1.528-1.3.945-1.3-.949.5,1.53-1.305.939Zm-1.946-10.7h0l1.554.416.077,1.606.876-1.348,1.553.422-1.013-1.249.882-1.348-1.5.577-1.007-1.253.085,1.606-1.5.572Zm.889-10.839h0l1.394.805-.34,1.573,1.195-1.077,1.389.81-.654-1.47,1.2-1.071-1.6.168-.649-1.473-.334,1.574-1.6.16Zm3.665-10.239h0l1.136,1.138-.734,1.43,1.432-.73,1.134,1.142-.252-1.589,1.437-.726-1.589-.25-.246-1.59-.73,1.433-1.587-.259Zm6.189-8.941h0l.8,1.392-1.083,1.193,1.574-.334.8,1.4.167-1.6,1.575-.327-1.469-.655.175-1.6-1.077,1.2-1.467-.66Zm18.122-11.685h0v1.61l-1.533.491,1.531.5-.005,1.607.945-1.3,1.527.5-.945-1.3.951-1.3-1.53.5-.941-1.305Zm10.7-1.942h0l-.417,1.554-1.606.078,1.348.876-.421,1.553,1.25-1.013,1.346.88-.576-1.5,1.252-1.008-1.606.084-.571-1.5Zm10.838.889h0l-.8,1.393-1.573-.341,1.077,1.2-.809,1.39,1.47-.654,1.072,1.2-.168-1.6,1.472-.649-1.572-.333-.163-1.6Zm10.238,3.664h0l-1.137,1.138-1.431-.736.73,1.433-1.142,1.134,1.589-.252.725,1.437.25-1.589,1.589-.247-1.432-.729.257-1.588Zm8.941,6.189h0l-1.394.8-1.191-1.081.334,1.572-1.4.8,1.6.169.328,1.574.655-1.47,1.6.175-1.2-1.075.66-1.468Zm7.035,8.292h0l-1.554.415-.871-1.351-.083,1.607-1.555.409,1.5.576-.092,1.607,1.013-1.251,1.5.582-.877-1.348,1.018-1.247Zm4.648,9.829h-1.608l-.492-1.531-.5,1.53-1.609-.006,1.3.946-.5,1.529,1.3-.946,1.3.95-.5-1.531,1.3-.941Zm1.947,10.7h0l-1.555-.416-.078-1.607-.877,1.35-1.552-.422,1.013,1.251-.881,1.346,1.5-.577,1.007,1.253-.084-1.606,1.505-.571Zm-.89,10.839h0l-1.394-.8.341-1.571-1.2,1.075-1.391-.81.655,1.47-1.2,1.072,1.6-.168.649,1.471.334-1.574,1.6-.16ZM2142.736,1627h0l-1.138-1.137.736-1.43-1.434.729-1.134-1.141.253,1.59-1.437.725,1.589.25.246,1.591.729-1.434,1.589.257Zm-6.189,8.943h0l-.8-1.395,1.081-1.191-1.573.334-.8-1.4-.168,1.6-1.574.329,1.47.653-.175,1.6,1.077-1.2,1.466.66Zm-8.292,7.035h0l-.416-1.554,1.352-.871-1.606-.083-.411-1.558-.575,1.5-1.606-.091,1.25,1.013-.583,1.5,1.348-.875,1.248,1.018Zm-9.832,4.647h0v-1.609l1.533-.491-1.531-.5.005-1.608-.945,1.3-1.528-.5.946,1.3-.951,1.3,1.53-.5.941,1.3Zm-10.7,1.947h0l.416-1.555,1.608-.076-1.35-.877.422-1.553-1.25,1.013-1.346-.881.577,1.5-1.254,1.009,1.606-.085.571,1.5Zm-10.837-.889h0l.8-1.394,1.573.34-1.076-1.194.809-1.391-1.469.654-1.072-1.2.168,1.6-1.472.649,1.574.333.161,1.6Zm-10.236-3.664h0l1.136-1.137,1.431.736-.731-1.434,1.143-1.134-1.589.252-.725-1.437-.252,1.59-1.589.245,1.433.73-.256,1.588Zm-8.942-6.188h0l1.393-.8,1.191,1.081-.335-1.573,1.4-.8-1.6-.168-.328-1.575-.655,1.47-1.6-.176,1.2,1.078-.659,1.467Zm-7.034-8.291h0l1.553-.417.872,1.353.083-1.607,1.557-.411-1.5-.577.09-1.6-1.013,1.25-1.5-.583.876,1.35-1.017,1.246Zm-5.965-15.074h0l1.6.208.288,1.583.691-1.454,1.594.215-1.167-1.106.7-1.451-1.413.77-1.164-1.112.294,1.583-1.415.763Zm-.544-10.861h0l1.564-.372.125-1.6.837,1.375,1.563-.377-1.046,1.219.841,1.371-1.483-.62-1.044,1.225.129-1.6-1.486-.615Zm2.285-10.633h0l1.609.047.535-1.517.453,1.543,1.608.041-1.328.908.458,1.541-1.273-.982-1.324.913.542-1.515-1.278-.979Zm4.958-9.677h0l1.542.46.909-1.326.039,1.607,1.542.456-1.518.532.045,1.608-.977-1.279-1.516.539.915-1.323-.981-1.275Zm7.3-8.064h0l1.37.843,1.222-1.046-.38,1.563,1.372.839-1.6.121-.373,1.563-.611-1.487-1.6.128,1.226-1.041-.617-1.484Zm19.483-9.241h0l-.207,1.6-1.584.288,1.455.692-.215,1.594,1.106-1.169,1.45.7-.77-1.413,1.111-1.166-1.582.3-.764-1.417Zm10.859-.54h0l.371,1.565,1.6.123-1.375.838.376,1.565-1.22-1.048-1.37.841.619-1.485-1.225-1.042,1.6.129.614-1.486Zm10.631,2.285h0l-.046,1.607,1.518.536-1.544.454-.041,1.606-.907-1.328-1.542.459.983-1.273-.913-1.325,1.515.542.978-1.278Zm9.678,4.959h0l-.461,1.54,1.328.909-1.61.039-.454,1.542-.533-1.518-1.608.044,1.278-.976-.539-1.516,1.324.915,1.275-.98Zm8.063,7.293h0l-.844,1.371,1.047,1.221-1.563-.38-.839,1.373-.122-1.6-1.566-.374,1.489-.611-.128-1.6,1.042,1.227,1.485-.618Zm5.9,9.133h0l-1.594.213-.689-1.454-.291,1.581-1.6.206,1.413.766-.3,1.581,1.167-1.108,1.411.77-.694-1.45,1.171-1.105Zm3.335,10.35h0l-1.594-.208-.29-1.583-.69,1.453-1.593-.215,1.167,1.106-.7,1.451,1.411-.77,1.164,1.111-.294-1.582,1.414-.763Zm.544,10.86h0l-1.563.372-.125,1.6-.837-1.373-1.562.377,1.049-1.221-.843-1.371,1.485.62,1.043-1.224-.131,1.6,1.486.614Zm-2.284,10.63h0l-1.608-.047-.535,1.518-.452-1.543-1.609-.041,1.327-.907-.458-1.541,1.273.982,1.326-.912-.542,1.514,1.277.978Zm-4.958,9.678h0l-1.542-.46-.91,1.327-.037-1.609-1.544-.454,1.518-.533-.044-1.609.977,1.28,1.516-.539-.916,1.324.981,1.275Zm-7.294,8.064h0l-1.37-.844-1.222,1.046.379-1.563-1.373-.839,1.6-.123.373-1.564.612,1.487,1.6-.126-1.228,1.04.618,1.486Zm-9.134,5.9h0l-.211-1.593,1.454-.689-1.582-.292-.207-1.595-.766,1.415-1.581-.3,1.11,1.167-.772,1.412,1.451-.7,1.1,1.169Zm-10.351,3.337h0l.208-1.6,1.583-.289-1.454-.69.215-1.6-1.106,1.168-1.449-.7.769,1.412-1.111,1.164,1.58-.295.765,1.417Zm-10.86.543h0l-.372-1.564-1.6-.124,1.374-.838-.378-1.564,1.221,1.048,1.372-.841-.62,1.484,1.224,1.043-1.6-.13-.613,1.486Zm-10.631-2.284h0l.047-1.609-1.519-.536,1.545-.451.04-1.608.908,1.328,1.542-.458-.982,1.274.912,1.324-1.514-.542-.978,1.278Zm-9.678-4.959h0l.462-1.54-1.327-.91,1.608-.039.456-1.542.533,1.518,1.608-.044-1.279.977.539,1.515-1.324-.916-1.276.98Zm-8.063-7.295h0l.845-1.369-1.047-1.222,1.564.381.839-1.373.122,1.6,1.565.372-1.488.612.128,1.6-1.042-1.227-1.485.617Zm-5.9-9.132h0l1.6-.212.688,1.454.292-1.582,1.6-.206-1.416-.766.3-1.58-1.166,1.107-1.412-.771.694,1.451-1.17,1.1Zm15.068-52.858h0l.416,1.553-1.352.87,1.606.085.411,1.555.576-1.5,1.606.09-1.249-1.012.582-1.5-1.348.875Z" transform="translate(-1402.387 -866.674)" fillRule="evenodd" fill="url(#linear-gradient-13)"/>
  </g>
</svg>
