<svg xmlns="http://www.w3.org/2000/svg" xmlns:xlink="http://www.w3.org/1999/xlink" width="137.849" height="137.849" viewBox="0 0 137.849 137.849">
  <defs>
    <radialGradient id="radial-gradient" cx="0.5" cy="0.5" r="0.707" gradientUnits="objectBoundingBox">
      <stop offset="0" stop-color="#a25d25"/>
      <stop offset="1" stop-color="#000002"/>
    </radialGradient>
    <linearGradient id="linear-gradient" y1="0.5" x2="1" y2="0.5" gradientUnits="objectBoundingBox">
      <stop offset="0" stop-color="#dba73e"/>
      <stop offset="0.16" stop-color="#e0c77d"/>
      <stop offset="0.54" stop-color="#f4f3b8"/>
      <stop offset="0.56" stop-color="#f7ed9a"/>
      <stop offset="0.69" stop-color="#dbc276"/>
      <stop offset="0.84" stop-color="#f4f3b8"/>
      <stop offset="1" stop-color="#e0c77d"/>
    </linearGradient>
    <linearGradient id="linear-gradient-2" x1="0.5" y1="0.99" x2="0.5" y2="0.01" gradientUnits="objectBoundingBox">
      <stop offset="0" stop-color="#dba73e"/>
      <stop offset="0.16" stop-color="#d89d3a"/>
      <stop offset="0.3" stop-color="#a46b28"/>
      <stop offset="0.46" stop-color="#8e5723"/>
      <stop offset="0.52" stop-color="#f4f3b8"/>
      <stop offset="0.55" stop-color="#f7ed9a"/>
      <stop offset="0.7" stop-color="#d5b767"/>
      <stop offset="0.75" stop-color="#a76f29"/>
      <stop offset="0.85" stop-color="#d0ab5b"/>
      <stop offset="1" stop-color="#e0c77d"/>
    </linearGradient>
    <radialGradient id="radial-gradient-2" cx="0.5" cy="0.5" r="0.707" gradientUnits="objectBoundingBox">
      <stop offset="0" stop-color="#fff"/>
      <stop offset="0.1" stop-color="#fff"/>
      <stop offset="0.4" stop-color="#f1f1f1"/>
      <stop offset="0.73" stop-color="#c8c0af"/>
      <stop offset="0.87" stop-color="#cbcaca"/>
      <stop offset="1" stop-color="#b2ac9f"/>
    </radialGradient>
    <linearGradient id="linear-gradient-5" y1="0.5" x2="1" y2="0.5" gradientUnits="objectBoundingBox">
      <stop offset="0" stop-color="#edfdff"/>
      <stop offset="1" stop-color="#f6ffe4"/>
    </linearGradient>
    <linearGradient id="linear-gradient-6" y1="0.5" x2="1" y2="0.5" gradientUnits="objectBoundingBox">
      <stop offset="0" stop-color="#4d88c7"/>
      <stop offset="1" stop-color="#c4f2fd"/>
    </linearGradient>
    <linearGradient id="linear-gradient-7" y1="0.5" x2="1" y2="0.5" gradientUnits="objectBoundingBox">
      <stop offset="0" stop-color="#d4e4fd"/>
      <stop offset="1" stop-color="#6899cf"/>
    </linearGradient>
    <linearGradient id="linear-gradient-9" y1="0.5" x2="1" y2="0.5" gradientUnits="objectBoundingBox">
      <stop offset="0.352" stop-color="#164d83"/>
      <stop offset="1" stop-color="#61a0e9"/>
    </linearGradient>
    <linearGradient id="linear-gradient-16" y1="0.5" x2="1" y2="0.5" gradientUnits="objectBoundingBox">
      <stop offset="0" stop-color="#a0ceed"/>
      <stop offset="0.709" stop-color="#5890c7"/>
    </linearGradient>
    <linearGradient id="linear-gradient-54" y1="0.5" x2="1" y2="0.5" gradientUnits="objectBoundingBox">
      <stop offset="0" stop-color="#a9d5fd"/>
      <stop offset="1" stop-color="#d4e6fd"/>
    </linearGradient>
    <linearGradient id="linear-gradient-68" y1="0.5" x2="1.055" y2="0.5" gradientUnits="objectBoundingBox">
      <stop offset="0" stop-color="#c0e4fd"/>
      <stop offset="1" stop-color="#d4f4fd"/>
    </linearGradient>
    <linearGradient id="linear-gradient-69" x1="0" y1="0.5" x2="1.137" y2="0.5" xlink:href="#linear-gradient-7"/>
    <linearGradient id="linear-gradient-70" y1="0.5" x2="1.176" y2="0.5" gradientUnits="objectBoundingBox">
      <stop offset="0" stop-color="#d4f4fd"/>
      <stop offset="1" stop-color="#c8f4fd"/>
    </linearGradient>
    <linearGradient id="linear-gradient-71" x1="-0.211" y1="0.5" x2="1" y2="0.5" xlink:href="#linear-gradient-6"/>
    <linearGradient id="linear-gradient-72" y1="0.5" x2="1.211" y2="0.5" xlink:href="#linear-gradient-6"/>
    <linearGradient id="linear-gradient-73" x1="-0.176" y1="0.5" x2="1" y2="0.5" xlink:href="#linear-gradient-9"/>
    <linearGradient id="linear-gradient-74" x1="0" y1="0.5" x2="1.176" y2="0.5" xlink:href="#linear-gradient-9"/>
    <linearGradient id="linear-gradient-76" x1="-0.137" y1="0.5" x2="1" y2="0.5" xlink:href="#linear-gradient-5"/>
    <linearGradient id="linear-gradient-77" y1="0.5" x2="1.137" y2="0.5" xlink:href="#linear-gradient-6"/>
    <linearGradient id="linear-gradient-78" x1="-0.055" y1="0.5" x2="1" y2="0.5" xlink:href="#linear-gradient-5"/>
    <linearGradient id="linear-gradient-80" x1="-0.055" y1="0.5" x2="1" y2="0.5" xlink:href="#linear-gradient-6"/>
    <linearGradient id="linear-gradient-81" x1="-0.176" y1="0.5" x2="1" y2="0.5" xlink:href="#linear-gradient-7"/>
    <linearGradient id="linear-gradient-82" x1="-0.137" y1="0.5" x2="1" y2="0.5" xlink:href="#linear-gradient-7"/>
    <linearGradient id="linear-gradient-83" x1="0" y1="0.5" x2="1.055" y2="0.5" xlink:href="#linear-gradient-9"/>
    <linearGradient id="linear-gradient-86" x1="-176.043" y1="26.39" x2="-167.201" y2="26.39" xlink:href="#linear-gradient-6"/>
    <linearGradient id="linear-gradient-87" x1="-140.303" y1="17.986" x2="-131.454" y2="17.986" xlink:href="#linear-gradient-6"/>
    <linearGradient id="linear-gradient-88" x1="-262.127" y1="26.885" x2="-249.499" y2="26.885" xlink:href="#linear-gradient-6"/>
    <linearGradient id="linear-gradient-89" x1="-226.258" y1="14.218" x2="-213.632" y2="14.218" xlink:href="#linear-gradient-9"/>
    <linearGradient id="linear-gradient-90" x1="-130.705" y1="30.584" x2="-125.618" y2="30.584" xlink:href="#linear-gradient-9"/>
    <linearGradient id="linear-gradient-91" x1="-124.232" y1="13.812" x2="-119.145" y2="13.812" xlink:href="#linear-gradient-7"/>
    <linearGradient id="linear-gradient-92" x1="-81.842" y1="40.102" x2="-79.764" y2="40.102" xlink:href="#linear-gradient-5"/>
    <linearGradient id="linear-gradient-93" x1="-86.296" y1="17.598" x2="-84.217" y2="17.598" xlink:href="#linear-gradient-5"/>
    <linearGradient id="linear-gradient-94" x1="-59.372" y1="71.126" x2="-58.41" y2="71.126" xlink:href="#linear-gradient-7"/>
    <linearGradient id="linear-gradient-95" x1="-68.507" y1="34.716" x2="-67.544" y2="34.716" xlink:href="#linear-gradient-6"/>
    <linearGradient id="linear-gradient-96" x1="-52.548" y1="100.699" x2="-51.077" y2="100.699" xlink:href="#linear-gradient-9"/>
    <linearGradient id="linear-gradient-97" x1="-66.086" y1="62.032" x2="-64.617" y2="62.032" xlink:href="#linear-gradient-9"/>
    <linearGradient id="linear-gradient-98" x1="-55.988" y1="47.447" x2="-53.393" y2="47.447" xlink:href="#linear-gradient-5"/>
    <linearGradient id="linear-gradient-99" x1="-73.478" y1="38.689" x2="-70.887" y2="38.689" xlink:href="#linear-gradient-9"/>
    <linearGradient id="linear-gradient-100" x1="-73.758" y1="27.425" x2="-69.334" y2="27.425" xlink:href="#linear-gradient-6"/>
    <linearGradient id="linear-gradient-101" x1="-23.546" y1="8.737" x2="-22.475" y2="8.737" xlink:href="#linear-gradient-9"/>
    <linearGradient id="linear-gradient-102" x1="-182.394" y1="99.397" x2="-173.237" y2="99.397" xlink:href="#linear-gradient-6"/>
    <linearGradient id="linear-gradient-103" x1="-177.815" y1="99.397" x2="-169.927" y2="99.397" xlink:href="#linear-gradient-9"/>
    <linearGradient id="linear-gradient-104" x1="-262.129" y1="41.908" x2="-249.495" y2="41.908" xlink:href="#linear-gradient-6"/>
    <linearGradient id="linear-gradient-105" x1="-268.967" y1="41.908" x2="-257.186" y2="41.908" xlink:href="#linear-gradient-9"/>
    <linearGradient id="linear-gradient-106" x1="-19.874" y1="5.802" x2="-18.803" y2="5.802" xlink:href="#linear-gradient-9"/>
    <linearGradient id="linear-gradient-107" x1="-145.267" y1="65.387" x2="-136.11" y2="65.387" xlink:href="#linear-gradient-6"/>
    <linearGradient id="linear-gradient-108" x1="-148.576" y1="65.387" x2="-140.688" y2="65.387" xlink:href="#linear-gradient-9"/>
    <linearGradient id="linear-gradient-109" x1="-226.261" y1="22.464" x2="-213.632" y2="22.464" xlink:href="#linear-gradient-9"/>
    <linearGradient id="linear-gradient-110" x1="-218.575" y1="22.464" x2="-206.799" y2="22.464" xlink:href="#linear-gradient-9"/>
    <linearGradient id="linear-gradient-111" x1="-24.807" y1="9.429" x2="-23.64" y2="9.429" xlink:href="#linear-gradient-54"/>
    <linearGradient id="linear-gradient-112" x1="-22.688" y1="5.103" x2="-21.521" y2="5.103" xlink:href="#linear-gradient-6"/>
    <linearGradient id="linear-gradient-113" x1="-226.256" y1="37.635" x2="-213.635" y2="37.635" xlink:href="#linear-gradient-9"/>
    <linearGradient id="linear-gradient-114" x1="-228.55" y1="37.635" x2="-216.804" y2="37.635" xlink:href="#linear-gradient-6"/>
    <linearGradient id="linear-gradient-115" x1="-124.229" y1="25.952" x2="-119.145" y2="25.952" xlink:href="#linear-gradient-7"/>
    <linearGradient id="linear-gradient-116" x1="-120.353" y1="25.952" x2="-114.171" y2="25.952" xlink:href="#linear-gradient-6"/>
    <linearGradient id="linear-gradient-117" x1="-22.297" y1="9.715" x2="-21.257" y2="9.715" xlink:href="#linear-gradient-6"/>
    <linearGradient id="linear-gradient-118" x1="-22.113" y1="4.835" x2="-21.073" y2="4.835" xlink:href="#linear-gradient-68"/>
    <linearGradient id="linear-gradient-119" x1="-98.004" y1="45.247" x2="-95.644" y2="45.247" xlink:href="#linear-gradient-5"/>
    <linearGradient id="linear-gradient-120" x1="-95.923" y1="45.247" x2="-91.476" y2="45.247" xlink:href="#linear-gradient-9"/>
    <linearGradient id="linear-gradient-121" x1="-20.128" y1="10.714" x2="-18.973" y2="10.714" xlink:href="#linear-gradient-9"/>
    <linearGradient id="linear-gradient-122" x1="-21.784" y1="5.527" x2="-20.63" y2="5.527" xlink:href="#linear-gradient-9"/>
    <linearGradient id="linear-gradient-123" x1="-18.63" y1="7.88" x2="-17.309" y2="7.88" xlink:href="#linear-gradient-5"/>
    <linearGradient id="linear-gradient-124" x1="-21.574" y1="6.02" x2="-20.471" y2="6.02" xlink:href="#linear-gradient-5"/>
    <linearGradient id="linear-gradient-125" x1="-17.714" y1="9.593" x2="-16.78" y2="9.593" xlink:href="#linear-gradient-6"/>
    <linearGradient id="linear-gradient-126" x1="-22.091" y1="7.473" x2="-21.157" y2="7.473" xlink:href="#linear-gradient-7"/>
    <linearGradient id="linear-gradient-127" x1="-19.911" y1="6.857" x2="-18.802" y2="6.857" xlink:href="#linear-gradient-7"/>
    <linearGradient id="linear-gradient-128" x1="-4132.324" y1="24.462" x2="-3873.431" y2="24.462" xlink:href="#linear-gradient-6"/>
    <linearGradient id="linear-gradient-129" x1="-4002.881" y1="24.462" x2="-3779.858" y2="24.462" xlink:href="#linear-gradient-7"/>
    <linearGradient id="linear-gradient-130" x1="-119.798" y1="221.404" x2="-112.611" y2="221.404" xlink:href="#linear-gradient-6"/>
    <linearGradient id="linear-gradient-131" x1="-123.688" y1="221.404" x2="-116.986" y2="221.404" xlink:href="#linear-gradient-7"/>
    <linearGradient id="linear-gradient-132" x1="-17.513" y1="8.144" x2="-16.529" y2="8.144" xlink:href="#linear-gradient-5"/>
    <linearGradient id="linear-gradient-133" x1="-22.393" y1="7.917" x2="-21.409" y2="7.917" xlink:href="#linear-gradient-6"/>
    <linearGradient id="linear-gradient-134" x1="-157.215" y1="207.423" x2="-151.709" y2="207.423" xlink:href="#linear-gradient-9"/>
    <linearGradient id="linear-gradient-135" x1="-153.018" y1="207.423" x2="-146.322" y2="207.423" xlink:href="#linear-gradient-6"/>
    <linearGradient id="linear-gradient-136" x1="-25.1" y1="8.316" x2="-23.991" y2="8.316" xlink:href="#linear-gradient-7"/>
    <linearGradient id="linear-gradient-137" x1="-18.395" y1="8.283" x2="-17.602" y2="8.283" xlink:href="#linear-gradient-68"/>
    <linearGradient id="linear-gradient-138" x1="-18.886" y1="7.63" x2="-17.918" y2="7.63" xlink:href="#linear-gradient-7"/>
    <linearGradient id="linear-gradient-139" x1="-21.82" y1="6.779" x2="-20.534" y2="6.779" xlink:href="#linear-gradient-70"/>
    <linearGradient id="linear-gradient-140" x1="-24.245" y1="8.769" x2="-22.726" y2="8.769" xlink:href="#linear-gradient-6"/>
    <linearGradient id="linear-gradient-141" x1="-26.298" y1="5.9" x2="-24.778" y2="5.9" xlink:href="#linear-gradient-5"/>
    <linearGradient id="linear-gradient-142" x1="-54.203" y1="12.156" x2="-51.093" y2="12.156" xlink:href="#linear-gradient-70"/>
    <linearGradient id="linear-gradient-143" x1="-54.637" y1="12.156" x2="-51.479" y2="12.156" xlink:href="#linear-gradient-5"/>
    <linearGradient id="linear-gradient-144" x1="-27.071" y1="8.157" x2="-25.367" y2="8.157" xlink:href="#linear-gradient-9"/>
    <linearGradient id="linear-gradient-145" x1="-30.578" y1="6.111" x2="-28.874" y2="6.111" xlink:href="#linear-gradient-6"/>
    <linearGradient id="linear-gradient-146" x1="-209.387" y1="17.584" x2="-197.642" y2="17.584" xlink:href="#linear-gradient-5"/>
    <linearGradient id="linear-gradient-147" x1="-207.773" y1="17.584" x2="-196.202" y2="17.584" xlink:href="#linear-gradient-9"/>
    <linearGradient id="linear-gradient-148" x1="-21.428" y1="10.149" x2="-20.717" y2="10.149" xlink:href="#linear-gradient-5"/>
    <linearGradient id="linear-gradient-149" x1="-19.931" y1="11.965" x2="-18.962" y2="11.965" xlink:href="#linear-gradient-5"/>
    <linearGradient id="linear-gradient-150" x1="-29.653" y1="6.629" x2="-28.289" y2="6.629" xlink:href="#linear-gradient-6"/>
    <linearGradient id="linear-gradient-151" x1="-22.267" y1="7.499" x2="-21.286" y2="7.499" xlink:href="#linear-gradient-5"/>
    <linearGradient id="linear-gradient-152" x1="-18.556" y1="7.833" x2="-17.844" y2="7.833" xlink:href="#linear-gradient-6"/>
    <linearGradient id="linear-gradient-153" x1="-20.486" y1="12.049" x2="-19.693" y2="12.049" xlink:href="#linear-gradient-6"/>
    <linearGradient id="linear-gradient-154" x1="-21.428" y1="10.633" x2="-20.143" y2="10.633" xlink:href="#linear-gradient-7"/>
    <linearGradient id="linear-gradient-155" x1="-127.652" y1="45.578" x2="-119.905" y2="45.578" xlink:href="#linear-gradient-6"/>
    <linearGradient id="linear-gradient-156" x1="-128.6" y1="45.578" x2="-120.969" y2="45.578" xlink:href="#linear-gradient-7"/>
    <linearGradient id="linear-gradient-157" x1="-25.487" y1="7.559" x2="-24.122" y2="7.559" xlink:href="#linear-gradient-9"/>
    <linearGradient id="linear-gradient-158" x1="-26.067" y1="8.084" x2="-25.086" y2="8.084" xlink:href="#linear-gradient-9"/>
    <linearGradient id="linear-gradient-159" x1="-96.654" y1="30.238" x2="-92.231" y2="30.238" xlink:href="#linear-gradient-5"/>
    <linearGradient id="linear-gradient-160" x1="-253.327" y1="33.995" x2="-242.629" y2="33.995" xlink:href="#linear-gradient-6"/>
    <linearGradient id="linear-gradient-161" x1="-251.237" y1="33.995" x2="-239.743" y2="33.995" xlink:href="#linear-gradient-5"/>
    <linearGradient id="linear-gradient-162" x1="-153.273" y1="252.253" x2="-146.574" y2="252.253" xlink:href="#linear-gradient-7"/>
    <linearGradient id="linear-gradient-163" x1="-157.646" y1="252.253" x2="-150.461" y2="252.253" xlink:href="#linear-gradient-5"/>
    <linearGradient id="linear-gradient-164" x1="-8.268" y1="3.309" x2="-7.283" y2="3.309" xlink:href="#linear-gradient-54"/>
    <linearGradient id="linear-gradient-165" x1="-155.517" y1="18.019" x2="-147.963" y2="18.019" xlink:href="#linear-gradient-5"/>
    <linearGradient id="linear-gradient-166" x1="-168.728" y1="18.019" x2="-150.699" y2="18.019" xlink:href="#linear-gradient-54"/>
    <linearGradient id="linear-gradient-167" x1="-67.433" y1="22.133" x2="-63.385" y2="22.133" xlink:href="#linear-gradient-7"/>
    <linearGradient id="linear-gradient-168" x1="-74.259" y1="22.133" x2="-66.214" y2="22.133" xlink:href="#linear-gradient-54"/>
    <linearGradient id="linear-gradient-169" x1="0.165" y1="0.194" x2="0.751" y2="1.084" gradientUnits="objectBoundingBox">
      <stop offset="0" stop-color="#fff"/>
      <stop offset="0.208" stop-color="#fcfcfc"/>
      <stop offset="0.343" stop-color="#f3f3f3"/>
      <stop offset="0.458" stop-color="#e4e4e4"/>
      <stop offset="0.56" stop-color="#cfcfcf"/>
      <stop offset="0.655" stop-color="#b4b4b4"/>
      <stop offset="0.744" stop-color="#929292"/>
      <stop offset="0.829" stop-color="#6b6b6b"/>
      <stop offset="0.91" stop-color="#3c3c3c"/>
      <stop offset="0.986" stop-color="#0a0a0a"/>
      <stop offset="1"/>
    </linearGradient>
    <linearGradient id="linear-gradient-170" x1="0.5" x2="0.5" y2="1" gradientUnits="objectBoundingBox">
      <stop offset="0" stop-color="#90c"/>
      <stop offset="1" stop-color="#57b3ff"/>
    </linearGradient>
    <linearGradient id="linear-gradient-175" x1="1.063" y1="0.237" x2="-0.064" y2="0.763" xlink:href="#linear-gradient-170"/>
  </defs>
  <g id="Group_37549" data-name="Group 37549" transform="translate(0 0)">
    <g id="Group_37275" data-name="Group 37275" transform="translate(0 0)">
      <path id="Path_41274" data-name="Path 41274" d="M1047.264,1478.722c3.692.016,6.1,1.932,8.5,3.87l.038.028.005,0,.01.01a10.158,10.158,0,0,0,2.813,1.884,10.779,10.779,0,0,0,3.563-.642l.025-.011h.007v0a26.628,26.628,0,0,1,4.469-.954,10.27,10.27,0,0,1,4.727.567h.066l.243.1c3.4,1.424,4.894,4.152,6.394,6.893l.009.015c.351.644.7,1.29,1.085,1.868a3.661,3.661,0,0,0,.808.966,3.974,3.974,0,0,0,1.255.4c.6.121,1.429.224,2.254.328a26.469,26.469,0,0,1,4.532.839,10.285,10.285,0,0,1,4.379,2.544l.015.014.013.014a10.052,10.052,0,0,1,2.518,4.354,25.016,25.016,0,0,1,.76,4.464c.082.757.164,1.516.283,2.147a3.645,3.645,0,0,0,.368,1.185,10.7,10.7,0,0,0,2.871,1.984h0l.1.057c2.764,1.572,5.524,3.141,6.943,6.526l.1.243v.052a10.023,10.023,0,0,1,.562,4.714,24.949,24.949,0,0,1-1,4.4l-.022.077v0a9.621,9.621,0,0,0-.634,3.285v0a10.981,10.981,0,0,0,1.909,2.935h0l.052.067c1.94,2.5,3.879,4.989,3.894,8.675l.005,0v.027l-.005,0a10.037,10.037,0,0,1-1.3,4.866,24.871,24.871,0,0,1-2.611,3.686c-.473.587-.946,1.175-1.312,1.713a3.587,3.587,0,0,0-.575,1.1v.005a4,4,0,0,0,.1,1.365c.134.7.341,1.452.546,2.2a26.681,26.681,0,0,1,.962,4.494,10.267,10.267,0,0,1-.567,4.726v.072l-.1.243c-1.394,3.323-4.043,4.829-6.73,6.3h0l-.179.1c-.643.352-1.289.7-1.867,1.085a3.656,3.656,0,0,0-.965.808,3.943,3.943,0,0,0-.4,1.255c-.122.6-.225,1.429-.328,2.254a26.453,26.453,0,0,1-.839,4.532,10.3,10.3,0,0,1-2.534,4.369l-.013.013-.015.014a10.054,10.054,0,0,1-4.365,2.529,25,25,0,0,1-4.464.76c-.756.082-1.514.164-2.146.283a3.621,3.621,0,0,0-1.186.368,4.049,4.049,0,0,0-.87,1.024c-.4.586-.783,1.268-1.17,1.948a26.87,26.87,0,0,1-2.508,3.872,10.256,10.256,0,0,1-4.014,3.072l-.242.1h-.058a10.023,10.023,0,0,1-4.714.561,24.868,24.868,0,0,1-4.4-1c-.725-.212-1.453-.425-2.088-.555a3.633,3.633,0,0,0-1.282-.1,11.313,11.313,0,0,0-3,1.962,26.446,26.446,0,0,1-3.787,2.6,10.275,10.275,0,0,1-4.888,1.292l0,.006h-.026l-.005-.006a10.03,10.03,0,0,1-4.866-1.3,24.89,24.89,0,0,1-3.686-2.612l0,0a10.186,10.186,0,0,0-2.816-1.886h0a4.031,4.031,0,0,0-1.365.1c-.7.135-1.453.34-2.2.545a26.71,26.71,0,0,1-4.494.962,10.269,10.269,0,0,1-4.726-.567H1023l-.242-.1a10,10,0,0,1-3.987-3.066,25.314,25.314,0,0,1-2.411-3.843c-.352-.643-.705-1.289-1.085-1.867a3.652,3.652,0,0,0-.809-.965,3.972,3.972,0,0,0-1.255-.4c-.6-.121-1.43-.225-2.254-.328a26.457,26.457,0,0,1-4.533-.84,10.265,10.265,0,0,1-4.379-2.544h0l-.013-.012v-.005a10.048,10.048,0,0,1-2.529-4.365,24.971,24.971,0,0,1-.759-4.463c-.082-.757-.165-1.515-.284-2.147a3.616,3.616,0,0,0-.369-1.187,4.057,4.057,0,0,0-1.023-.871c-.558-.376-1.2-.745-1.848-1.112h0l-.1-.058c-2.763-1.572-5.523-3.141-6.943-6.527l-.1-.242v-.053c-1.254-3.313-.41-6.2.439-9.1h0v0l.005-.006c.212-.725.426-1.454.556-2.088a3.658,3.658,0,0,0,.1-1.283,11.328,11.328,0,0,0-1.961-3l0,0a26.252,26.252,0,0,1-2.6-3.785,10.268,10.268,0,0,1-1.293-4.888l-.005,0v-.027l.005,0a10.047,10.047,0,0,1,1.3-4.866,24.855,24.855,0,0,1,2.612-3.686c.472-.587.946-1.176,1.313-1.714a3.6,3.6,0,0,0,.575-1.1,10.661,10.661,0,0,0-.634-3.537h0v0l0-.031a26.789,26.789,0,0,1-.962-4.493,10.267,10.267,0,0,1,.567-4.727v-.071l.1-.242c1.4-3.346,4.08-4.85,6.787-6.33l.122-.067c.667-.365,1.337-.731,1.867-1.079v-.006a3.664,3.664,0,0,0,.966-.808,3.961,3.961,0,0,0,.4-1.256c.122-.6.225-1.429.328-2.253a26.451,26.451,0,0,1,.84-4.532,10.286,10.286,0,0,1,2.544-4.38v-.005l.013-.012h0a10.043,10.043,0,0,1,4.365-2.528,24.97,24.97,0,0,1,4.464-.76c.755-.081,1.515-.164,2.146-.283a3.625,3.625,0,0,0,1.186-.369,4.041,4.041,0,0,0,.871-1.024c.4-.586.783-1.268,1.171-1.948a26.734,26.734,0,0,1,2.508-3.871,10.252,10.252,0,0,1,4.019-3.072l.243-.1h.053c3.317-1.255,6.209-.409,9.114.442.725.212,1.453.424,2.087.556a3.674,3.674,0,0,0,1.283.1,11.362,11.362,0,0,0,3-1.961l0,0c2.5-1.941,4.988-3.878,8.673-3.894l.005-.006h.026l0,.006Zm6.924,5.93h0c-2.069-1.665-4.13-3.323-6.929-3.338v0h-.026v0c-2.785.014-4.933,1.684-7.083,3.357l0,0c-1.418,1.1-2.841,2.208-4.1,2.459a6,6,0,0,1-2.3-.113c-.737-.152-1.516-.38-2.291-.607-2.549-.746-5.088-1.49-7.675-.431l-.237.1a7.809,7.809,0,0,0-2.791,2.223,24.9,24.9,0,0,0-2.255,3.505c-.425.748-.853,1.5-1.272,2.12a6.244,6.244,0,0,1-1.582,1.726,5.9,5.9,0,0,1-2.152.766c-.739.139-1.546.227-2.349.313a23.113,23.113,0,0,0-4.006.669,7.519,7.519,0,0,0-3.264,1.875l0,0-.014.014,0,0a7.737,7.737,0,0,0-1.9,3.3,24.872,24.872,0,0,0-.738,4.094c-.1.811-.2,1.623-.369,2.448a6.225,6.225,0,0,1-.788,2.191,5.923,5.923,0,0,1-1.7,1.541l0,0c-.581.382-1.223.738-1.867,1.091h0l-.18.1c-2.27,1.242-4.531,2.479-5.648,4.9v.006l-.1.248a7.723,7.723,0,0,0-.486,3.765,24.666,24.666,0,0,0,.872,4.028h0v0l.006.031a11.687,11.687,0,0,1,.693,4.745,5.892,5.892,0,0,1-.982,2.07c-.417.613-.927,1.246-1.435,1.878a23.134,23.134,0,0,0-2.358,3.3,7.529,7.529,0,0,0-.981,3.631h.006v.027H985.9a7.758,7.758,0,0,0,.988,3.672,24.948,24.948,0,0,0,2.369,3.41l0,0c1.1,1.417,2.209,2.841,2.458,4.1a5.97,5.97,0,0,1-.112,2.3c-.152.735-.379,1.511-.605,2.285l0,0v0l-.005.005c-.746,2.548-1.488,5.085-.43,7.672l.09.222c1.1,2.4,3.355,3.707,5.632,5h0l.1.057c.748.426,1.5.852,2.121,1.272a6.235,6.235,0,0,1,1.724,1.583,5.872,5.872,0,0,1,.766,2.153c.139.738.227,1.544.314,2.349a23.123,23.123,0,0,0,.668,4.006,7.517,7.517,0,0,0,1.875,3.264l0,0,.014.014,0,0a7.752,7.752,0,0,0,3.3,1.9,25.036,25.036,0,0,0,4.095.737c.81.1,1.623.2,2.447.369a6.232,6.232,0,0,1,2.191.789,5.893,5.893,0,0,1,1.541,1.7c.386.589.787,1.321,1.186,2.05a23.281,23.281,0,0,0,2.157,3.457,7.532,7.532,0,0,0,2.739,2.193h.007l.248.1a7.724,7.724,0,0,0,3.765.485,24.85,24.85,0,0,0,4.057-.88c.83-.228,1.662-.457,2.394-.6a6.331,6.331,0,0,1,2.361-.1h0a10.85,10.85,0,0,1,3.941,2.414l0,0h0a23.059,23.059,0,0,0,3.3,2.358,7.507,7.507,0,0,0,3.63.981v0h.026v0a7.763,7.763,0,0,0,3.673-.987,24.949,24.949,0,0,0,3.411-2.37c1.419-1.1,2.842-2.21,4.1-2.459a5.971,5.971,0,0,1,2.3.112c.736.151,1.515.38,2.291.607a22.933,22.933,0,0,0,3.942.911,7.522,7.522,0,0,0,3.733-.48l.188-.078a7.786,7.786,0,0,0,2.84-2.242,25,25,0,0,0,2.254-3.506c.426-.749.853-1.5,1.272-2.121a6.246,6.246,0,0,1,1.582-1.725,5.9,5.9,0,0,1,2.152-.765c.739-.139,1.545-.226,2.349-.313a23.124,23.124,0,0,0,4.007-.668,7.516,7.516,0,0,0,3.257-1.869l.008-.007.01-.01a7.75,7.75,0,0,0,1.9-3.3,24.936,24.936,0,0,0,.738-4.095c.1-.81.2-1.624.369-2.447a6.221,6.221,0,0,1,.788-2.191,5.905,5.905,0,0,1,1.7-1.54c.566-.371,1.264-.756,1.963-1.138l.087-.049c2.27-1.24,4.53-2.479,5.648-4.9v-.005l.1-.248a7.727,7.727,0,0,0,.486-3.765,24.953,24.953,0,0,0-.88-4.057c-.228-.83-.457-1.661-.6-2.393a6.342,6.342,0,0,1-.1-2.361h0a5.913,5.913,0,0,1,.981-2.066c.417-.611.926-1.245,1.435-1.877a23.089,23.089,0,0,0,2.357-3.3,7.527,7.527,0,0,0,.981-3.631h-.005v-.027h.005c-.014-2.784-1.683-4.933-3.355-7.083l0,0c-1.1-1.417-2.205-2.837-2.457-4.094h0a10.826,10.826,0,0,1,.718-4.594l.016-.052a22.677,22.677,0,0,0,.9-3.892,7.51,7.51,0,0,0-.48-3.732l-.093-.227c-1.114-2.428-3.421-3.74-5.731-5.053l-.005,0c-1.56-.888-3.125-1.778-3.842-2.852a5.874,5.874,0,0,1-.765-2.152c-.139-.738-.228-1.546-.314-2.349a23.061,23.061,0,0,0-.668-4.007,7.509,7.509,0,0,0-1.878-3.267l-.01-.011-.008-.007a7.743,7.743,0,0,0-3.291-1.894,25.026,25.026,0,0,0-4.095-.737c-.811-.1-1.623-.2-2.447-.368a6.232,6.232,0,0,1-2.191-.789,5.911,5.911,0,0,1-1.541-1.7c-.384-.586-.783-1.314-1.179-2.04l-.007-.012c-1.242-2.271-2.479-4.532-4.891-5.647h-.01l-.249-.1a7.729,7.729,0,0,0-3.766-.486,24.856,24.856,0,0,0-4.057.88l-.026.01-.007,0v0a11.6,11.6,0,0,1-4.716.685,10.558,10.558,0,0,1-3.874-2.358l0,0-.055-.044h0l-.005,0h0l-.013-.011Zm-4.2,5.231h0c-.65-.524-1.3-1.048-1.837-1.4a2.816,2.816,0,0,0-.9-.466,3.162,3.162,0,0,0-.992.5c-.579.373-1.28.917-1.981,1.462l0,0c-2.042,1.589-4.09,3.181-6.936,3.746a11.443,11.443,0,0,1-4.105.023,29.419,29.419,0,0,1-3.593-.886v0h0l-.046-.015a11.288,11.288,0,0,0-3.2-.689l-.053.022a2.785,2.785,0,0,0-.741.835c-.4.57-.832,1.334-1.267,2.1a31.59,31.59,0,0,1-2.012,3.225,11.809,11.809,0,0,1-2.945,2.881,11.555,11.555,0,0,1-3.817,1.616v0a29.55,29.55,0,0,1-3.707.563c-.824.089-1.646.178-2.285.309a2.731,2.731,0,0,0-.958.309,3.081,3.081,0,0,0-.347,1.046c-.15.689-.258,1.557-.367,2.425a31.116,31.116,0,0,1-.626,3.748,11.908,11.908,0,0,1-1.635,3.806,11.478,11.478,0,0,1-2.9,2.943,29.853,29.853,0,0,1-3.216,1.939c-.708.387-1.415.774-1.982,1.161a2.483,2.483,0,0,0-.773.677l-.022.052a3.872,3.872,0,0,0,.093,1.063c.126.7.355,1.536.586,2.373v.006c.689,2.505,1.377,5.017.825,7.793-.561,2.822-2.126,4.8-3.7,6.762l0,0-.081.1c-.516.64-1.03,1.28-1.4,1.842h0a2.773,2.773,0,0,0-.463.9,3.135,3.135,0,0,0,.5.99c.373.579.917,1.28,1.462,1.98h0l0,0c1.587,2.041,3.179,4.09,3.743,6.932.555,2.79-.14,5.226-.848,7.645l-.006.032-.024.073a11.331,11.331,0,0,0-.688,3.193l.023.052a2.779,2.779,0,0,0,.835.741c.569.4,1.334.832,2.1,1.267a31.682,31.682,0,0,1,3.225,2.011,11.818,11.818,0,0,1,2.881,2.945,11.552,11.552,0,0,1,1.617,3.816h.005a29.529,29.529,0,0,1,.562,3.708c.089.823.178,1.646.31,2.285a2.75,2.75,0,0,0,.309.958,3.121,3.121,0,0,0,1.047.346c.689.151,1.557.258,2.424.367a31.1,31.1,0,0,1,3.747.626,11.91,11.91,0,0,1,3.807,1.635,11.5,11.5,0,0,1,2.942,2.9,29.715,29.715,0,0,1,1.939,3.215c.706,1.29,1.409,2.575,1.837,2.755l.066.027a12.587,12.587,0,0,0,3.423-.684,32.45,32.45,0,0,1,3.7-.865,11.726,11.726,0,0,1,4.1.038,11.522,11.522,0,0,1,3.841,1.555,29.679,29.679,0,0,1,3.023,2.229c.652.524,1.3,1.048,1.837,1.4a2.832,2.832,0,0,0,.9.465,11.063,11.063,0,0,0,2.967-1.96l0,0a31.027,31.027,0,0,1,3.1-2.207,11.883,11.883,0,0,1,3.843-1.541,11.456,11.456,0,0,1,4.1-.022,29.762,29.762,0,0,1,3.639.9c.778.228,1.557.456,2.236.587a3.573,3.573,0,0,0,.969.1l.045-.019a2.787,2.787,0,0,0,.741-.836c.4-.569.832-1.334,1.267-2.1v-.008l0,0c1.279-2.247,2.561-4.5,4.952-6.1a11.594,11.594,0,0,1,3.817-1.617,29.092,29.092,0,0,1,3.706-.566c.824-.09,1.647-.179,2.286-.31a2.727,2.727,0,0,0,.957-.308,3.07,3.07,0,0,0,.348-1.048c.15-.688.259-1.557.367-2.423a31.02,31.02,0,0,1,.627-3.748,11.9,11.9,0,0,1,1.634-3.807,11.467,11.467,0,0,1,2.9-2.943,29.612,29.612,0,0,1,3.215-1.939c.708-.387,1.415-.775,1.982-1.161a2.492,2.492,0,0,0,.773-.677l.026-.062a12.4,12.4,0,0,0-.683-3.425l-.025-.087v0h0a31.878,31.878,0,0,1-.84-3.615,11.712,11.712,0,0,1,.038-4.1,11.521,11.521,0,0,1,1.555-3.842,29.724,29.724,0,0,1,2.229-3.022v0a9.883,9.883,0,0,0,1.865-2.738,11.023,11.023,0,0,0-1.963-2.97l0,0v0l0,0c-1.588-2.043-3.181-4.092-3.746-6.937-.562-2.826.158-5.289.875-7.741l0-.006a11.336,11.336,0,0,0,.689-3.193l-.023-.054a2.825,2.825,0,0,0-.835-.736v0c-.569-.4-1.334-.832-2.1-1.267a31.425,31.425,0,0,1-3.225-2.012,11.78,11.78,0,0,1-2.881-2.945,11.538,11.538,0,0,1-1.617-3.816,29.135,29.135,0,0,1-.567-3.706c-.089-.825-.179-1.647-.31-2.286a2.72,2.72,0,0,0-.31-.957,3.1,3.1,0,0,0-1.046-.348c-.689-.15-1.557-.258-2.424-.367a31.242,31.242,0,0,1-3.748-.626,11.915,11.915,0,0,1-3.807-1.635,11.488,11.488,0,0,1-2.943-2.9,29.893,29.893,0,0,1-1.938-3.215c-.706-1.29-1.409-2.575-1.837-2.755l-.055-.024a3.952,3.952,0,0,0-1.061.1c-.7.125-1.528.353-2.36.582v0h-.02c-2.5.688-5.016,1.378-7.792.825a11.528,11.528,0,0,1-3.841-1.555,29.84,29.84,0,0,1-3.023-2.228Zm-.413-3.568h0a4.533,4.533,0,0,0-2.311-.893h-.036a4.783,4.783,0,0,0-2.373.909c-.719.462-1.447,1.029-2.174,1.594l0,0c-1.8,1.4-3.606,2.8-5.838,3.247a8.906,8.906,0,0,1-3.2.013,27.931,27.931,0,0,1-3.324-.829l-.046-.015h0v0c-1.832-.536-3.65-1.062-4.9-.582l-1.269.49.143.326a7.84,7.84,0,0,0-.77.954c-.485.694-.943,1.5-1.4,2.3a29.742,29.742,0,0,1-1.839,2.961,9.331,9.331,0,0,1-2.3,2.271,9,9,0,0,1-2.971,1.249v0a27.275,27.275,0,0,1-3.382.51c-.871.094-1.741.189-2.529.351a4.513,4.513,0,0,0-2.262,1l-.026.026a4.759,4.759,0,0,0-1.04,2.32c-.178.815-.293,1.737-.408,2.658a29.438,29.438,0,0,1-.566,3.433,9.392,9.392,0,0,1-1.268,2.994,9,9,0,0,1-2.267,2.281,27.244,27.244,0,0,1-2.931,1.766c-.785.429-1.567.857-2.205,1.293a7.082,7.082,0,0,0-.936.747l-.332-.134-.469,1.248a4.935,4.935,0,0,0-.054,2.535c.147.813.392,1.7.637,2.594v.006c.606,2.205,1.213,4.415.775,6.615-.446,2.245-1.854,3.994-3.255,5.735l-.047.058-.011.013-.024.03c-.528.657-1.05,1.311-1.462,1.937v0a4.531,4.531,0,0,0-.893,2.311v.03a4.777,4.777,0,0,0,.909,2.378c.463.719,1.028,1.447,1.594,2.174l0,0h0c1.4,1.8,2.8,3.605,3.245,5.835s-.188,4.38-.816,6.523l0,.006h0c-.539,1.845-1.077,3.682-.593,4.938l.473,1.225.315-.127a7.527,7.527,0,0,0,.981.8c.695.485,1.5.943,2.3,1.4a29.581,29.581,0,0,1,2.961,1.839,9.3,9.3,0,0,1,2.271,2.3,9.026,9.026,0,0,1,1.251,2.971h0a27.014,27.014,0,0,1,.51,3.382c.095.871.189,1.741.351,2.529a4.516,4.516,0,0,0,1,2.263l.026.026a4.776,4.776,0,0,0,2.321,1.039c.815.178,1.737.293,2.658.408a29.307,29.307,0,0,1,3.432.565,9.394,9.394,0,0,1,2.994,1.269,9.007,9.007,0,0,1,2.281,2.266,27.328,27.328,0,0,1,1.766,2.931,15.2,15.2,0,0,0,2.036,3.127l-.144.341,1.266.473c1.27.477,3.2-.053,5.126-.583a29.61,29.61,0,0,1,3.407-.793,9.212,9.212,0,0,1,3.211.018,9,9,0,0,1,2.977,1.219,27.212,27.212,0,0,1,2.759,2.036c.68.546,1.357,1.092,2.04,1.544a4.534,4.534,0,0,0,2.3.892h.041c1.355-.021,2.949-1.259,4.545-2.5l0,0a29.885,29.885,0,0,1,2.831-2.035,9.348,9.348,0,0,1,3.009-1.215,8.9,8.9,0,0,1,3.2-.012,27.648,27.648,0,0,1,3.324.828c.858.25,1.716.5,2.47.648a4.575,4.575,0,0,0,2.467-.054l1.274-.49-.143-.326a7.646,7.646,0,0,0,.77-.954c.485-.694.941-1.5,1.4-2.3h0l0,0v-.005c1.128-1.982,2.259-3.971,4.141-5.228a9.019,9.019,0,0,1,2.973-1.25,27.431,27.431,0,0,1,3.381-.5c.871-.095,1.741-.189,2.53-.351a4.516,4.516,0,0,0,2.262-1l.027-.026a4.779,4.779,0,0,0,1.04-2.321c.177-.815.293-1.738.408-2.658a29.334,29.334,0,0,1,.566-3.433,9.4,9.4,0,0,1,1.268-2.993,8.991,8.991,0,0,1,2.266-2.282,27.235,27.235,0,0,1,2.931-1.765c.784-.429,1.567-.858,2.205-1.293a7.026,7.026,0,0,0,.943-.755l.33.13.464-1.236c.471-1.253-.036-3.141-.558-5.044h0v0l-.025-.086a29.641,29.641,0,0,1-.794-3.407,9.225,9.225,0,0,1,.018-3.21,8.964,8.964,0,0,1,1.218-2.977,27.209,27.209,0,0,1,2.037-2.759h0c1.209-1.5,2.414-3,2.434-4.35v-.03c-.021-1.361-1.26-2.956-2.5-4.552l-.053-.068h0c-1.383-1.78-2.758-3.569-3.2-5.773-.443-2.223.188-4.377.814-6.52l0-.007c.54-1.846,1.078-3.684.594-4.94l-.466-1.206-.308.118a7.533,7.533,0,0,0-1-.813l0,0c-.695-.484-1.5-.941-2.3-1.4a29.678,29.678,0,0,1-2.96-1.839,9.351,9.351,0,0,1-2.272-2.3,9.029,9.029,0,0,1-1.25-2.973,27.638,27.638,0,0,1-.505-3.381c-.094-.872-.188-1.742-.351-2.53a4.511,4.511,0,0,0-1-2.262l-.027-.026a4.757,4.757,0,0,0-2.32-1.04c-.815-.177-1.737-.293-2.658-.408a29.489,29.489,0,0,1-3.432-.565,9.413,9.413,0,0,1-2.994-1.268,9,9,0,0,1-2.281-2.266,27.3,27.3,0,0,1-1.766-2.931,15.184,15.184,0,0,0-2.036-3.127l.144-.34-1.266-.475a4.923,4.923,0,0,0-2.53-.053c-.815.147-1.706.393-2.6.637h-.015l0,0v0c-2.2.6-4.4,1.207-6.6.771a8.957,8.957,0,0,1-2.977-1.219,27.263,27.263,0,0,1-2.758-2.035C1050.933,1487.312,1050.255,1486.766,1049.572,1486.315Z" transform="translate(-978.322 -1473.734)" fillRule="evenodd" fill="url(#radial-gradient)"/>
      <path id="Path_41275" data-name="Path 41275" d="M1050.12,1482.88c3.259.014,5.5,1.815,7.744,3.624a10.237,10.237,0,0,0,3.382,2.152,11.049,11.049,0,0,0,4.159-.669c2.842-.781,5.677-1.56,8.652-.344h.04c2.984,1.251,4.37,3.785,5.762,6.33a10.239,10.239,0,0,0,2.31,3.29,11.326,11.326,0,0,0,4.073.943c2.93.366,5.855.733,8.154,3.012l.013.013c2.3,2.314,2.606,5.176,2.917,8.051a10.323,10.323,0,0,0,.866,3.917,11.217,11.217,0,0,0,3.409,2.449c2.571,1.461,5.137,2.921,6.384,5.9v.026c1.229,3.005.424,5.758-.385,8.522a10.164,10.164,0,0,0-.688,3.981,11.255,11.255,0,0,0,2.21,3.551c1.807,2.325,3.612,4.645,3.626,7.882v.026c-.014,3.258-1.814,5.5-3.623,7.744a10.248,10.248,0,0,0-2.152,3.382,11.052,11.052,0,0,0,.67,4.16c.781,2.84,1.56,5.678.343,8.651v.04c-1.252,2.985-3.785,4.37-6.33,5.763a10.24,10.24,0,0,0-3.29,2.309,11.341,11.341,0,0,0-.943,4.074c-.367,2.93-.733,5.855-3.013,8.153l-.013.013c-2.315,2.3-5.176,2.606-8.051,2.917a10.343,10.343,0,0,0-3.917.865,11.233,11.233,0,0,0-2.447,3.408c-1.463,2.572-2.922,5.139-5.9,6.386h-.027c-3.007,1.229-5.759.424-8.523-.386a10.186,10.186,0,0,0-3.981-.688,11.257,11.257,0,0,0-3.552,2.211c-2.324,1.807-4.645,3.611-7.881,3.626h-.026c-3.259-.015-5.5-1.815-7.744-3.624a10.225,10.225,0,0,0-3.383-2.152,11.064,11.064,0,0,0-4.16.669c-2.841.78-5.677,1.561-8.65.344h-.04c-2.985-1.252-4.37-3.785-5.762-6.33a10.254,10.254,0,0,0-2.31-3.292,11.358,11.358,0,0,0-4.073-.943c-2.93-.367-5.855-.732-8.153-3.012l-.014-.013c-2.3-2.315-2.606-5.176-2.917-8.051a10.311,10.311,0,0,0-.866-3.917,11.214,11.214,0,0,0-3.408-2.448c-2.57-1.462-5.137-2.921-6.384-5.9v-.027c-1.23-3.006-.424-5.758.385-8.523a10.171,10.171,0,0,0,.688-3.981,11.257,11.257,0,0,0-2.21-3.551c-1.808-2.325-3.612-4.646-3.627-7.882v-.026c.015-3.259,1.815-5.5,3.624-7.744a10.253,10.253,0,0,0,2.152-3.383,11.06,11.06,0,0,0-.669-4.16c-.781-2.841-1.56-5.677-.344-8.651v-.04c1.252-2.984,3.785-4.37,6.33-5.763a10.223,10.223,0,0,0,3.29-2.309,11.325,11.325,0,0,0,.943-4.073c.367-2.93.733-5.854,3.012-8.154l.014-.013c2.316-2.3,5.177-2.605,8.05-2.916a10.329,10.329,0,0,0,3.917-.866,11.216,11.216,0,0,0,2.447-3.41c1.463-2.57,2.922-5.136,5.9-6.384h.026c3.007-1.23,5.759-.424,8.524.385a10.183,10.183,0,0,0,3.981.689,11.283,11.283,0,0,0,3.551-2.211c2.324-1.808,4.644-3.613,7.881-3.626Zm3.54,8.853h0c-1.331-1.072-2.656-2.138-3.553-2.152-.914.014-2.341,1.123-3.769,2.233-1.923,1.5-3.85,2.995-6.389,3.5s-4.836-.173-7.134-.846c-1.637-.48-3.267-.957-4.113-.631l0,.009c-.854.357-1.746,1.924-2.638,3.494-1.2,2.117-2.412,4.24-4.55,5.669-2.176,1.454-4.563,1.712-6.939,1.97-1.695.183-3.382.366-4.023.992-.64.656-.863,2.442-1.087,4.232-.3,2.413-.605,4.831-2.047,6.99s-3.555,3.316-5.655,4.465c-1.492.816-2.979,1.629-3.335,2.477l-.013-.005c-.33.88.144,2.6.619,4.333.647,2.357,1.3,4.719.8,7.208-.508,2.558-2.017,4.433-3.52,6.3-1.071,1.331-2.137,2.656-2.151,3.552.014.916,1.123,2.341,2.233,3.769,1.495,1.923,2.994,3.849,3.5,6.389s-.174,4.837-.846,7.135c-.479,1.637-.956,3.267-.63,4.113l.009,0c.358.854,1.925,1.746,3.494,2.638,2.118,1.2,4.24,2.412,5.669,4.55,1.454,2.176,1.712,4.563,1.97,6.939.183,1.695.366,3.383.991,4.024.655.639,2.442.863,4.232,1.087,2.412.3,4.83.6,6.99,2.047s3.315,3.555,4.464,5.655c.817,1.493,1.63,2.979,2.478,3.334l-.006.014c.88.329,2.6-.145,4.334-.619,2.357-.648,4.718-1.3,7.208-.8,2.558.508,4.433,2.016,6.3,3.519,1.331,1.07,2.656,2.138,3.552,2.151.916-.015,2.342-1.123,3.77-2.234,1.922-1.495,3.849-2.993,6.389-3.5s4.836.174,7.134.847c1.637.479,3.267.956,4.113.63l0-.009c.855-.358,1.746-1.924,2.639-3.494,1.2-2.117,2.411-4.239,4.549-5.668,2.177-1.454,4.564-1.713,6.939-1.969,1.7-.183,3.383-.366,4.024-.991.64-.656.864-2.442,1.087-4.232.3-2.412.605-4.83,2.047-6.99s3.555-3.316,5.655-4.464c1.492-.816,2.978-1.629,3.334-2.478l.013,0c.331-.88-.144-2.6-.619-4.333-.648-2.356-1.3-4.718-.8-7.208.508-2.558,2.017-4.433,3.52-6.3,1.071-1.331,2.137-2.656,2.151-3.553-.014-.915-1.122-2.341-2.232-3.769-1.495-1.923-2.994-3.85-3.5-6.39s.174-4.836.846-7.134c.479-1.638.957-3.267.631-4.113l-.009,0c-.358-.854-1.924-1.745-3.494-2.637-2.118-1.2-4.24-2.412-5.669-4.55-1.453-2.177-1.712-4.563-1.97-6.939-.183-1.7-.366-3.382-.992-4.024-.655-.641-2.441-.863-4.231-1.087-2.413-.3-4.832-.6-6.99-2.048s-3.316-3.554-4.464-5.655c-.817-1.493-1.63-2.979-2.478-3.334l.006-.013c-.881-.33-2.606.144-4.335.619-2.356.647-4.718,1.3-7.207.8C1057.4,1494.743,1055.526,1493.234,1053.66,1491.732Z" transform="translate(-981.183 -1476.596)" fillRule="evenodd" fill="url(#linear-gradient)"/>
      <path id="Path_41276" data-name="Path 41276" d="M1057.473,1493.594c3.867.018,6.714,4.972,10.5,5.724s8.624-2.67,12.193-1.21c3.566,1.5,4.3,7.162,7.507,9.3s8.99.834,11.728,3.548c2.723,2.745,1.234,8.263,3.375,11.468s7.987,4.211,9.478,7.767c1.464,3.578-2.024,8.105-1.271,11.887s5.767,6.946,5.784,10.8c-.017,3.866-4.971,6.714-5.723,10.5s2.669,8.625,1.21,12.193c-1.5,3.565-7.163,4.3-9.3,7.507s-.834,8.99-3.549,11.728c-2.745,2.722-8.263,1.233-11.469,3.375s-4.21,7.987-7.766,9.478c-3.578,1.463-8.105-2.024-11.887-1.272s-6.946,5.768-10.8,5.785c-3.866-.018-6.714-4.972-10.5-5.723s-8.625,2.67-12.193,1.21c-3.566-1.5-4.3-7.163-7.507-9.3s-8.99-.834-11.728-3.548c-2.722-2.746-1.234-8.264-3.375-11.469s-7.986-4.211-9.478-7.767c-1.464-3.579,2.024-8.106,1.271-11.887s-5.767-6.946-5.784-10.8c.017-3.867,4.972-6.714,5.724-10.5s-2.67-8.624-1.211-12.193c1.5-3.566,7.163-4.3,9.3-7.508s.834-8.989,3.548-11.727c2.746-2.722,8.263-1.233,11.468-3.375s4.211-7.987,7.767-9.478c3.579-1.464,8.106,2.023,11.887,1.271S1053.617,1493.611,1057.473,1493.594Z" transform="translate(-988.549 -1483.96)" fillRule="evenodd" fill="url(#linear-gradient-2)"/>
      <ellipse id="Ellipse_268" data-name="Ellipse 268" cx="50.251" cy="50.251" rx="50.251" ry="50.251" transform="translate(18.101 19.253) rotate(-0.657)" fill="url(#linear-gradient)"/>
      <path id="Path_41277" data-name="Path 41277" d="M1082.177,1529.537a48.053,48.053,0,1,1-33.978,14.074,47.9,47.9,0,0,1,33.978-14.074Zm33.426,14.625h0a47.271,47.271,0,1,0,13.847,33.427A47.125,47.125,0,0,0,1115.6,1544.162Z" transform="translate(-1013.253 -1508.664)" fill="#404040" fillRule="evenodd"/>
      <circle id="Ellipse_269" data-name="Ellipse 269" cx="48.737" cy="48.737" r="48.737" transform="translate(0 68.925) rotate(-45)" fill="url(#radial-gradient-2)"/>
      <path id="Path_41278" data-name="Path 41278" d="M1090.11,1576.752c-3.466,3.664-5.3,5.354-6.894,12.681-5.116,3.366-7.037,8.822-7.326,14.614a28.752,28.752,0,0,1-2.265-8.475,30.026,30.026,0,0,1,2.64-15.922c5.589-2.791,7.549-3.5,13.846-2.9Zm2.691-1.675h0c3.848-3.631,8.152-6.063,12.3-6.115a51.111,51.111,0,0,0-8.123,7.686c-1.3-1.181-3.493-1.788-4.177-1.571Zm-7.334,14.338h0c1.679-1,4.385-2.045,6.022-1.921,1.2-4.885,2.763-7.993,4.744-9.484-1.48-1.276-3.41-1.154-4.591-1.116-1.863.422-8.917,11.83-6.175,12.521Zm15.161-27.734h0a31.952,31.952,0,0,0-22.856,15.491c2.971-.73,6.48-4.865,13.586-2.331.3-.18-.014-.1.356-.2,3.21-4.964,9.624-5.718,11.931-6.9,2.807-.819.62-4.851.861-5.73C1105.547,1561.011,1100.875,1561.453,1100.628,1561.681Z" transform="translate(-1040.28 -1530.555)" fill="#fff" fillRule="evenodd"/>
      <path id="Path_41279" data-name="Path 41279" d="M1195.554,1711.068c4.065-2.987,6.165-4.325,9.043-11.25,5.635-2.4,8.5-7.427,9.814-13.073a28.664,28.664,0,0,1,.718,8.744,30.017,30.017,0,0,1-5.433,15.194c-6,1.751-8.055,2.1-14.141.385Zm-2.945,1.168h0c-4.434,2.884-9.1,4.514-13.193,3.826a51.156,51.156,0,0,0,9.361-6.115c1.07,1.4,3.118,2.381,3.832,2.29Zm9.77-12.8h0c-1.829.691-4.677,1.23-6.267.817-2.053,4.593-4.142,7.374-6.357,8.487,1.228,1.519,3.148,1.742,4.319,1.917,1.908-.084,10.882-10.049,8.3-11.221Zm-19.861,24.585h0a31.946,31.946,0,0,0,25.25-11.165c-3.053.189-7.242,3.63-13.781-.129-.33.123,0,.1-.388.133-4.041,4.311-10.488,3.91-12.969,4.661-2.906.306-1.473,4.662-1.867,5.485C1177.558,1723.8,1182.234,1724.2,1182.517,1724.019Z" transform="translate(-1112.53 -1616.717)" fill="#fff" fillRule="evenodd"/>
      <path id="Path_41280" data-name="Path 41280" d="M1118.109,1618.411a.317.317,0,0,0-.413-.481l-.218.186-.221.184-.22.183-.221.181-.088.072a.317.317,0,0,0,.4.492l.087-.071.225-.185.223-.186.223-.187.222-.189Zm.211-1.026h0l.024-.021.213-.191.211-.192.211-.192.208-.194.062-.058a.317.317,0,0,1,.436.46l-.063.06-.212.2-.212.2-.215.195-.216.193-.025.022a.317.317,0,0,1-.422-.474Zm2.277-2.172h0a.317.317,0,0,0,.453.443l.007-.007.2-.2.2-.206.2-.207.195-.208.086-.093a.317.317,0,0,0-.468-.429l-.083.092-.192.205-.193.2-.194.2-.2.2-.007.006Zm2.117-2.325h0a.317.317,0,0,0,.486.408l.145-.172.181-.216.179-.217.177-.22.129-.16a.317.317,0,0,0-.5-.4l-.127.158-.174.215-.177.214-.178.214-.146.172Zm1.949-2.471h0a.317.317,0,1,0,.513.373l.071-.1.163-.226.163-.227.159-.228.16-.228.023-.035a.317.317,0,0,0-.524-.357l-.021.031-.156.226-.158.224-.16.224-.162.223-.071.1Zm1.767-2.6h0a.317.317,0,0,0,.538.333l.14-.224.145-.235.143-.237.141-.237.094-.158a.317.317,0,0,0-.547-.319l-.091.155-.14.233-.141.234-.143.232-.139.224Zm1.577-2.724h0a.317.317,0,0,0,.56.3l.05-.093.127-.243.127-.244.125-.245.122-.245.033-.066a.317.317,0,0,0-.568-.279l-.031.063-.122.242-.123.241-.124.239-.127.241-.049.094Zm1.377-2.828h0a.318.318,0,0,0,.582.255l.081-.183.109-.251.108-.251.107-.252.1-.236a.317.317,0,0,0-.586-.24l-.1.233-.1.248-.106.248-.107.247-.082.183Zm1.175-2.92h0a.317.317,0,0,0,.6.215l0-.008.091-.256.091-.257.088-.256.087-.259.057-.172a.317.317,0,0,0-.6-.2l-.057.169-.085.254-.088.253-.088.254-.09.252,0,.008Zm.963-3h0a.317.317,0,0,0,.61.172l.021-.072.073-.261.072-.262.068-.262.069-.263.028-.115a.317.317,0,0,0-.614-.153l-.029.112-.067.259-.068.256-.07.259-.071.257-.021.072Zm.75-3.055h0a.317.317,0,0,0,.621.127l.027-.128.054-.266.052-.266.051-.265.049-.267.011-.062a.317.317,0,0,0-.621-.126l0,.018-.01.058-.048.262-.05.262-.052.262-.052.26-.028.13Zm.532-3.1h0a.317.317,0,0,0,.629.083l.025-.183.034-.268.033-.269.031-.269.03-.269,0-.011a.317.317,0,0,0-.617-.131l-.015.066v.009l-.029.264-.031.265-.032.265-.035.263-.024.184Zm.313-3.131h0a.317.317,0,0,0,.633.038l.014-.234.016-.27.014-.269.012-.271.008-.231a.317.317,0,0,0-.633-.022l-.01.227-.012.267-.013.265-.015.267-.015.232Zm.092-3.147h0a.317.317,0,0,0,.634,0v-.016l0-.269,0-.271-.006-.269-.008-.271-.006-.181a.317.317,0,0,0-.634.023l.006.177.007.266.006.266,0,.267,0,.267v.015Zm-.13-3.143h0a.317.317,0,0,0,.631-.05l-.005-.069-.022-.271-.024-.269-.025-.269-.026-.27-.014-.124a.322.322,0,0,0-.323-.283.316.316,0,0,0-.307.351l.013.12.026.266.026.266.023.266.022.266.006.069Zm-.353-3.127h0a.317.317,0,0,0,.628-.094l-.02-.128-.041-.269-.042-.269-.046-.268-.047-.267-.01-.059a.317.317,0,0,0-.623.113l.01.057.046.264.044.264.042.264.041.265.019.128Zm-.572-3.092h0a.317.317,0,0,0,.619-.14l-.044-.2-.061-.266-.063-.265-.065-.266-.062-.249a.317.317,0,0,0-.614.155l.061.246.063.261.062.262.06.261.044.2Zm-.791-3.048h0a.317.317,0,0,0,.608-.179l0-.015-.08-.262-.081-.262-.082-.261-.084-.261-.052-.158a.317.317,0,0,0-.6.2l.051.154.082.258.081.257.08.258.078.259,0,.013Zm-1.005-2.981h0a.317.317,0,0,0,.593-.224l-.041-.112-.1-.257-.1-.258-.1-.256-.1-.255-.021-.051a.317.317,0,0,0-.585.243l.019.048.1.252.1.253.1.253.1.255.041.109Zm-1.214-2.9h0a.317.317,0,0,0,.574-.269l-.1-.222-.119-.252-.12-.252-.122-.25-.086-.175a.317.317,0,0,0-.567.283l.084.17.12.248.119.248.117.248.105.223Zm-1.42-2.808h0a.317.317,0,0,0,.554-.308l-.061-.111-.137-.246-.138-.244-.14-.244-.142-.243-.013-.023a.317.317,0,0,0-.545.324l.011.02.141.24.139.24.136.241.136.241.061.111Zm-1.616-2.7h0a.317.317,0,0,0,.531-.345l-.021-.032-.155-.237-.156-.237-.159-.236-.161-.235-.057-.085a.317.317,0,0,0-.521.362l.055.08.159.233.156.232.155.235.154.234.021.032Zm-1.8-2.577h0a.317.317,0,0,0,.5-.385l-.165-.218-.176-.229-.176-.226-.179-.228-.086-.107a.317.317,0,0,0-.495.4l.084.1.176.224.175.226.173.225.165.218Zm-1.98-2.446h0a.317.317,0,0,0,.477-.418l-.177-.2-.192-.217-.194-.217-.195-.215-.093-.1a.316.316,0,0,0-.465.429l.089.1.192.213.191.213.19.214.177.2Zm-2.145-2.3h0a.317.317,0,0,0,.446-.451l-.178-.176-.2-.2-.205-.2-.206-.2-.122-.116a.317.317,0,0,0-.434.462l.119.112.2.195.2.2.2.2.178.177Zm-2.3-2.146h0a.317.317,0,0,0,.413-.481l-.142-.124-.214-.184-.216-.181-.217-.18-.185-.153a.317.317,0,0,0-.4.49l.182.15.214.178.213.18.211.181.143.124Zm-2.448-1.977h0a.317.317,0,0,0,.38-.508l-.073-.055-.224-.167-.226-.165-.225-.164-.227-.162-.057-.04a.317.317,0,0,0-.363.519l.053.038.225.16.223.161.221.163.221.164.073.055Zm-2.581-1.8h0a.317.317,0,0,0,.34-.535l-.2-.129-.234-.149-.235-.146-.236-.145-.176-.107a.317.317,0,0,0-.328.544l.173.1.232.143.232.144.231.146.2.129Zm-2.7-1.61h0a.317.317,0,0,0,.3-.557l-.074-.04-.243-.131-.243-.13-.244-.127-.244-.126-.083-.042a.317.317,0,1,0-.286.566l.079.041.241.124.241.126.239.128.238.129.074.04Zm-2.812-1.411h0a.318.318,0,0,0,.262-.578l-.166-.075-.251-.112-.249-.111-.25-.108-.251-.108a.317.317,0,0,0-.248.584l.247.105.248.108.246.109.246.11.166.076Zm-2.9-1.208h0a.317.317,0,0,0,.219-.6l-.247-.092-.256-.093-.256-.091-.257-.09-.186-.064a.318.318,0,0,0-.2.6l.182.063.253.088.252.09.253.092.247.092Zm-2.986-1h0a.317.317,0,1,0,.18-.608l-.059-.018-.26-.075-.262-.073-.26-.073-.261-.071-.127-.035a.317.317,0,0,0-.161.614l.123.032.258.07.257.071.258.073.256.075.058.018Zm-3.046-.786h0a.317.317,0,0,0,.135-.619l-.118-.026-.264-.056-.265-.056-.265-.053-.266-.052-.074-.014a.317.317,0,0,0-.117.623l.07.013.263.051.262.053.26.054.261.056.117.026Zm-3.095-.568h0a.318.318,0,0,0,.107-.625l-.016,0-.171-.024-.268-.039-.267-.036-.267-.035-.268-.032-.023,0a.318.318,0,0,0-.116.622l.045.008.019,0,.265.033.264.034.264.036.264.036.17.026Zm-3.127-.35h0a.317.317,0,0,0,.048-.632h0l-.222-.016-.27-.019-.27-.017-.269-.015-.242-.013a.317.317,0,0,0-.031.634l.239.013.266.014.266.017.266.017.221.017Zm-3.145-.128h0a.317.317,0,0,0,0-.634h-.545l-.27,0-.27,0-.192,0a.317.317,0,0,0,.016.634l.188,0,.267,0,.266,0h.537Zm-3.144.094h0a.317.317,0,0,0-.043-.633l-.056,0-.271.018-.269.021-.27.022-.269.024-.137.011a.318.318,0,0,0,.021.633l.04,0,.133-.013.266-.023.266-.021.267-.02.267-.019.057,0Zm-3.132.316h0a.317.317,0,1,0-.087-.628l-.115.016-.269.038-.268.04-.269.04-.268.044-.074.013a.317.317,0,0,0,.107.624l.07-.011.264-.042.265-.041.264-.039.265-.038.115-.015Zm-3.1.535h0a.317.317,0,0,0-.133-.62l-.181.038-.265.058-.267.059-.265.061-.266.064a.317.317,0,0,0,.148.616l.262-.062.261-.06.263-.058.262-.057.182-.039Zm-3.055.754h0a.317.317,0,0,0-.178-.608l-.256.074-.263.078-.262.079-.262.08-.177.056a.317.317,0,0,0,.193.6l.173-.055.257-.079.259-.079.26-.076.257-.076Zm-2.994.971h0a.317.317,0,0,0-.219-.6l-.09.033-.259.1-.257.1-.257.1-.257.1-.073.029a.317.317,0,0,0,.236.588l.069-.027.254-.1.253-.1.254-.095.254-.094.092-.034Zm-2.916,1.181h0a.317.317,0,0,0-.262-.578l-.2.09-.253.116-.253.117-.251.119-.2.1a.317.317,0,0,0,.276.571l.2-.1.249-.117.247-.115.249-.113.2-.09Zm-2.826,1.386h0a.317.317,0,0,0-.3-.558l-.084.046-.246.133-.246.136-.245.136-.243.139-.054.029a.317.317,0,0,0,.318.549l.049-.028.24-.137.243-.136.24-.132.243-.132.083-.045Zm-2.719,1.585h0a.317.317,0,0,0-.338-.536l-.239.152-.239.153-.237.155-.238.157-.118.08a.317.317,0,0,0,.356.525l.115-.078.233-.154.234-.154.236-.151.235-.15Zm-2.6,1.771h0a.318.318,0,0,0-.379-.51l-.182.136-.23.172-.228.174-.228.175-.147.113a.317.317,0,0,0,.39.5l.144-.112.224-.174.227-.171.227-.168.183-.135Zm-2.469,1.951h0a.317.317,0,0,0-.413-.481l-.164.141-.221.19-.219.191-.216.193-.139.124a.317.317,0,0,0,.425.471l.135-.122.214-.189.216-.189.218-.188.165-.141Zm-2.327,2.118h0a.317.317,0,0,0-.445-.45l-.148.144-.2.2-.2.2-.2.2-.146.151a.317.317,0,0,0,.457.44l.143-.148.2-.2.2-.2.2-.2.148-.146Zm-2.173,2.277h0a.317.317,0,0,0-.476-.419l-.1.113-.187.214-.185.214-.184.214-.177.21a.317.317,0,0,0,.486.408l.175-.207.181-.212.182-.211.184-.209.1-.115Zm-2.006,2.426h0a.317.317,0,0,0-.5-.386l-.037.048-.17.222-.168.225-.167.224-.165.225-.057.08a.317.317,0,0,0,.515.369l.055-.077.162-.222.165-.222.166-.22.168-.22.037-.048Zm-1.827,2.56h0a.317.317,0,0,0-.531-.347l-.118.178-.151.232-.149.234-.148.234-.122.2a.317.317,0,0,0,.538.335l.12-.193.146-.231.148-.229.149-.229.118-.179Zm-1.642,2.686h0a.317.317,0,0,0-.553-.31l-.031.055-.135.241-.132.241-.131.242-.129.242-.053.1a.317.317,0,0,0,.562.294l.051-.1.127-.239.129-.238.131-.238.131-.238.031-.055Zm-1.444,2.8h0a.317.317,0,0,0-.575-.27l-.07.149-.116.248-.113.249-.112.25-.111.25-.008.016a.317.317,0,0,0,.582.252l.006-.014.109-.246.11-.246.112-.246.115-.245.07-.149Zm-1.242,2.89h0a.317.317,0,0,0-.593-.227l-.089.232-.1.255-.094.256-.093.255-.071.2a.317.317,0,0,0,.6.213l.07-.195.092-.252.093-.253.1-.251.089-.231Zm-1.034,2.973h0a.318.318,0,0,0-.607-.187l-.014.046-.078.26-.077.26-.076.261-.074.26-.039.139a.317.317,0,0,0,.611.167l.037-.134.074-.258.075-.256.077-.257.077-.256.015-.045Zm-.821,3.036h0a.317.317,0,0,0-.618-.141l-.025.105-.059.264-.058.264-.057.265-.055.264-.017.085a.317.317,0,0,0,.621.124l.016-.081.055-.261.056-.261.057-.26.06-.261.024-.106Zm-.6,3.088h0a.317.317,0,0,0-.627-.1l-.025.16-.041.267-.039.267-.038.267-.036.268,0,.034a.316.316,0,0,0,.627.08l0-.032.036-.263.037-.264.039-.264.04-.264.025-.159Zm-.386,3.122h0a.317.317,0,0,0-.631-.052l-.018.211-.022.269-.02.269-.018.27-.016.252a.317.317,0,0,0,.633.038l.015-.249.018-.267.021-.266.021-.265.018-.211Zm-.165,3.141h0a.317.317,0,0,0-.634-.006l0,.261,0,.271v.54l0,.2a.317.317,0,0,0,.634-.009l0-.2v-.532l0-.267,0-.261Zm.057,3.149h0a.317.317,0,0,0-.634.035l0,.043.016.271.017.27.019.271.021.27.011.15a.317.317,0,0,0,.631-.055l-.011-.145-.021-.266-.018-.267-.017-.266-.015-.266,0-.044Zm.278,3.133h0a.317.317,0,0,0-.631.025v.055l.013.1.035.269.037.269.038.269.04.269.013.089a.317.317,0,0,0,.627-.1l-.013-.084-.039-.265-.038-.265-.036-.265-.034-.265-.013-.1Zm.5,3.108h0a.317.317,0,0,0-.621.125l.033.166.054.266.056.267.059.266.059.265,0,.018a.317.317,0,0,0,.617-.144l0-.014-.058-.263-.058-.263-.055-.261-.053-.265-.033-.165Zm.719,3.062h0a.317.317,0,0,0-.611.17l.066.242.074.264.076.261.077.263.059.2a.317.317,0,0,0,.606-.186l-.057-.191-.076-.259-.075-.258-.073-.259-.066-.242Zm.934,3.006h0a.317.317,0,0,0-.6.211l.025.071.092.26.094.257.1.259.1.257.037.1a.317.317,0,0,0,.591-.229l-.035-.091-.1-.254-.093-.255-.093-.255-.091-.255-.026-.072Zm1.146,2.93h0a.317.317,0,0,0-.58.253l.078.18.113.254.114.252.115.253.1.225a.317.317,0,0,0,.574-.268l-.1-.222-.113-.25-.112-.249-.11-.25-.078-.178Zm1.354,2.841h0a.317.317,0,0,0-.562.294l.03.057.13.247.132.248.134.245.135.246.045.081a.317.317,0,0,0,.553-.311l-.043-.077-.133-.243-.132-.243-.13-.243-.128-.244-.03-.057Zm1.551,2.736h0a.317.317,0,0,0-.538.336l.129.208.151.239.152.239.153.239.1.151a.317.317,0,0,0,.529-.349l-.1-.148-.151-.235-.149-.235-.148-.237-.129-.208Zm1.743,2.622h0a.317.317,0,0,0-.514.371l.107.148.169.232.171.231.171.231.14.184a.317.317,0,0,0,.5-.384l-.138-.183-.17-.227-.168-.228-.166-.229-.107-.148Zm1.922,2.492h0a.317.317,0,0,0-.486.406l.105.126.187.222.189.222.19.221.157.179a.317.317,0,0,0,.476-.419l-.155-.176-.187-.218-.186-.218-.184-.221-.106-.124Zm2.092,2.35h0a.317.317,0,0,0-.457.438l.111.117.2.206.2.205.2.2.178.179a.317.317,0,0,0,.446-.452l-.177-.175-.2-.2-.2-.2-.2-.2-.111-.117Zm2.251,2.2h0a.317.317,0,0,0-.426.471l.084.077.211.19.213.188.214.187.213.184.023.02a.317.317,0,0,0,.411-.483l-.02-.017-.211-.183-.209-.184-.21-.185-.208-.188-.084-.077Zm2.4,2.034h0a.317.317,0,0,0-.392.5l.022.018.221.173.222.172.223.17.224.168.1.075a.316.316,0,0,0,.376-.509l-.1-.074-.221-.166-.219-.167-.219-.169-.218-.17-.022-.019Zm2.539,1.859h0a.317.317,0,0,0-.354.526l.155.1.231.155.232.153.233.151.215.137a.317.317,0,0,0,.341-.534l-.211-.136-.23-.149-.228-.15-.227-.152-.155-.1Zm2.666,1.673h0a.317.317,0,0,0-.317.549l.036.021.24.137.239.135.242.134.24.132.119.064a.317.317,0,0,0,.3-.558l-.115-.062-.238-.131-.237-.133-.237-.133-.235-.135-.036-.021Zm2.777,1.477h0a.317.317,0,0,0-.276.571l.133.064.247.119.248.116.248.115.249.115.032.014a.317.317,0,0,0,.259-.578l-.029-.014-.245-.112-.245-.114-.244-.115-.244-.117-.132-.064Zm2.875,1.276h0a.317.317,0,0,0-.233.59l.216.087.254.1.254.1.254.1.212.078a.317.317,0,0,0,.218-.595l-.208-.078-.25-.094-.25-.1-.251-.1-.216-.087Zm2.96,1.069h0a.317.317,0,0,0-.193.6l.033.01.259.082.26.08.259.08.26.078.151.043a.317.317,0,0,0,.175-.609l-.148-.042-.256-.076-.256-.078-.255-.079-.255-.081-.033-.011Zm3.029.857h0a.317.317,0,0,0-.15.616l.093.022.263.063.264.062.265.06.264.057.1.021a.317.317,0,0,0,.132-.621l-.094-.02-.26-.057-.261-.059-.26-.06-.259-.062-.093-.023Zm3.079.64h0a.317.317,0,0,0-.1.626l.147.025.267.044.267.042.267.041.267.04.045.007a.322.322,0,0,0,.309-.141.317.317,0,0,0-.222-.488l-.042-.005-.264-.039-.264-.04-.262-.042-.262-.044-.149-.025Zm3.119.423h0a.317.317,0,0,0-.185.592.322.322,0,0,0,.124.039l.2.02.269.025.269.023.27.02.263.021a.318.318,0,0,0,.048-.633h0l-.26-.019-.266-.021-.265-.022-.266-.025-.2-.019Zm3.139.2h0a.317.317,0,0,0-.014.634l.25.007.27.005.271,0,.27,0h.214a.317.317,0,0,0,0-.634h-.211l-.266,0-.266,0-.267,0-.25-.007Zm3.149-.021h0a.317.317,0,0,0,.021.634h.04l.27-.013.27-.014.27-.015.27-.016.162-.012a.317.317,0,0,0-.046-.632l-.158.01-.266.017-.266.016-.266.013-.266.012Zm3.137-.242h0a.317.317,0,0,0,.005.631h.067l.09-.01.269-.033.269-.033.269-.035.269-.036.1-.015a.317.317,0,0,0-.09-.627l-.1.014-.265.035-.266.035-.266.034-.263.031-.09.01Zm3.112-.462h0a.317.317,0,0,0,.118.623l.152-.029.266-.052.268-.052.266-.054.267-.056.033-.008a.317.317,0,0,0-.136-.62l-.029.006-.262.055-.264.054-.263.052-.263.051-.153.029Zm3.072-.682h0a.317.317,0,0,0,.162.613l.226-.059.264-.071.263-.072.264-.074.214-.063a.317.317,0,0,0-.178-.608l-.21.061-.259.072-.259.072-.261.07-.225.059Zm3.016-.9h0a.317.317,0,0,0,.2.6l.052-.018.26-.089.259-.091.26-.091.257-.095.115-.043a.317.317,0,0,0-.222-.593l-.11.041-.255.092-.256.092-.257.089-.256.088-.052.017Zm2.943-1.111h0a.317.317,0,0,0,.248.584l.157-.066.254-.109.255-.11.254-.113.25-.112a.317.317,0,0,0-.261-.578l-.247.111-.251.111-.25.108-.251.108-.157.066Zm2.858-1.319h0a.317.317,0,0,0,.286.565l.032-.016.248-.126.249-.13.247-.13.248-.132.108-.059a.317.317,0,0,0-.3-.556l-.1.058-.244.13-.243.129-.245.126-.245.125-.032.016Zm2.754-1.519h0a.317.317,0,0,0,.329.542l.18-.107.24-.147.24-.149.24-.15.184-.118a.317.317,0,0,0-.341-.533l-.181.115-.238.148-.236.146-.238.145-.18.108Zm2.641-1.711h0a.317.317,0,0,0,.365.517l.115-.08.233-.165.233-.168.232-.168.223-.165a.317.317,0,0,0-.378-.508l-.22.162-.228.166-.229.165-.231.162Z" transform="translate(-1019.878 -1515.286)" fillRule="evenodd" fill="url(#linear-gradient)"/>
      <g id="Group_37409" data-name="Group 37409" transform="translate(21.819 20.872)" style="mix-blend-mode: soft-light;isolation: isolate">
        <g id="Group_37358" data-name="Group 37358" transform="translate(0 0)">
          <path id="Path_42124" data-name="Path 42124" d="M151,80.326,158.331,98,199.1,70.752,151,80.326Z" transform="translate(-150.961 -22.609)" fill="url(#linear-gradient-5)"/>
          <path id="Path_42125" data-name="Path 42125" d="M196.994,70.752,169.75,111.535l17.681,7.316,9.563-48.1Z" transform="translate(-148.851 -22.609)" fill="url(#linear-gradient-6)"/>
          <path id="Path_42126" data-name="Path 42126" d="M198.361,70.752,157.59,98l13.529,13.535,27.244-40.783Z" transform="translate(-150.219 -22.609)" fill="url(#linear-gradient-7)"/>
          <path id="Path_42127" data-name="Path 42127" d="M199.1,71.719l-48.1-9.563,0,19.137,48.1-9.574Z" transform="translate(-150.961 -23.576)" fill="url(#linear-gradient-6)"/>
          <path id="Path_42128" data-name="Path 42128" d="M185.643,118.851h0l19.135,0-9.574-48.1-9.563,48.1Z" transform="translate(-147.063 -22.609)" fill="url(#linear-gradient-9)"/>
          <path id="Path_42129" data-name="Path 42129" d="M199.1,73.508,158.322,46.264l-7.316,17.681,48.1,9.563Z" transform="translate(-150.96 -25.365)" fill="url(#linear-gradient-7)"/>
          <path id="Path_42130" data-name="Path 42130" d="M235.024,98,194.24,70.754h0l27.248,40.772L235.024,98Z" transform="translate(-146.095 -22.609)" fill="url(#linear-gradient-6)"/>
          <path id="Path_42131" data-name="Path 42131" d="M194.238,70.752l9.574,48.1,17.677-7.327L194.24,70.754l0,0Z" transform="translate(-146.095 -22.609)" fill="url(#linear-gradient-7)"/>
          <path id="Path_42132" data-name="Path 42132" d="M196.994,75.617l-9.571-48.1-17.676,7.329,27.247,40.772Z" transform="translate(-148.851 -27.474)" fill="url(#linear-gradient-7)"/>
          <path id="Path_42133" data-name="Path 42133" d="M194.238,73.508l0,0h0l48.1-9.574-7.331-17.679-40.775,27.25Z" transform="translate(-146.095 -25.365)" fill="url(#linear-gradient-9)"/>
          <path id="Path_42134" data-name="Path 42134" d="M242.34,81.285l0-19.137-48.1,9.574,48.1,9.563Z" transform="translate(-146.095 -23.577)" fill="url(#linear-gradient-5)"/>
          <path id="Path_42135" data-name="Path 42135" d="M198.363,74.876,171.116,34.1,157.582,47.632l40.781,27.244Z" transform="translate(-150.22 -26.733)" fill="url(#linear-gradient-16)"/>
          <path id="Path_42136" data-name="Path 42136" d="M194.238,74.877l40.775-27.25L221.482,34.094,194.239,74.875v0Z" transform="translate(-146.095 -26.734)" fill="url(#linear-gradient-7)"/>
          <path id="Path_42137" data-name="Path 42137" d="M194.24,70.754,235.024,98l7.316-17.681-48.1-9.563Z" transform="translate(-146.095 -22.609)" fill="url(#linear-gradient-9)"/>
          <path id="Path_42138" data-name="Path 42138" d="M221.482,34.834,203.8,27.517h0l-9.563,48.1,27.243-40.781Z" transform="translate(-146.095 -27.474)" fill="url(#linear-gradient-5)"/>
          <path id="Path_42139" data-name="Path 42139" d="M195.208,75.615l9.563-48.1-19.135,0,9.571,48.1v0Z" transform="translate(-147.063 -27.474)" fill="url(#linear-gradient-6)"/>
          <path id="Path_42140" data-name="Path 42140" d="M198.408,89.776l-3.785-19.024-3.782,19.024,3.785,29.121,3.782-29.121Z" transform="translate(-146.478 -22.609)" fill="url(#linear-gradient-7)"/>
          <path id="Path_42141" data-name="Path 42141" d="M194.617,27.479,190.838,56.6l3.785,19.024L198.406,56.6l-3.789-29.119Z" transform="translate(-146.478 -27.479)" fill="url(#linear-gradient-7)"/>
          <path id="Path_42142" data-name="Path 42142" d="M205.018,86.877,194.24,70.752l3.785,19.024,14.642,25.453-7.65-28.352Z" transform="translate(-146.095 -22.609)" fill="url(#linear-gradient-5)"/>
          <path id="Path_42143" data-name="Path 42143" d="M192.319,56.227,177.676,30.773l7.65,28.35L196.1,75.251l-3.785-19.024Z" transform="translate(-147.959 -27.108)" fill="url(#linear-gradient-6)"/>
          <path id="Path_42144" data-name="Path 42144" d="M210.367,81.525,194.24,70.752l10.778,16.125,23.268,17.913L210.367,81.525Z" transform="translate(-146.095 -22.609)" fill="url(#linear-gradient-9)"/>
          <path id="Path_42145" data-name="Path 42145" d="M186.905,58.067,163.638,40.156l17.918,23.263,16.128,10.775L186.905,58.067Z" transform="translate(-149.539 -26.052)" fill="url(#linear-gradient-5)"/>
          <path id="Path_42146" data-name="Path 42146" d="M213.264,74.535,194.24,70.752l16.126,10.773,28.353,7.647L213.264,74.535Z" transform="translate(-146.095 -22.609)" fill="url(#linear-gradient-7)"/>
          <path id="Path_42147" data-name="Path 42147" d="M182.611,61.84,154.257,54.2l25.457,14.637,19.026,3.783L182.611,61.84Z" transform="translate(-150.594 -24.472)" fill="url(#linear-gradient-9)"/>
          <path id="Path_42148" data-name="Path 42148" d="M213.262,67.35,194.24,71.135l19.024,3.783,29.119-3.787L213.262,67.35Z" transform="translate(-146.095 -22.992)" fill="url(#linear-gradient-6)"/>
          <path id="Path_42149" data-name="Path 42149" d="M180.084,67.352l-29.119,3.787,29.121,3.781,19.024-3.785-19.026-3.783Z" transform="translate(-150.965 -22.992)" fill="url(#linear-gradient-7)"/>
          <path id="Path_42150" data-name="Path 42150" d="M238.718,54.188h0l0,0L210.367,61.84,194.24,72.616l19.022-3.785L238.714,54.19l0,0Z" transform="translate(-146.095 -24.473)" fill="url(#linear-gradient-16)"/>
          <path id="Path_42151" data-name="Path 42151" d="M179.715,74.537,154.262,89.178l.017-.006-.016.006,28.349-7.649,16.127-10.778-19.024,3.785Z" transform="translate(-150.594 -22.609)" fill="url(#linear-gradient-6)"/>
          <path id="Path_42152" data-name="Path 42152" d="M212.66,30.772l0,0v0l0,.009L198.023,56.227,194.24,75.251l10.774-16.127,7.641-28.346,0-.007Z" transform="translate(-146.095 -27.108)" fill="url(#linear-gradient-9)"/>
          <path id="Path_42153" data-name="Path 42153" d="M228.281,40.15l0,0v0l0,0L205.015,58.068,194.24,74.2,210.367,63.42l17.91-23.268,0,0Z" transform="translate(-146.095 -26.053)" fill="url(#linear-gradient-5)"/>
          <path id="Path_42154" data-name="Path 42154" d="M185.329,86.881l-7.648,28.352,14.64-25.458L196.1,70.752l-10.774,16.13Z" transform="translate(-147.958 -22.609)" fill="url(#linear-gradient-5)"/>
          <path id="Path_42155" data-name="Path 42155" d="M181.556,81.53,163.643,104.8l.026-.024-.026.024,23.266-17.916,10.774-16.13L181.556,81.53Z" transform="translate(-149.538 -22.609)" fill="url(#linear-gradient-9)"/>
        </g>
        <g id="Group_37360" data-name="Group 37360" transform="translate(0.042 0.043)" opacity="0.7">
          <path id="Path_42156" data-name="Path 42156" d="M195.206,109.473l-9.568,5.024h19.138l-9.569-5.024Z" transform="translate(-147.105 -18.295)" fill="url(#linear-gradient-6)"/>
          <path id="Path_42157" data-name="Path 42157" d="M195.206,32.541l-9.568-5.024h19.138l-9.569,5.024Z" transform="translate(-147.105 -27.517)" fill="url(#linear-gradient-6)"/>
          <path id="Path_42158" data-name="Path 42158" d="M209.756,106.525l-6.917,8.3h0l17.679-7.323h0l-10.763-.98Z" transform="translate(-145.17 -18.627)" fill="url(#linear-gradient-6)"/>
          <path id="Path_42159" data-name="Path 42159" d="M180.509,35.82l-10.761-.982h0l17.677-7.321h0l-6.919,8.3Z" transform="translate(-148.894 -27.517)" fill="url(#linear-gradient-9)"/>
          <path id="Path_42160" data-name="Path 42160" d="M221.943,98.458l-3.213,10.317h0l13.53-13.531h0l-10.319,3.214Z" transform="translate(-143.382 -19.896)" fill="url(#linear-gradient-9)"/>
          <path id="Path_42161" data-name="Path 42161" d="M167.9,44.417l-10.317,3.216v0L171.117,34.1h0L167.9,44.417Z" transform="translate(-150.262 -26.777)" fill="url(#linear-gradient-7)"/>
          <path id="Path_42162" data-name="Path 42162" d="M230.013,86.27l.98,10.762h0l7.322-17.679h0l-8.3,6.916Z" transform="translate(-142.112 -21.685)" fill="url(#linear-gradient-5)"/>
          <path id="Path_42163" data-name="Path 42163" d="M159.307,57.024,151,63.943v0l7.324-17.677v0l.98,10.762Z" transform="translate(-151.003 -25.408)" fill="url(#linear-gradient-5)"/>
          <path id="Path_42164" data-name="Path 42164" d="M232.96,71.72l5.023,9.57h0V62.152L232.96,71.72Z" transform="translate(-141.78 -23.62)" fill="url(#linear-gradient-7)"/>
          <path id="Path_42165" data-name="Path 42165" d="M156.027,71.72,151,81.289h0V62.152l5.024,9.567Z" transform="translate(-151.003 -23.62)" fill="url(#linear-gradient-6)"/>
          <path id="Path_42166" data-name="Path 42166" d="M230.013,57.024l8.3,6.916h0l-7.322-17.677v0l-.98,10.762Z" transform="translate(-142.112 -25.408)" fill="url(#linear-gradient-16)"/>
          <path id="Path_42167" data-name="Path 42167" d="M159.307,86.27l-.978,10.762h0L151,79.354h0l8.3,6.916Z" transform="translate(-151.003 -21.685)" fill="url(#linear-gradient-9)"/>
          <path id="Path_42168" data-name="Path 42168" d="M221.944,44.417l10.318,3.214h0L218.732,34.1h0l3.214,10.319Z" transform="translate(-143.382 -26.777)" fill="url(#linear-gradient-5)"/>
          <path id="Path_42169" data-name="Path 42169" d="M167.9,98.456l3.216,10.319h0l-13.53-13.531h0L167.9,98.456Z" transform="translate(-150.262 -19.896)" fill="url(#linear-gradient-9)"/>
          <path id="Path_42170" data-name="Path 42170" d="M209.756,35.82l10.763-.982h0l-17.678-7.321h0l6.917,8.3Z" transform="translate(-145.17 -27.517)" fill="url(#linear-gradient-6)"/>
          <path id="Path_42171" data-name="Path 42171" d="M208.245,101.568l-8.109-4.17-5.9,6.958v6.475l9.568,5.024h0l6.916-8.3-2.479-5.984Z" transform="translate(-146.138 -19.654)" fill="url(#linear-gradient-9)"/>
          <path id="Path_42172" data-name="Path 42172" d="M181.9,41.8l8.109,4.172,5.9-6.956V32.541l-9.566-5.024h0l-6.916,8.3L181.9,41.8Z" transform="translate(-147.805 -27.517)" fill="url(#linear-gradient-16)"/>
          <path id="Path_42173" data-name="Path 42173" d="M209.615,93.344l-2.787,8.681,2.479,5.984,10.763.98,3.213-10.317-4.579-4.58Z" transform="translate(-144.721 -20.11)" fill="url(#linear-gradient-54)"/>
          <path id="Path_42174" data-name="Path 42174" d="M180.528,49.745h0l2.786-8.681-2.479-5.984-10.76-.982h0v0l-3.214,10.317L171.44,49Z" transform="translate(-149.219 -26.777)" fill="url(#linear-gradient-5)"/>
          <path id="Path_42175" data-name="Path 42175" d="M225.511,83.342l-8.683,2.788h0l.749,9.087,4.579,4.58,10.319-3.214-.98-10.762-5.985-2.479Z" transform="translate(-143.596 -21.236)" fill="url(#linear-gradient-6)"/>
          <path id="Path_42176" data-name="Path 42176" d="M173.232,57.041l-.75-9.087h0l-4.58-4.58-10.315,3.216,0,0v0l.98,10.76,5.985,2.479Z" transform="translate(-150.262 -25.733)" fill="url(#linear-gradient-6)"/>
          <path id="Path_42177" data-name="Path 42177" d="M234.319,70.752l-6.48,0h0l-6.955,5.9h0l4.168,8.107,5.985,2.479,8.3-6.916Z" transform="translate(-143.139 -22.652)" fill="url(#linear-gradient-9)"/>
          <path id="Path_42178" data-name="Path 42178" d="M169.461,66.524h0l-4.169-8.109h0l-5.985-2.479-8.3,6.916h0v0l5.023,9.565,6.478,0Z" transform="translate(-151.003 -24.32)" fill="url(#linear-gradient-54)"/>
          <path id="Path_42179" data-name="Path 42179" d="M225.423,58.415l-4.17,8.109-3.645.726h0l3.646-.726,6.952,5.9,6.48,0,5.023-9.567-8.3-6.916-5.986,2.479Z" transform="translate(-143.508 -24.32)" fill="url(#linear-gradient-5)"/>
          <path id="Path_42180" data-name="Path 42180" d="M169.461,76.649h0l-6.956-5.9h0l-6.478,0-5.021,9.57h0l8.3,6.916,5.985-2.479Z" transform="translate(-151.003 -22.652)" fill="url(#linear-gradient-5)"/>
          <path id="Path_42181" data-name="Path 42181" d="M216.829,57.041l8.681,2.788,5.986-2.479.98-10.762-10.318-3.214-4.58,4.58Z" transform="translate(-143.596 -25.733)" fill="url(#linear-gradient-6)"/>
          <path id="Path_42182" data-name="Path 42182" d="M173.233,86.13h0l-8.682-2.788h0l-5.985,2.479-.978,10.76,0,0L167.9,99.795l4.583-4.58Z" transform="translate(-150.262 -21.236)" fill="url(#linear-gradient-7)"/>
          <path id="Path_42183" data-name="Path 42183" d="M200.136,45.974h0l8.11-4.168,2.478-5.986-6.916-8.3h0l-9.568,5.024v6.477Z" transform="translate(-146.138 -27.517)" fill="url(#linear-gradient-7)"/>
          <path id="Path_42184" data-name="Path 42184" d="M206.83,41.064l2.784,8.681h0L218.7,49l4.58-4.58L220.07,34.1l-10.762.982-2.478,5.986Z" transform="translate(-144.721 -26.777)" fill="url(#linear-gradient-54)"/>
          <path id="Path_42185" data-name="Path 42185" d="M180.529,93.342v0l-9.086.748v0l-4.583,4.58,3.215,10.317v0h0l10.759-.98,2.48-5.986Z" transform="translate(-149.219 -20.11)" fill="url(#linear-gradient-6)"/>
          <path id="Path_42186" data-name="Path 42186" d="M190.011,97.4l-8.109,4.168v0l-2.48,5.986,6.918,8.3,0,0,9.568-5.024v-6.475Z" transform="translate(-147.805 -19.654)" fill="url(#linear-gradient-7)"/>
          <g id="Group_37359" data-name="Group 37359" transform="translate(11.501 11.501)">
            <path id="Path_42187" data-name="Path 42187" d="M184.69,57.341l7.3-3.02-1.223-6.147-.725-3.644-8.109-4.172v0l-2.786,8.681,2.064,3.09Z" transform="translate(-159.337 -37.574)" fill="url(#linear-gradient-68)"/>
            <path id="Path_42188" data-name="Path 42188" d="M174.815,58.642l5.212,3.481h0l5.582-5.584h0l-3.48-5.208v0l-2.063-3.088v0h0l-9.088-.748h0l.75,9.087h0Z" transform="translate(-160.257 -36.771)" fill="url(#linear-gradient-69)"/>
            <path id="Path_42189" data-name="Path 42189" d="M177.807,68.5l3.023-7.3-5.212-3.481-3.09-2.064-8.681,2.788h0l4.169,8.109h0l3.643.724Z" transform="translate(-161.059 -35.852)" fill="url(#linear-gradient-70)"/>
            <path id="Path_42190" data-name="Path 42190" d="M212.084,75.3l6.147,1.223,3.644.726,6.955-5.9h0l-6.952-5.9-3.646.726L212.084,67.4v7.9Z" transform="translate(-155.631 -34.75)" fill="url(#linear-gradient-71)"/>
            <path id="Path_42191" data-name="Path 42191" d="M178.089,67.4h0l-6.149-1.223-3.642-.724-6.955,5.9h0l6.956,5.9,3.644-.726,6.148-1.223h0Z" transform="translate(-161.341 -34.75)" fill="url(#linear-gradient-72)"/>
            <path id="Path_42192" data-name="Path 42192" d="M214.58,57.722v0l-3.97,2.651-1.24.828,3.02,7.3h0l6.146-1.221,3.645-.726,4.17-8.109h0l-8.681-2.788v0Z" transform="translate(-155.936 -35.852)" fill="url(#linear-gradient-73)"/>
            <path id="Path_42193" data-name="Path 42193" d="M175.614,85.082l0,0v0l5.211-3.481L177.807,74.3l-6.147,1.221-3.644.726-4.169,8.109h0l8.682,2.788h0v0Z" transform="translate(-161.059 -33.754)" fill="url(#linear-gradient-74)"/>
            <path id="Path_42194" data-name="Path 42194" d="M198.785,88.6h-7.9l-1.222,6.145-.725,3.644v0l5.9,6.956,5.9-6.958-.725-3.644Z" transform="translate(-158.235 -32.145)" fill="url(#linear-gradient-5)"/>
            <path id="Path_42195" data-name="Path 42195" d="M207.83,91.659l2.064,3.09,9.088.748-.749-9.087h0l-3.09-2.064h0l-5.211-3.483-5.585,5.584Z" transform="translate(-156.501 -33.016)" fill="url(#linear-gradient-76)"/>
            <path id="Path_42196" data-name="Path 42196" d="M182.127,91.659l0,0v0l3.481-5.209h0l-5.582-5.584-5.211,3.483-3.09,2.064-.748,9.085v0l9.086-.748v0Z" transform="translate(-160.256 -33.016)" fill="url(#linear-gradient-77)"/>
            <path id="Path_42197" data-name="Path 42197" d="M197.788,54.32l7.3,3.018v0h0l1.018-1.523,2.464-3.687,2.064-3.09-2.783-8.681v0l-8.11,4.168-.725,3.644Z" transform="translate(-157.239 -37.574)" fill="url(#linear-gradient-78)"/>
            <path id="Path_42198" data-name="Path 42198" d="M190.887,54.6h7.9l1.223-6.147.725-3.644-5.9-6.956-5.9,6.956.725,3.644Z" transform="translate(-158.235 -37.855)" fill="url(#linear-gradient-6)"/>
            <path id="Path_42199" data-name="Path 42199" d="M208.567,91.1v0l-3.482-5.213-7.294,3.025,1.222,6.145.725,3.644,8.109,4.17,2.787-8.681h0Z" transform="translate(-157.239 -32.451)" fill="url(#linear-gradient-80)"/>
            <path id="Path_42200" data-name="Path 42200" d="M212.39,74.3l-3.02,7.3h0l8.3,5.547,8.683-2.788-4.168-8.107h0l-3.645-.726Z" transform="translate(-155.936 -33.754)" fill="url(#linear-gradient-81)"/>
            <path id="Path_42201" data-name="Path 42201" d="M207.83,51.328v0l-2.465,3.685-1.017,1.523,5.586,5.582v0h0l1.24-.828,3.97-2.653,3.09-2.064.749-9.087-9.088.748h0v0Z" transform="translate(-156.501 -36.771)" fill="url(#linear-gradient-82)"/>
            <path id="Path_42202" data-name="Path 42202" d="M190.766,95.05h0l1.222-6.145-7.3-3.025-3.481,5.211v0l-2.063,3.088,2.786,8.681v0l8.109-4.168v0Z" transform="translate(-159.337 -32.451)" fill="url(#linear-gradient-83)"/>
          </g>
          <path id="Path_42203" data-name="Path 42203" d="M180.509,106.525l6.92,8.3v0l-17.678-7.323h0l10.76-.98Z" transform="translate(-148.893 -18.627)" fill="url(#linear-gradient-5)"/>
          <path id="Path_42204" data-name="Path 42204" d="M207.492,55.926l-7.3-3.018h-7.9l-7.3,3.02-5.582,5.584-3.022,7.3v7.9l3.022,7.3L185,89.591l7.3,3.025h7.9l7.3-3.025,5.588-5.584,3.02-7.3v-7.9l-3.02-7.3v0l-5.588-5.582Z" transform="translate(-148.146 -24.66)" fill="url(#linear-gradient-54)"/>
        </g>
        <g id="Group_37361" data-name="Group 37361" transform="translate(0.042 0.043)" style="mix-blend-mode: color-burn;isolation: isolate">
          <path id="Path_42205" data-name="Path 42205" d="M151,62.154h0l0,0Z" transform="translate(-151.003 -23.62)" fill="none"/>
          <path id="Path_42206" data-name="Path 42206" d="M202.263,46.039h0l-2.056,6.5Z" transform="translate(-145.466 -25.433)" fill="none"/>
          <path id="Path_42207" data-name="Path 42207" d="M175.465,64.783l-.946,8.542.946-8.542Z" transform="translate(-148.357 -23.324)" fill="none"/>
          <path id="Path_42208" data-name="Path 42208" d="M211.8,62.133l6.052-3.14h0l3.587-1.862v0h0l-9.637,5Z" transform="translate(-144.161 -24.185)" fill="none"/>
          <path id="Path_42209" data-name="Path 42209" d="M195.948,90.711l8.247-2.395-8.248,2.395h0l.587,6.793h0v0l.348,4.022,0,0-.347-4.026Z" transform="translate(-145.945 -20.676)" fill="none"/>
          <path id="Path_42210" data-name="Path 42210" d="M214.051,69.137l-.94,8.544v0l.94-8.54,6.794-.587h0l4.025-.35h0l-4.027.348Z" transform="translate(-144.014 -22.939)" fill="none"/>
          <path id="Path_42211" data-name="Path 42211" d="M187.322,92.958l1.056-3.335h0Z" transform="translate(-146.916 -20.529)" fill="none"/>
          <path id="Path_42212" data-name="Path 42212" d="M192.529,51.031h0l8.542.945Z" transform="translate(-146.33 -24.872)" fill="none"/>
          <path id="Path_42213" data-name="Path 42213" d="M185.206,53.43l-.919-1.767.919,1.769,8.251-2.4Z" transform="translate(-147.257 -24.872)" fill="none"/>
          <path id="Path_42214" data-name="Path 42214" d="M164.795,73.4h0l4.025-.348h0l6.789-.589-6.791.587Z" transform="translate(-149.451 -22.46)" fill="none"/>
          <path id="Path_42215" data-name="Path 42215" d="M211.114,51.174,206.974,56.1v0l0,0Z" transform="translate(-144.705 -24.856)" fill="none"/>
          <path id="Path_42216" data-name="Path 42216" d="M177.648,79.875l5.374,6.708-5.374-6.708h0l-6.05,3.144-3.585,1.862v0l3.585-1.864Z" transform="translate(-149.089 -21.626)" fill="none"/>
          <path id="Path_42217" data-name="Path 42217" d="M185.328,99.038h0l.34-1.076Z" transform="translate(-147.14 -19.59)" fill="none"/>
          <path id="Path_42218" data-name="Path 42218" d="M215.288,87.873l-5.217-4.387h0l-6.709,5.374,3.141,6.049h0v0l1.861,3.583h0l-1.862-3.585h0l-3.142-6.049,6.707-5.372,5.217,4.385h0l3.094,2.6h0Z" transform="translate(-145.111 -21.219)" fill="none"/>
          <path id="Path_42219" data-name="Path 42219" d="M184.7,52.4l-2.222-4.283h0l-1.861-3.585h0l1.864,3.585Z" transform="translate(-147.671 -25.603)" fill="none"/>
          <path id="Path_42220" data-name="Path 42220" d="M192.485,50.509l-.448-5.174h0l-.348-4.026,0,0,.348,4.029Z" transform="translate(-146.425 -25.966)" fill="none"/>
          <path id="Path_42221" data-name="Path 42221" d="M231.077,95.376l2.354-5.684-2.273,1.5Z" transform="translate(-141.992 -20.521)" fill="url(#linear-gradient-86)"/>
          <path id="Path_42222" data-name="Path 42222" d="M157.638,46.709l-2.353,5.68,2.273-1.5Z" transform="translate(-150.521 -25.358)" fill="url(#linear-gradient-87)"/>
          <path id="Path_42223" data-name="Path 42223" d="M237.629,79.489V73.342l-1.523,2.26Z" transform="translate(-141.426 -22.361)" fill="url(#linear-gradient-88)"/>
          <path id="Path_42224" data-name="Path 42224" d="M151,62.639v6.145l1.523-2.258Z" transform="translate(-151.003 -23.565)" fill="url(#linear-gradient-89)"/>
          <path id="Path_42225" data-name="Path 42225" d="M237.582,62.28l-2.351-5.68-.544,2.671Z" transform="translate(-141.586 -24.245)" fill="url(#linear-gradient-90)"/>
          <path id="Path_42226" data-name="Path 42226" d="M153.541,85.481l.543-2.673L151.19,79.8Z" transform="translate(-150.982 -21.634)" fill="url(#linear-gradient-91)"/>
          <path id="Path_42227" data-name="Path 42227" d="M230.991,46.358l-4.348-4.348.519,2.677Z" transform="translate(-142.491 -25.887)" fill="url(#linear-gradient-92)"/>
          <path id="Path_42228" data-name="Path 42228" d="M162.275,99.932l-.52-2.675-3.825-1.671Z" transform="translate(-150.223 -19.858)" fill="url(#linear-gradient-93)"/>
          <path id="Path_42229" data-name="Path 42229" d="M218.859,34.15,213.178,31.8l1.5,2.271Z" transform="translate(-144.006 -27.036)" fill="url(#linear-gradient-94)"/>
          <path id="Path_42230" data-name="Path 42230" d="M175.873,109.943l-1.5-2.271-4.17-.08Z" transform="translate(-148.843 -18.507)" fill="url(#linear-gradient-95)"/>
          <path id="Path_42231" data-name="Path 42231" d="M202.973,27.517h-6.141l2.257,1.523Z" transform="translate(-145.846 -27.517)" fill="url(#linear-gradient-96)"/>
          <path id="Path_42232" data-name="Path 42232" d="M192.272,114.142l-2.26-1.525-3.89,1.525Z" transform="translate(-147.051 -17.941)" fill="url(#linear-gradient-97)"/>
          <path id="Path_42233" data-name="Path 42233" d="M185.763,27.7l-5.675,2.351,2.669.543Z" transform="translate(-147.73 -27.497)" fill="url(#linear-gradient-98)"/>
          <path id="Path_42234" data-name="Path 42234" d="M203.284,114.1l5.682-2.353-2.674-.543Z" transform="translate(-145.12 -18.101)" fill="url(#linear-gradient-99)"/>
          <path id="Path_42235" data-name="Path 42235" d="M169.846,34.439,165.5,38.79l2.677-.522Z" transform="translate(-149.372 -26.739)" fill="url(#linear-gradient-100)"/>
          <path id="Path_42236" data-name="Path 42236" d="M230.64,74.678l-8.223,5.547,3.541,9.265,6.175,3.394,2.273-1.506,4.763-11.5v-.539l-1.523-3.89Z" transform="translate(-142.967 -22.211)" fill="url(#linear-gradient-101)"/>
          <path id="Path_42237" data-name="Path 42237" d="M233.423,89.692v0L231.15,91.2Z" transform="translate(-141.984 -20.521)" fill="url(#linear-gradient-102)"/>
          <path id="Path_42238" data-name="Path 42238" d="M233.423,89.692v0L231.15,91.2Z" transform="translate(-141.984 -20.521)" fill="url(#linear-gradient-103)"/>
          <path id="Path_42239" data-name="Path 42239" d="M236.106,75.373l1.523,3.89v0Z" transform="translate(-141.426 -22.132)" fill="url(#linear-gradient-104)"/>
          <path id="Path_42240" data-name="Path 42240" d="M236.106,75.373l1.523,3.89v0Z" transform="translate(-141.426 -22.132)" fill="url(#linear-gradient-105)"/>
          <path id="Path_42241" data-name="Path 42241" d="M159.531,68.667v0l8.224-5.543-3.54-9.265-6.175-3.394-2.273,1.5L151,63.468v0h0l0,0,0,0v.537l1.523,3.89Z" transform="translate(-151.003 -24.936)" fill="url(#linear-gradient-106)"/>
          <path id="Path_42242" data-name="Path 42242" d="M155.285,51.967h0l2.273-1.5Z" transform="translate(-150.521 -24.936)" fill="url(#linear-gradient-107)"/>
          <path id="Path_42243" data-name="Path 42243" d="M155.285,51.967h0l2.273-1.5Z" transform="translate(-150.521 -24.936)" fill="url(#linear-gradient-108)"/>
          <path id="Path_42244" data-name="Path 42244" d="M151,62.637v0l1.523,3.887Z" transform="translate(-151.003 -23.566)" fill="url(#linear-gradient-109)"/>
          <path id="Path_42245" data-name="Path 42245" d="M151,62.637v0l1.523,3.887Z" transform="translate(-151.003 -23.566)" fill="url(#linear-gradient-110)"/>
          <path id="Path_42246" data-name="Path 42246" d="M229.159,60.966l-5.476,8.272,6.814,7.2,7.006.774,1.523-2.26V62.507l-.206-.5L235.925,59Z" transform="translate(-142.824 -23.975)" fill="url(#linear-gradient-111)"/>
          <path id="Path_42247" data-name="Path 42247" d="M166.347,74.107l-6.816-7.2-7-.771L151,68.39V80.841h0l.207.5,2.894,3.007,6.766-1.964Z" transform="translate(-151.003 -23.172)" fill="url(#linear-gradient-112)"/>
          <path id="Path_42248" data-name="Path 42248" d="M151,68.39h0l1.523-2.258Z" transform="translate(-151.003 -23.172)" fill="url(#linear-gradient-113)"/>
          <path id="Path_42249" data-name="Path 42249" d="M151,68.39h0l1.523-2.258Z" transform="translate(-151.003 -23.172)" fill="url(#linear-gradient-114)"/>
          <path id="Path_42250" data-name="Path 42250" d="M151.19,79.8l2.894,3.007L151.19,79.8Z" transform="translate(-150.982 -21.634)" fill="url(#linear-gradient-115)"/>
          <path id="Path_42251" data-name="Path 42251" d="M151.19,79.8l2.894,3.007L151.19,79.8Z" transform="translate(-150.982 -21.634)" fill="url(#linear-gradient-116)"/>
          <path id="Path_42252" data-name="Path 42252" d="M222.36,48.823l-1.895,9.737h0l9.055,4.048,6.765-1.966.544-2.671-4.764-11.5v0l-.381-.382-3.829-1.671Z" transform="translate(-143.186 -25.616)" fill="url(#linear-gradient-117)"/>
          <path id="Path_42253" data-name="Path 42253" d="M169.669,84.786l-9.057-4.048L153.846,82.7l-.543,2.673,4.765,11.5,0,0,.379.378,3.827,1.671,5.5-4.407Z" transform="translate(-150.744 -21.529)" fill="url(#linear-gradient-118)"/>
          <path id="Path_42254" data-name="Path 42254" d="M157.93,95.586l3.825,1.671-3.827-1.671Z" transform="translate(-150.224 -19.858)" fill="url(#linear-gradient-119)"/>
          <path id="Path_42255" data-name="Path 42255" d="M157.93,95.586l3.825,1.671-3.827-1.671Z" transform="translate(-150.224 -19.858)" fill="url(#linear-gradient-120)"/>
          <path id="Path_42256" data-name="Path 42256" d="M211.479,40.017h0l1.976,9.719v0l9.914.278,5.5-4.407-.519-2.677-8.8-8.8h0l-.5-.206-4.177-.08Z" transform="translate(-144.198 -26.806)" fill="url(#linear-gradient-121)"/>
          <path id="Path_42257" data-name="Path 42257" d="M176.783,93.4h0l-9.914-.276h0l-5.5,4.407.52,2.675,8.8,8.8h0l.5.206,4.17.08,3.4-6.175Z" transform="translate(-149.837 -20.135)" fill="url(#linear-gradient-122)"/>
          <path id="Path_42258" data-name="Path 42258" d="M198.165,36.044h0l5.544,8.224-1.218,3.855h0l1.219-3.857,9.265-3.537,3.394-6.178-1.5-2.271-11.5-4.763h-.544l-3.884,1.523Z" transform="translate(-145.696 -27.517)" fill="url(#linear-gradient-123)"/>
          <path id="Path_42259" data-name="Path 42259" d="M186.609,98.93h0l-9.265,3.542h0l-3.4,6.175,1.5,2.271,11.5,4.763v0h.54l3.89-1.525.774-7Z" transform="translate(-148.421 -19.482)" fill="url(#linear-gradient-124)"/>
          <path id="Path_42260" data-name="Path 42260" d="M184.453,37.385l8.27,5.474,7.206-6.814.774-7-2.257-1.523H185.992l-.5.206-3.005,2.894Z" transform="translate(-147.46 -27.517)" fill="url(#linear-gradient-125)"/>
          <path id="Path_42261" data-name="Path 42261" d="M205.867,105.669,197.6,100.2v0l-7.205,6.814h0l-.774,7,2.26,1.525h12.449l.494-.206,3.008-2.9Z" transform="translate(-146.657 -19.339)" fill="url(#linear-gradient-126)"/>
          <path id="Path_42262" data-name="Path 42262" d="M163.5,55.273l9.719-1.977.278-9.915-4.407-5.5-2.677.522-8.8,8.8v0l-.206.5-.08,4.176Z" transform="translate(-150.291 -26.351)" fill="url(#linear-gradient-127)"/>
          <path id="Path_42263" data-name="Path 42263" d="M157.409,46.709h0l-.08,4.176Z" transform="translate(-150.291 -25.358)" fill="url(#linear-gradient-128)"/>
          <path id="Path_42264" data-name="Path 42264" d="M157.409,46.709h0l-.08,4.176Z" transform="translate(-150.291 -25.358)" fill="url(#linear-gradient-129)"/>
          <path id="Path_42265" data-name="Path 42265" d="M165.5,38.4h0l2.677-.522Z" transform="translate(-149.372 -26.351)" fill="url(#linear-gradient-130)"/>
          <path id="Path_42266" data-name="Path 42266" d="M165.5,38.4h0l2.677-.522Z" transform="translate(-149.372 -26.351)" fill="url(#linear-gradient-131)"/>
          <path id="Path_42267" data-name="Path 42267" d="M172.311,44.288v0l9.733,1.9v0l4.05-9.054-1.965-6.767-2.669-.543-11.5,4.763h0l-.38.38L167.9,38.788Z" transform="translate(-149.101 -27.259)" fill="url(#linear-gradient-132)"/>
          <path id="Path_42268" data-name="Path 42268" d="M218.009,98.871l-9.736-1.895,0,0-4.049,9.054,0,0,1.963,6.769,2.675.543,11.5-4.763.378-.38,1.673-3.829Z" transform="translate(-145.014 -19.701)" fill="url(#linear-gradient-133)"/>
          <path id="Path_42269" data-name="Path 42269" d="M208.662,111.742h0l-2.675-.543Z" transform="translate(-144.815 -18.101)" fill="url(#linear-gradient-134)"/>
          <path id="Path_42270" data-name="Path 42270" d="M208.662,111.742h0l-2.675-.543Z" transform="translate(-144.815 -18.101)" fill="url(#linear-gradient-135)"/>
          <path id="Path_42271" data-name="Path 42271" d="M226.611,87.992l-9.719,1.975-.276,9.915h0l4.405,5.5,2.677-.521,8.8-8.8,0,0,.2-.493.082-4.181Z" transform="translate(-143.62 -20.712)" fill="url(#linear-gradient-136)"/>
          <path id="Path_42272" data-name="Path 42272" d="M165.484,74.592l4.026-.35,6.791-.587.946-8.542-6.5-2.053-3.855-1.219-8.224,5.543v0l6.816,7.2h0Z" transform="translate(-150.14 -23.655)" fill="url(#linear-gradient-137)"/>
          <path id="Path_42273" data-name="Path 42273" d="M172.514,83.853l6.05-3.144h0l-2.4-8.248-6.789.589h0l-4.025.348h0v0l-5.476,8.274,9.057,4.048v0Z" transform="translate(-150.005 -22.46)" fill="url(#linear-gradient-138)"/>
          <path id="Path_42274" data-name="Path 42274" d="M164.795,73.3h0v0Z" transform="translate(-149.451 -22.366)" fill="#fff"/>
          <path id="Path_42275" data-name="Path 42275" d="M164.795,73.3h0v0Z" transform="translate(-149.451 -22.366)" fill="#fff"/>
          <path id="Path_42276" data-name="Path 42276" d="M164.795,73.3h0v0Z" transform="translate(-149.451 -22.366)" fill="#fff"/>
          <path id="Path_42277" data-name="Path 42277" d="M183.214,86.583l-5.374-6.708-6.049,3.144-3.585,1.864-1.894,9.735h0l9.914.276h0l2.6-3.092Z" transform="translate(-149.28 -21.626)" fill="url(#linear-gradient-139)"/>
          <path id="Path_42278" data-name="Path 42278" d="M207.734,57.423v0l4.141-4.926.247-.293,2.6-3.094-1.976-9.719h0l-9.265,3.538-1.219,3.857-2.056,6.5Z" transform="translate(-145.466 -26.181)" fill="url(#linear-gradient-140)"/>
          <path id="Path_42279" data-name="Path 42279" d="M187.683,96.541l1-3.164,1.056-3.335L182.211,85.9l-4.387,5.219-2.6,3.092,1.976,9.721h0l9.265-3.542.34-1.076Z" transform="translate(-148.277 -20.947)" fill="url(#linear-gradient-141)"/>
          <path id="Path_42280" data-name="Path 42280" d="M182.211,85.9l-4.387,5.219-2.6,3.092,2.6-3.092Z" transform="translate(-148.277 -20.947)" fill="url(#linear-gradient-142)"/>
          <path id="Path_42281" data-name="Path 42281" d="M182.211,85.9l-4.387,5.219-2.6,3.092,2.6-3.092Z" transform="translate(-148.277 -20.947)" fill="url(#linear-gradient-143)"/>
          <path id="Path_42282" data-name="Path 42282" d="M192.037,46.024h0l.448,5.174.139,1.617,8.542.945,2.056-6.5,1.218-3.855L198.9,35.182h0L191.687,42l0,0Z" transform="translate(-146.425 -26.655)" fill="url(#linear-gradient-144)"/>
          <path id="Path_42283" data-name="Path 42283" d="M197.73,97.361v0h0l-.587-6.793-8.54-.941-1.056,3.335-1,3.166-.878,2.777-.34,1.076,5.547,8.224h0l7.205-6.814v0l0,0Z" transform="translate(-147.14 -20.529)" fill="url(#linear-gradient-145)"/>
          <path id="Path_42284" data-name="Path 42284" d="M185.634,98.564l.878-2.777,1-3.166-1,3.164Z" transform="translate(-147.106 -20.192)" fill="url(#linear-gradient-146)"/>
          <path id="Path_42285" data-name="Path 42285" d="M185.634,98.564l.878-2.777,1-3.166-1,3.164Z" transform="translate(-147.106 -20.192)" fill="url(#linear-gradient-147)"/>
          <path id="Path_42286" data-name="Path 42286" d="M213.53,76.721v0l-4.137,7.525h0l5.217,4.387,3.094,2.6h0l9.719-1.975L223.883,80l-3.854-1.219Z" transform="translate(-144.432 -21.981)" fill="url(#linear-gradient-148)"/>
          <path id="Path_42287" data-name="Path 42287" d="M217.853,58.993h0l-6.052,3.14,2.4,8.251,6.795-.587,4.027-.348,5.476-8.272-9.055-4.048v0Z" transform="translate(-144.161 -24.185)" fill="url(#linear-gradient-149)"/>
          <path id="Path_42288" data-name="Path 42288" d="M207.341,94.368v0h0L204.2,88.316h0l-8.247,2.395.59,6.795.347,4.026,8.27,5.474,0,0,4.049-9.054,0,0h0Z" transform="translate(-145.945 -20.676)" fill="url(#linear-gradient-150)"/>
          <path id="Path_42289" data-name="Path 42289" d="M179.929,59.727l6.7-5.374,0,0-.919-1.769L183.49,48.3l-1.864-3.585-9.733-1.9v0l-.278,9.915,3.1,2.6Z" transform="translate(-148.683 -25.795)" fill="url(#linear-gradient-151)"/>
          <path id="Path_42290" data-name="Path 42290" d="M176.775,66.251h0l4.137-7.527-5.217-4.387-3.1-2.6-9.719,1.977,3.54,9.265,3.855,1.219Z" transform="translate(-149.667 -24.792)" fill="url(#linear-gradient-152)"/>
          <path id="Path_42291" data-name="Path 42291" d="M224.872,68.2l-4.025.35h0l-6.794.587-.94,8.54,6.5,2.056,3.854,1.219,8.223-5.547-6.814-7.2Z" transform="translate(-144.014 -22.939)" fill="url(#linear-gradient-153)"/>
          <path id="Path_42292" data-name="Path 42292" d="M211.114,51.517l-4.139,4.926,5.371,6.7h0l9.637-5,1.895-9.737-9.914-.278v0l-2.6,3.094Z" transform="translate(-144.704 -25.198)" fill="url(#linear-gradient-154)"/>
          <path id="Path_42293" data-name="Path 42293" d="M210.7,51.516l.248-.293,2.6-3.094-2.6,3.094Z" transform="translate(-144.286 -25.198)" fill="url(#linear-gradient-155)"/>
          <path id="Path_42294" data-name="Path 42294" d="M210.7,51.516l.248-.293,2.6-3.094-2.6,3.094Z" transform="translate(-144.286 -25.198)" fill="url(#linear-gradient-156)"/>
          <path id="Path_42295" data-name="Path 42295" d="M182.478,49.029h0l2.222,4.283.919,1.767,8.251-2.4h0l-.139-1.617-.45-5.174-.348-4.029-8.27-5.474-4.05,9.054v0h0Z" transform="translate(-147.671 -26.519)" fill="url(#linear-gradient-157)"/>
          <path id="Path_42296" data-name="Path 42296" d="M215.288,87.873h0l-5.217-4.385-6.707,5.371,3.142,6.049h0l1.862,3.585,9.736,1.895h0l.276-9.915h0Z" transform="translate(-145.111 -21.219)" fill="url(#linear-gradient-158)"/>
          <path id="Path_42297" data-name="Path 42297" d="M219.071,107.5l4.349-4.35-2.677.521Z" transform="translate(-143.343 -19.006)" fill="url(#linear-gradient-159)"/>
          <path id="Path_42298" data-name="Path 42298" d="M219.07,107.452h0l1.672-3.829Z" transform="translate(-143.343 -18.954)" fill="url(#linear-gradient-160)"/>
          <path id="Path_42299" data-name="Path 42299" d="M219.07,107.452h0l1.672-3.829Z" transform="translate(-143.343 -18.954)" fill="url(#linear-gradient-161)"/>
          <path id="Path_42300" data-name="Path 42300" d="M223.251,103.154h0l-2.677.521Z" transform="translate(-143.174 -19.006)" fill="url(#linear-gradient-162)"/>
          <path id="Path_42301" data-name="Path 42301" d="M223.251,103.154h0l-2.677.521Z" transform="translate(-143.174 -19.006)" fill="url(#linear-gradient-163)"/>
          <path id="Path_42302" data-name="Path 42302" d="M216,62.819h0l-5.371-6.7h0l0,0L203.1,51.976l-8.542-.945h0l-8.251,2.4,0,0L179.6,58.8l-4.137,7.527-.946,8.542,2.4,8.248,5.374,6.708,7.529,4.137h0l8.54.941h0l8.248-2.395h0l6.709-5.374,4.137-7.525.94-8.544Z" transform="translate(-148.357 -24.872)" fill="url(#linear-gradient-164)"/>
          <rect id="Rectangle_746" data-name="Rectangle 746" height="8.591" transform="translate(45.732 65.269)" fill="#fff"/>
          <rect id="Rectangle_747" data-name="Rectangle 747" height="8.591" transform="translate(45.732 65.269)" fill="#fff"/>
          <path id="Path_42303" data-name="Path 42303" d="M214.2,69.877l-2.4-8.251h0Z" transform="translate(-144.161 -23.679)" fill="url(#linear-gradient-165)"/>
          <path id="Path_42304" data-name="Path 42304" d="M214.2,69.877l-2.4-8.251h0Z" transform="translate(-144.161 -23.679)" fill="url(#linear-gradient-166)"/>
          <path id="Path_42305" data-name="Path 42305" d="M203.361,88.316h0Z" transform="translate(-145.111 -20.676)" fill="#fff"/>
          <path id="Path_42306" data-name="Path 42306" d="M203.361,88.316h0Z" transform="translate(-145.111 -20.676)" fill="#fff"/>
          <path id="Path_42307" data-name="Path 42307" d="M212.346,62.3l-5.371-6.7h0Z" transform="translate(-144.704 -24.357)" fill="url(#linear-gradient-167)"/>
          <path id="Path_42308" data-name="Path 42308" d="M212.346,62.3l-5.371-6.7h0Z" transform="translate(-144.704 -24.357)" fill="url(#linear-gradient-168)"/>
          <path id="Path_42309" data-name="Path 42309" d="M211.8,61.627Z" transform="translate(-144.161 -23.679)" fill="#fff"/>
          <path id="Path_42310" data-name="Path 42310" d="M211.8,61.627Z" transform="translate(-144.161 -23.679)" fill="#fff"/>
        </g>
        <path id="Path_42311" data-name="Path 42311" d="M216.1,68.812l-3.02-7.3v0l-5.588-5.582v0l-7.3-3.018h-7.9l-7.3,3.02-5.582,5.584-3.022,7.3v7.9l.992,2.4L216.1,71.41Z" transform="translate(-148.103 -24.617)" opacity="0.8" fill="url(#linear-gradient-169)" style="mix-blend-mode: screen;isolation: isolate"/>
      </g>
    </g>
    <g id="Group_37376" data-name="Group 37376" transform="translate(47.615 47.252)" opacity="0.82" style="mix-blend-mode: multiply;isolation: isolate">
      <path id="Path_40553" data-name="Path 40553" d="M214.874,255v25.136H211V255Z" transform="translate(-191.061 -230.903)" fill="url(#linear-gradient-170)"/>
      <path id="Path_40554" data-name="Path 40554" d="M320.78,129v25.136H317V129Z" transform="translate(-287.044 -116.81)" fill="url(#linear-gradient-170)"/>
      <path id="Path_40555" data-name="Path 40555" d="M426.78,0V25.136H423V0Z" transform="translate(-383.028)" fill="url(#linear-gradient-170)"/>
      <path id="Path_40556" data-name="Path 40556" d="M109.78,129v25.136H106V129Z" transform="translate(-95.983 -116.81)" fill="url(#linear-gradient-170)"/>
      <path id="Path_40557" data-name="Path 40557" d="M3.78,0V25.136H0V0Z" fill="url(#linear-gradient-170)"/>
    </g>
    <path id="Path_42405" data-name="Path 42405" d="M2090.108,1570.707l.231,1.748-1.593.755,1.734.318.225,1.75.839-1.55,1.732.325-1.215-1.277.845-1.546-1.59.76-1.209-1.282Zm-23.9,55.192h1.761l.54,1.679.544-1.676,1.762.006-1.426-1.035.551-1.674-1.426,1.035-1.422-1.04.545,1.676-1.43,1.028Zm-2.132-11.719h0l1.7.455.085,1.76.961-1.478,1.7.461-1.11-1.369.966-1.476-1.646.633-1.1-1.373.092,1.76-1.648.626Zm.974-11.874h0l1.527.882-.373,1.723,1.31-1.18,1.521.887-.717-1.61,1.315-1.173-1.753.184-.711-1.613-.367,1.724-1.753.176Zm4.014-11.217h0l1.245,1.247-.805,1.566,1.57-.8,1.243,1.251-.277-1.74,1.575-.8-1.742-.274-.27-1.742-.8,1.57-1.739-.283Zm6.78-9.794h0l.882,1.525-1.186,1.307,1.725-.367.875,1.529.184-1.752,1.725-.358-1.61-.718.192-1.753-1.18,1.31-1.607-.723Zm19.853-12.8h0v1.762l-1.679.538,1.676.545-.006,1.761,1.035-1.426,1.674.551-1.036-1.425,1.042-1.423-1.677.545-1.031-1.43Zm11.719-2.128h0l-.456,1.7-1.76.085,1.477.96-.461,1.7,1.371-1.11,1.474.964-.631-1.644,1.373-1.1-1.759.092-.626-1.647Zm11.872.974h0l-.881,1.526-1.722-.374,1.179,1.31-.886,1.523,1.61-.716,1.174,1.315-.184-1.754,1.613-.711-1.723-.365-.179-1.754Zm11.216,4.014h0l-1.245,1.246-1.568-.807.8,1.57-1.251,1.242,1.74-.276.795,1.575.275-1.741,1.741-.271-1.57-.8.282-1.739Zm9.8,6.78h0l-1.527.881-1.3-1.184.365,1.723-1.529.875,1.753.186.359,1.724.718-1.611,1.752.192-1.31-1.178.723-1.608Zm7.707,9.083h0l-1.7.455-.954-1.48-.092,1.761-1.7.449,1.646.631-.1,1.76,1.109-1.37,1.643.637-.961-1.476,1.115-1.366Zm5.092,10.768h-1.761l-.54-1.677-.544,1.676-1.763-.006,1.427,1.036-.55,1.674,1.424-1.036,1.422,1.041-.544-1.677,1.428-1.031Zm2.134,11.721h0l-1.7-.456-.085-1.761-.96,1.479-1.7-.462,1.109,1.37-.965,1.474,1.645-.632,1.1,1.373-.093-1.759,1.649-.626Zm-.974,11.874h0l-1.526-.882.373-1.721-1.31,1.178-1.523-.887.718,1.611-1.315,1.175,1.753-.184.712,1.612.366-1.724,1.753-.176Zm-4.014,11.214h0l-1.247-1.246.807-1.566-1.57.8-1.242-1.25.277,1.741-1.574.794,1.741.274.27,1.743.8-1.571,1.74.282Zm-6.78,9.8h0l-.881-1.528,1.185-1.305-1.723.366-.876-1.529-.185,1.752-1.724.36,1.61.715-.191,1.754,1.179-1.31,1.606.723Zm-9.083,7.706h0l-.456-1.7,1.481-.954-1.76-.091-.45-1.706-.631,1.647-1.76-.1,1.369,1.11-.638,1.641,1.476-.959,1.367,1.114Zm-10.77,5.092h0v-1.763l1.678-.538-1.676-.545.005-1.761-1.035,1.425-1.674-.55,1.036,1.425-1.041,1.423,1.677-.545,1.031,1.429Zm-11.721,2.132h0l.454-1.7,1.762-.083-1.479-.961.462-1.7-1.37,1.109-1.474-.965.632,1.645-1.374,1.1,1.759-.093.626,1.647Zm-11.872-.973h0l.881-1.527,1.723.373-1.18-1.309.887-1.523-1.61.716-1.173-1.313.183,1.753-1.612.712,1.725.364.176,1.755Zm-11.214-4.013h0l1.244-1.246,1.567.807-.8-1.571,1.251-1.242-1.74.276-.794-1.574-.276,1.742-1.741.268,1.57.8-.281,1.74Zm-9.8-6.779h0l1.527-.881,1.3,1.184-.366-1.724,1.53-.875-1.753-.184-.359-1.725-.718,1.61-1.752-.193,1.31,1.18-.723,1.608Zm-7.706-9.083h0l1.7-.457.955,1.482.091-1.761,1.705-.45-1.645-.632.1-1.758-1.11,1.369-1.642-.638.96,1.479-1.114,1.365Zm-6.534-16.515h0l1.748.229.316,1.734.757-1.592,1.746.235-1.278-1.212.761-1.589-1.548.844-1.275-1.218.322,1.734-1.55.836Zm-.6-11.9h0l1.714-.407.135-1.757.918,1.506,1.712-.413-1.147,1.336.922,1.5-1.626-.68-1.142,1.342.142-1.756-1.628-.673Zm2.5-11.648h0l1.762.052.587-1.662.495,1.69,1.762.045-1.455.995.5,1.688-1.394-1.076-1.451,1,.593-1.659-1.4-1.073Zm5.432-10.6h0l1.689.5,1-1.453.042,1.761,1.69.5-1.663.583.049,1.762-1.07-1.4-1.661.591,1-1.449-1.075-1.4Zm7.992-8.834h0l1.5.923,1.339-1.146-.416,1.713,1.5.919-1.758.133-.407,1.713-.67-1.63-1.757.141,1.344-1.14-.676-1.626Zm21.344-10.124h0l-.227,1.749-1.735.316,1.592.759-.235,1.745,1.212-1.28,1.588.765-.843-1.548,1.217-1.277-1.733.323-.837-1.552Zm11.9-.592h0l.406,1.715,1.758.136-1.5.917.412,1.714-1.336-1.148-1.5.922.679-1.627-1.341-1.142,1.757.142.672-1.628Zm11.646,2.5h0l-.052,1.76,1.663.586-1.692.5-.043,1.76-.994-1.454-1.689.5,1.078-1.4-1-1.451,1.659.594,1.072-1.4Zm10.6,5.432h0l-.506,1.688,1.455,1-1.763.042-.5,1.69-.584-1.663-1.762.048,1.4-1.069-.591-1.661,1.45,1,1.4-1.074Zm8.833,7.99h0l-.923,1.5,1.145,1.338-1.713-.416-.918,1.5-.136-1.758-1.714-.41,1.631-.669-.139-1.757,1.141,1.344,1.626-.677Zm6.466,10.005h0l-1.747.233-.755-1.592-.319,1.733-1.748.225,1.549.84-.326,1.732,1.278-1.214,1.546.844-.761-1.589,1.283-1.211Zm3.654,11.339h0l-1.746-.228-.318-1.734-.757,1.592-1.745-.235,1.278,1.211-.762,1.589,1.547-.843,1.275,1.217-.323-1.733,1.55-.836Zm.6,11.9h0l-1.713.408-.137,1.756-.917-1.5-1.712.413,1.149-1.337-.924-1.5,1.627.678,1.142-1.341-.142,1.757,1.627.672Zm-2.5,11.646h0l-1.762-.052-.585,1.662-.5-1.691-1.762-.045,1.454-.994-.5-1.688,1.395,1.076,1.452-1-.593,1.659,1.4,1.072Zm-5.433,10.6h0l-1.688-.5-1,1.453-.041-1.763-1.691-.5,1.663-.584-.048-1.763,1.07,1.4,1.66-.59-1,1.45,1.074,1.4Zm-7.99,8.834h0l-1.5-.925-1.338,1.146.416-1.712-1.5-.919,1.757-.135.408-1.713.671,1.63,1.757-.139-1.344,1.139.677,1.628Zm-10.006,6.465h0l-.231-1.745,1.593-.755-1.733-.32-.226-1.748-.839,1.55-1.731-.327,1.216,1.278-.846,1.547,1.59-.761,1.208,1.281Zm-11.34,3.656h0l.228-1.749,1.734-.317-1.592-.756.236-1.747-1.212,1.28-1.589-.763.843,1.547-1.217,1.276,1.732-.323.838,1.552Zm-11.9.595h0l-.407-1.714-1.757-.137,1.5-.917-.413-1.714,1.337,1.148,1.5-.921-.68,1.626,1.342,1.143-1.757-.143-.672,1.628Zm-11.646-2.5h0l.051-1.762-1.664-.586,1.693-.495.044-1.762.994,1.455,1.69-.5-1.077,1.4,1,1.45-1.659-.593-1.072,1.4Zm-10.6-5.432h0l.506-1.687-1.453-1,1.762-.043.5-1.69.583,1.663,1.761-.049-1.4,1.071.59,1.66-1.45-1-1.4,1.074Zm-8.834-7.991h0l.926-1.5-1.147-1.339,1.713.417.919-1.5.134,1.758,1.714.408-1.63.671.141,1.757-1.141-1.344-1.627.676Zm-6.465-10h0l1.747-.233.755,1.593.319-1.733,1.747-.226-1.55-.839.325-1.731-1.277,1.213-1.548-.844.762,1.59-1.282,1.209Zm16.507-57.906h0l.456,1.7-1.482.953,1.761.093.449,1.7.631-1.646,1.759.1-1.368-1.109.637-1.642-1.477.959Z" transform="translate(-2040.777 -1543.065)" fillRule="evenodd" fill="url(#linear-gradient-175)"/>
  </g>
</svg>
